Urbanist-LightItalic.ufo
<glyph name="exclam" format="2">
  <advance width="342.0"/>
  <unicode hex="0021"/>
  <outline>
    <contour>
      <point x="87.0" y="420.0" type="line"/>
      <point x="194.33333333333334" y="420.0" type="line"/>
      <point x="331.33333333333337" y="1400.0" type="line"/>
      <point x="224.0" y="1400.0" type="line"/>
    </contour>
    <contour>
      <point x="84.33333333333333" y="-26.0" type="curve" smooth="yes"/>
      <point x="119.99999999999999" y="-26.0"/>
      <point x="152.33333333333334" y="2.0000000000000004"/>
      <point x="157.33333333333334" y="40.333333333333336" type="curve" smooth="yes"/>
      <point x="163.33333333333334" y="81.33333333333334"/>
      <point x="133.0" y="116.66666666666667"/>
      <point x="91.0" y="116.66666666666667" type="curve" smooth="yes"/>
      <point x="54.33333333333333" y="116.66666666666667"/>
      <point x="22.0" y="88.66666666666667"/>
      <point x="17.0" y="53.00000000000001" type="curve" smooth="yes"/>
      <point x="11.0" y="9.333333333333334"/>
      <point x="41.33333333333333" y="-26.0"/>
    </contour>
  </outline>
</glyph>
<glyph name="numbersign" format="2">
  <advance width="1499.5"/>
  <unicode hex="0023"/>
  <outline>
    <contour>
      <point x="1450.0" y="938.6666666666666" type="line"/>
      <point x="1498.0" y="1054.6666666666667" type="line"/>
      <point x="1290.0" y="1054.6666666666667" type="line"/>
      <point x="1431.0" y="1400.0" type="line"/>
      <point x="1309.3333333333333" y="1400.0" type="line"/>
      <point x="1169.3333333333333" y="1054.6666666666667" type="line"/>
      <point x="677.3333333333334" y="1054.6666666666667" type="line"/>
      <point x="819.0" y="1400.0" type="line"/>
      <point x="697.3333333333334" y="1400.0" type="line"/>
      <point x="556.6666666666666" y="1054.6666666666667" type="line"/>
      <point x="347.3333333333333" y="1054.6666666666667" type="line"/>
      <point x="298.3333333333333" y="938.6666666666666" type="line"/>
      <point x="508.3333333333333" y="938.6666666666666" type="line"/>
      <point x="313.3333333333333" y="463.3333333333333" type="line"/>
      <point x="105.33333333333333" y="463.3333333333333" type="line"/>
      <point x="57.333333333333336" y="347.3333333333333" type="line"/>
      <point x="267.3333333333333" y="347.3333333333333" type="line"/>
      <point x="125.0" y="0.0" type="line"/>
      <point x="246.66666666666666" y="0.0" type="line"/>
      <point x="389.0" y="347.3333333333333" type="line"/>
      <point x="879.3333333333334" y="347.3333333333333" type="line"/>
      <point x="737.0" y="0.0" type="line"/>
      <point x="858.6666666666666" y="0.0" type="line"/>
      <point x="1001.0" y="347.3333333333333" type="line"/>
      <point x="1209.0" y="347.3333333333333" type="line"/>
      <point x="1257.0" y="463.3333333333333" type="line"/>
      <point x="1047.0" y="463.3333333333333" type="line"/>
      <point x="1242.0" y="938.6666666666666" type="line"/>
    </contour>
    <contour>
      <point x="925.3333333333334" y="463.3333333333333" type="line"/>
      <point x="435.0" y="463.3333333333333" type="line"/>
      <point x="630.0" y="938.6666666666666" type="line"/>
      <point x="1120.3333333333333" y="938.6666666666666" type="line"/>
    </contour>
  </outline>
</glyph>
<glyph name="dollar" format="2">
  <advance width="1174.5"/>
  <unicode hex="0024"/>
  <outline>
    <contour>
      <point x="705.3333333333333" y="1299.3333333333333" type="curve"/>
      <point x="871.3333333333334" y="1299.3333333333333"/>
      <point x="1036.6666666666667" y="1227.3333333333333"/>
      <point x="1065.3333333333333" y="1094.0" type="curve"/>
      <point x="1182.3333333333335" y="1127.3333333333333" type="line"/>
      <point x="1141.0" y="1299.3333333333335"/>
      <point x="956.6666666666667" y="1404.0"/>
      <point x="761.0" y="1416.6666666666665" type="curve"/>
      <point x="793.3333333333334" y="1624.0" type="line"/>
      <point x="698.6666666666666" y="1624.0" type="line"/>
      <point x="666.3333333333333" y="1417.3333333333333" type="line"/>
      <point x="419.3333333333333" y="1400.6666666666667"/>
      <point x="192.99999999999997" y="1255.3333333333333"/>
      <point x="162.99999999999997" y="1035.0" type="curve"/>
      <point x="126.33333333333333" y="774.6666666666667"/>
      <point x="331.3333333333333" y="687.3333333333334"/>
      <point x="613.0" y="638.3333333333334" type="curve"/>
      <point x="794.3333333333333" y="603.3333333333334"/>
      <point x="972.3333333333334" y="537.3333333333334"/>
      <point x="949.0" y="372.3333333333333" type="curve"/>
      <point x="925.3333333333334" y="204.66666666666669"/>
      <point x="725.6666666666666" y="94.0"/>
      <point x="522.3333333333333" y="94.0" type="curve"/>
      <point x="357.0" y="94.0"/>
      <point x="191.66666666666669" y="167.33333333333331"/>
      <point x="163.0" y="300.0" type="curve"/>
      <point x="48.0" y="264.66666666666663" type="line"/>
      <point x="84.33333333333334" y="98.0"/>
      <point x="265.0" y="-10.666666666666666"/>
      <point x="470.66666666666663" y="-24.0" type="curve"/>
      <point x="438.66666666666663" y="-224.0" type="line"/>
      <point x="533.3333333333334" y="-224.0" type="line"/>
      <point x="565.3333333333334" y="-24.0" type="line"/>
      <point x="811.6666666666666" y="-6.0"/>
      <point x="1035.6666666666665" y="138.0"/>
      <point x="1066.6666666666665" y="359.0" type="curve"/>
      <point x="1100.0" y="596.0"/>
      <point x="878.6666666666666" y="713.3333333333334"/>
      <point x="616.3333333333333" y="758.3333333333334" type="curve"/>
      <point x="409.0" y="798.6666666666667"/>
      <point x="255.33333333333337" y="836.0"/>
      <point x="281.33333333333337" y="1022.3333333333334" type="curve"/>
      <point x="304.33333333333337" y="1187.3333333333335"/>
      <point x="502.0" y="1300.0"/>
    </contour>
  </outline>
</glyph>
<glyph name="percent" format="2">
  <advance width="1238.5"/>
  <unicode hex="0025"/>
  <outline>
    <contour>
      <point x="73.66666666666667" y="0.0" type="line"/>
      <point x="214.66666666666666" y="0.0" type="line"/>
      <point x="1219.6666666666667" y="1400.0" type="line"/>
      <point x="1078.0000000000002" y="1400.0" type="line"/>
    </contour>
    <contour>
      <point x="366.0" y="865.3333333333334" type="curve" smooth="yes"/>
      <point x="486.0" y="865.3333333333334"/>
      <point x="599.3333333333333" y="961.3333333333334"/>
      <point x="617.0" y="1085.6666666666667" type="curve" smooth="yes"/>
      <point x="635.3333333333333" y="1214.6666666666667"/>
      <point x="544.3333333333334" y="1320.6666666666667"/>
      <point x="416.3333333333333" y="1320.6666666666667" type="curve" smooth="yes"/>
      <point x="295.6666666666667" y="1320.6666666666667"/>
      <point x="181.33333333333334" y="1223.3333333333333"/>
      <point x="164.66666666666666" y="1098.3333333333333" type="curve" smooth="yes"/>
      <point x="146.33333333333334" y="969.3333333333334"/>
      <point x="237.33333333333331" y="865.3333333333334"/>
    </contour>
    <contour>
      <point x="365.0" y="960.0" type="curve" smooth="yes"/>
      <point x="295.00000000000006" y="960.0"/>
      <point x="247.66666666666669" y="1016.0"/>
      <point x="257.6666666666667" y="1085.6666666666667" type="curve" smooth="yes"/>
      <point x="267.6666666666667" y="1162.6666666666667"/>
      <point x="339.33333333333337" y="1225.3333333333333"/>
      <point x="416.3333333333333" y="1225.3333333333333" type="curve" smooth="yes"/>
      <point x="486.66666666666663" y="1225.3333333333333"/>
      <point x="533.9999999999999" y="1169.3333333333333"/>
      <point x="523.9999999999999" y="1098.3333333333333" type="curve" smooth="yes"/>
      <point x="512.9999999999999" y="1023.3333333333335"/>
      <point x="442.3333333333333" y="960.0"/>
    </contour>
    <contour>
      <point x="878.3333333333334" y="79.33333333333333" type="curve" smooth="yes"/>
      <point x="1000.3333333333334" y="79.33333333333333"/>
      <point x="1113.3333333333335" y="179.33333333333331"/>
      <point x="1131.0" y="301.0" type="curve" smooth="yes"/>
      <point x="1148.6666666666667" y="427.3333333333333"/>
      <point x="1060.0" y="535.3333333333334"/>
      <point x="929.6666666666667" y="535.3333333333334" type="curve" smooth="yes"/>
      <point x="808.6666666666667" y="535.3333333333334"/>
      <point x="694.0" y="438.0"/>
      <point x="676.3333333333333" y="314.3333333333333" type="curve" smooth="yes"/>
      <point x="658.0" y="188.0"/>
      <point x="749.0" y="79.33333333333333"/>
    </contour>
    <contour>
      <point x="878.3333333333334" y="174.0" type="curve" smooth="yes"/>
      <point x="809.0" y="174.0"/>
      <point x="759.3333333333334" y="230.66666666666666"/>
      <point x="769.6666666666667" y="301.0" type="curve" smooth="yes"/>
      <point x="780.3333333333334" y="376.6666666666667"/>
      <point x="852.3333333333334" y="440.0"/>
      <point x="929.0" y="440.0" type="curve" smooth="yes"/>
      <point x="998.3333333333334" y="440.0"/>
      <point x="1047.0" y="383.3333333333333"/>
      <point x="1037.0" y="314.3333333333333" type="curve" smooth="yes"/>
      <point x="1027.0" y="237.33333333333334"/>
      <point x="955.0" y="174.0"/>
    </contour>
  </outline>
</glyph>
<glyph name="ampersand" format="2">
  <advance width="1414.0"/>
  <unicode hex="0026"/>
  <outline>
    <contour>
      <point x="413.0" y="-26.0" type="curve" smooth="yes"/>
      <point x="586.0" y="-26.0"/>
      <point x="637.0" y="25.0"/>
      <point x="933.0" y="285.0" type="curve"/>
      <point x="1181.6666666666665" y="0.0" type="line"/>
      <point x="1276.0" y="84.66666666666667" type="line"/>
      <point x="1026.0" y="373.3333333333333" type="line"/>
      <point x="1177.6666666666665" y="504.6666666666667" type="line"/>
      <point x="1198.3333333333333" y="673.3333333333334" type="line"/>
      <point x="953.0" y="460.6666666666667" type="line"/>
      <point x="617.0" y="853.0" type="line"/>
      <point x="788.0" y="1001.0"/>
      <point x="830.6666666666667" y="1037.3333333333333"/>
      <point x="846.0" y="1150.3333333333335" type="curve" smooth="yes"/>
      <point x="868.0" y="1306.0"/>
      <point x="758.0" y="1431.3333333333333"/>
      <point x="605.0000000000001" y="1431.3333333333333" type="curve" smooth="yes"/>
      <point x="460.0" y="1431.3333333333333"/>
      <point x="322.0" y="1313.3333333333333"/>
      <point x="301.0" y="1163.0" type="curve" smooth="yes"/>
      <point x="285.0" y="1048.0"/>
      <point x="316.99999999999994" y="1012.3333333333334"/>
      <point x="446.3333333333333" y="859.3333333333334" type="curve"/>
      <point x="152.0" y="601.0"/>
      <point x="88.0" y="553.3333333333334"/>
      <point x="63.666666666666664" y="382.3333333333333" type="curve" smooth="yes"/>
      <point x="33.666666666666664" y="171.33333333333334"/>
      <point x="173.33333333333334" y="-26.0"/>
    </contour>
    <contour>
      <point x="416.33333333333337" y="94.0" type="curve" smooth="yes"/>
      <point x="265.6666666666667" y="94.0"/>
      <point x="161.66666666666669" y="213.33333333333331"/>
      <point x="183.33333333333334" y="366.3333333333333" type="curve" smooth="yes"/>
      <point x="202.0" y="506.0"/>
      <point x="251.0" y="530.3333333333333"/>
      <point x="520.6666666666667" y="768.3333333333333" type="curve"/>
      <point x="858.0" y="377.0" type="line"/>
      <point x="595.0" y="145.0"/>
      <point x="559.6666666666666" y="94.0"/>
    </contour>
    <contour>
      <point x="535.3333333333334" y="928.0" type="curve"/>
      <point x="426.33333333333337" y="1057.0"/>
      <point x="398.3333333333333" y="1073.3333333333333"/>
      <point x="409.3333333333333" y="1151.6666666666667" type="curve" smooth="yes"/>
      <point x="422.3333333333333" y="1241.3333333333335"/>
      <point x="506.3333333333333" y="1322.0"/>
      <point x="603.0000000000001" y="1322.0" type="curve" smooth="yes"/>
      <point x="687.0" y="1322.0"/>
      <point x="750.6666666666666" y="1254.6666666666665"/>
      <point x="737.6666666666666" y="1164.3333333333333" type="curve" smooth="yes"/>
      <point x="726.0" y="1082.0"/>
      <point x="694.0" y="1065.0"/>
    </contour>
  </outline>
</glyph>
<glyph name="quotesingle" format="2">
  <advance width="245.0"/>
  <unicode hex="0027"/>
  <outline>
    <contour>
      <point x="128.33333333333331" y="878.0" type="line"/>
      <point x="223.0" y="878.0" type="line"/>
      <point x="296.0" y="1400.0" type="line"/>
      <point x="201.33333333333331" y="1400.0" type="line"/>
    </contour>
  </outline>
</glyph>
<glyph name="parenleft" format="2">
  <advance width="620.5"/>
  <unicode hex="0028"/>
  <outline>
    <contour>
      <point x="317.0" y="-109.66666666666667" type="curve"/>
      <point x="432.3333333333333" y="-114.33333333333333" type="line"/>
      <point x="285.3333333333333" y="72.33333333333334"/>
      <point x="224.66666666666669" y="325.3333333333333"/>
      <point x="259.3333333333333" y="637.6666666666666" type="curve" smooth="yes"/>
      <point x="310.00000000000006" y="932.6666666666666"/>
      <point x="450.6666666666667" y="1223.6666666666665"/>
      <point x="649.0" y="1398.3333333333333" type="curve"/>
      <point x="524.3333333333334" y="1401.6666666666667" type="line"/>
      <point x="316.3333333333333" y="1256.3333333333335"/>
      <point x="179.0" y="920.6666666666667"/>
      <point x="141.66666666666666" y="650.3333333333334" type="curve" smooth="yes"/>
      <point x="100.33333333333333" y="358.0"/>
      <point x="142.0" y="76.33333333333333"/>
    </contour>
  </outline>
</glyph>
<glyph name="parenright" format="2">
  <advance width="620.5"/>
  <unicode hex="0029"/>
  <outline>
    <contour>
      <point x="12.333333333333334" y="-109.66666666666667" type="curve"/>
      <point x="136.33333333333334" y="-114.33333333333333" type="line"/>
      <point x="363.3333333333333" y="71.66666666666667"/>
      <point x="479.6666666666667" y="351.33333333333337"/>
      <point x="520.0000000000001" y="637.6666666666666" type="curve" smooth="yes"/>
      <point x="558.0000000000001" y="913.3333333333334"/>
      <point x="511.0" y="1253.0"/>
      <point x="343.0" y="1398.3333333333333" type="curve"/>
      <point x="229.33333333333334" y="1401.6666666666667" type="line"/>
      <point x="379.33333333333337" y="1227.0"/>
      <point x="433.3333333333333" y="939.3333333333334"/>
      <point x="402.33333333333337" y="650.3333333333334" type="curve" smooth="yes"/>
      <point x="348.0" y="332.66666666666663"/>
      <point x="211.00000000000003" y="77.0"/>
    </contour>
  </outline>
</glyph>
<glyph name="asterisk" format="2">
  <advance width="701.0"/>
  <unicode hex="002A"/>
  <outline>
    <contour>
      <point x="258.33333333333337" y="856.0" type="line"/>
      <point x="413.66666666666663" y="1034.6666666666667" type="line"/>
      <point x="516.3333333333333" y="856.0" type="line"/>
      <point x="599.3333333333334" y="912.6666666666666" type="line"/>
      <point x="494.0" y="1089.3333333333333" type="line"/>
      <point x="712.6666666666667" y="1157.3333333333333" type="line"/>
      <point x="696.0" y="1247.3333333333333" type="line"/>
      <point x="478.0" y="1180.6666666666667" type="line"/>
      <point x="509.3333333333333" y="1400.0" type="line"/>
      <point x="414.0" y="1400.0" type="line"/>
      <point x="383.3333333333333" y="1180.6666666666667" type="line"/>
      <point x="182.00000000000003" y="1247.3333333333333" type="line"/>
      <point x="141.33333333333334" y="1157.3333333333333" type="line"/>
      <point x="340.0" y="1089.3333333333333" type="line"/>
      <point x="186.0" y="912.6666666666666" type="line"/>
    </contour>
  </outline>
</glyph>
<glyph name="plus" format="2">
  <advance width="1160.0"/>
  <unicode hex="002B"/>
  <outline>
    <contour>
      <point x="464.0" y="100.0" type="line"/>
      <point x="584.0" y="100.0" type="line"/>
      <point x="646.0" y="540.0" type="line"/>
      <point x="1086.0" y="540.0" type="line"/>
      <point x="1102.0" y="660.0" type="line"/>
      <point x="662.0" y="660.0" type="line"/>
      <point x="724.0" y="1100.0" type="line"/>
      <point x="604.0" y="1100.0" type="line"/>
      <point x="542.0" y="660.0" type="line"/>
      <point x="102.0" y="660.0" type="line"/>
      <point x="86.0" y="540.0" type="line"/>
      <point x="526.0" y="540.0" type="line"/>
    </contour>
  </outline>
</glyph>
<glyph name="comma" format="2">
  <advance width="382.0"/>
  <unicode hex="002C"/>
  <outline>
    <contour>
      <point x="-6.0" y="-112.0" type="line"/>
      <point x="74.66666666666667" y="-112.0" type="line"/>
      <point x="224.66666666666666" y="226.0" type="line"/>
      <point x="103.0" y="226.0" type="line"/>
    </contour>
  </outline>
</glyph>
<glyph name="hyphen" format="2">
  <advance width="880.0"/>
  <unicode hex="002D"/>
  <outline>
    <contour>
      <point x="142.0" y="660.0" type="line"/>
      <point x="126.0" y="540.0" type="line"/>
      <point x="766.0" y="540.0" type="line"/>
      <point x="782.0" y="660.0" type="line"/>
    </contour>
  </outline>
</glyph>
<glyph name="period" format="2">
  <advance width="342.5"/>
  <unicode hex="002E"/>
  <outline>
    <contour>
      <point x="82.99999999999999" y="-26.0" type="curve" smooth="yes"/>
      <point x="119.99999999999999" y="-26.0"/>
      <point x="153.0" y="2.0000000000000004"/>
      <point x="158.0" y="39.666666666666664" type="curve" smooth="yes"/>
      <point x="164.0" y="81.33333333333334"/>
      <point x="133.0" y="116.66666666666667"/>
      <point x="89.66666666666666" y="116.66666666666667" type="curve" smooth="yes"/>
      <point x="54.33333333333333" y="116.66666666666667"/>
      <point x="22.0" y="88.0"/>
      <point x="17.0" y="52.333333333333336" type="curve" smooth="yes"/>
      <point x="11.0" y="9.333333333333334"/>
      <point x="41.33333333333333" y="-26.0"/>
    </contour>
  </outline>
</glyph>
<glyph name="slash" format="2">
  <advance width="684.5"/>
  <unicode hex="002F"/>
  <outline>
    <contour>
      <point x="732.3333333333333" y="1400.0" type="line"/>
      <point x="610.0000000000001" y="1400.0" type="line"/>
      <point x="-6.666666666666667" y="-112.0" type="line"/>
      <point x="114.66666666666667" y="-112.0" type="line"/>
    </contour>
  </outline>
</glyph>
<glyph name="zero" format="2">
  <advance width="1188.0"/>
  <unicode hex="0030"/>
  <outline>
    <contour>
      <point x="527.6666666666667" y="-26.0" type="curve" smooth="yes"/>
      <point x="859.3333333333334" y="-26.0"/>
      <point x="1100.0" y="296.6666666666667"/>
      <point x="1155.3333333333333" y="693.6666666666666" type="curve" smooth="yes"/>
      <point x="1212.0" y="1098.0"/>
      <point x="1056.6666666666667" y="1426.0"/>
      <point x="718.3333333333334" y="1426.0" type="curve" smooth="yes"/>
      <point x="385.33333333333337" y="1426.0"/>
      <point x="145.0" y="1105.3333333333333"/>
      <point x="89.0" y="706.3333333333334" type="curve" smooth="yes"/>
      <point x="32.0" y="303.3333333333333"/>
      <point x="188.00000000000003" y="-26.0"/>
    </contour>
    <contour>
      <point x="531.0" y="94.0" type="curve" smooth="yes"/>
      <point x="261.0" y="94.0"/>
      <point x="156.0" y="366.6666666666667"/>
      <point x="202.66666666666669" y="693.6666666666666" type="curve" smooth="yes"/>
      <point x="248.0" y="1019.3333333333334"/>
      <point x="429.0" y="1306.0"/>
      <point x="715.0" y="1306.0" type="curve" smooth="yes"/>
      <point x="979.0" y="1306.0"/>
      <point x="1090.0000000000002" y="1047.3333333333333"/>
      <point x="1042.3333333333335" y="706.3333333333334" type="curve" smooth="yes"/>
      <point x="995.6666666666667" y="376.0"/>
      <point x="809.0" y="94.0"/>
    </contour>
  </outline>
</glyph>
<glyph name="one" format="2">
  <advance width="505.0"/>
  <unicode hex="0031"/>
  <outline>
    <contour>
      <point x="155.33333333333334" y="0.0" type="line"/>
      <point x="275.3333333333333" y="0.0" type="line"/>
      <point x="471.3333333333333" y="1400.0" type="line"/>
      <point x="240.66666666666666" y="1400.0" type="line"/>
      <point x="189.33333333333334" y="1280.0" type="line"/>
      <point x="334.6666666666667" y="1280.0" type="line"/>
    </contour>
  </outline>
</glyph>
<glyph name="two" format="2">
  <advance width="1079.0"/>
  <unicode hex="0032"/>
  <outline>
    <contour>
      <point x="10.0" y="0.0" type="line"/>
      <point x="889.3333333333334" y="0.0" type="line"/>
      <point x="905.3333333333334" y="120.0" type="line"/>
      <point x="240.33333333333331" y="117.66666666666667" type="line"/>
      <point x="550.3333333333334" y="373.0"/>
      <point x="971.6666666666667" y="761.3333333333333"/>
      <point x="1004.3333333333334" y="998.3333333333333" type="curve" smooth="yes"/>
      <point x="1038.3333333333335" y="1233.3333333333333"/>
      <point x="873.3333333333334" y="1426.0"/>
      <point x="640.3333333333334" y="1426.0" type="curve" smooth="yes"/>
      <point x="413.33333333333337" y="1426.0"/>
      <point x="200.99999999999997" y="1242.0"/>
      <point x="167.99999999999997" y="1008.0" type="curve"/>
      <point x="288.00000000000006" y="1001.3333333333333" type="line"/>
      <point x="310.6666666666667" y="1166.0"/>
      <point x="468.3333333333333" y="1306.0"/>
      <point x="637.0" y="1306.0" type="curve" smooth="yes"/>
      <point x="798.3333333333334" y="1306.0"/>
      <point x="909.3333333333334" y="1173.3333333333333"/>
      <point x="886.6666666666667" y="1011.0" type="curve" smooth="yes"/>
      <point x="854.6666666666667" y="783.3333333333334"/>
      <point x="346.33333333333337" y="377.0"/>
      <point x="22.0" y="107.66666666666667" type="curve"/>
    </contour>
  </outline>
</glyph>
<glyph name="three" format="2">
  <advance width="975.0"/>
  <unicode hex="0033"/>
  <outline>
    <contour>
      <point x="420.3333333333333" y="-26.0" type="curve" smooth="yes"/>
      <point x="644.0" y="-26.0"/>
      <point x="867.0" y="156.0"/>
      <point x="898.3333333333334" y="380.33333333333337" type="curve" smooth="yes"/>
      <point x="921.3333333333334" y="545.3333333333333"/>
      <point x="851.6666666666667" y="683.0"/>
      <point x="700.3333333333334" y="737.0" type="curve"/>
      <point x="834.3333333333334" y="783.0"/>
      <point x="929.0" y="901.3333333333334"/>
      <point x="948.3333333333333" y="1042.3333333333335" type="curve" smooth="yes"/>
      <point x="978.3333333333333" y="1253.3333333333333"/>
      <point x="812.6666666666666" y="1426.6666666666667"/>
      <point x="602.9999999999999" y="1426.6666666666667" type="curve" smooth="yes"/>
      <point x="396.0" y="1426.6666666666667"/>
      <point x="186.66666666666666" y="1260.0"/>
      <point x="157.33333333333331" y="1052.0" type="curve"/>
      <point x="276.33333333333337" y="1045.3333333333335" type="line"/>
      <point x="296.00000000000006" y="1186.0"/>
      <point x="453.66666666666663" y="1306.6666666666667"/>
      <point x="600.3333333333334" y="1306.6666666666667" type="curve" smooth="yes"/>
      <point x="737.6666666666667" y="1306.6666666666667"/>
      <point x="850.3333333333333" y="1193.3333333333333"/>
      <point x="830.6666666666666" y="1055.0" type="curve" smooth="yes"/>
      <point x="806.0" y="880.0"/>
      <point x="653.3333333333334" y="786.0"/>
      <point x="448.66666666666663" y="786.0" type="curve"/>
      <point x="441.0" y="684.0" type="line"/>
      <point x="662.3333333333334" y="684.0"/>
      <point x="807.0" y="588.6666666666667"/>
      <point x="780.0" y="393.0" type="curve" smooth="yes"/>
      <point x="757.3333333333334" y="228.66666666666669"/>
      <point x="587.0" y="94.0"/>
      <point x="423.66666666666663" y="94.0" type="curve" smooth="yes"/>
      <point x="235.66666666666666" y="94.0"/>
      <point x="140.33333333333334" y="221.33333333333334"/>
      <point x="163.0" y="383.33333333333337" type="curve"/>
      <point x="44.666666666666664" y="390.0" type="line"/>
      <point x="12.333333333333334" y="162.66666666666669"/>
      <point x="160.66666666666669" y="-26.0"/>
    </contour>
  </outline>
</glyph>
<glyph name="four" format="2">
  <advance width="1078.5"/>
  <unicode hex="0034"/>
  <outline>
    <contour>
      <point x="615.3333333333334" y="0.0" type="line"/>
      <point x="735.3333333333334" y="0.0" type="line"/>
      <point x="792.3333333333334" y="403.3333333333333" type="line"/>
      <point x="945.0" y="403.3333333333333" type="line"/>
      <point x="961.6666666666666" y="523.3333333333334" type="line"/>
      <point x="808.3333333333334" y="523.3333333333334" type="line"/>
      <point x="931.3333333333334" y="1400.0" type="line"/>
      <point x="778.6666666666667" y="1400.0" type="line"/>
      <point x="82.33333333333333" y="526.0" type="line"/>
      <point x="66.33333333333333" y="403.3333333333333" type="line"/>
      <point x="672.3333333333334" y="403.3333333333333" type="line"/>
    </contour>
    <contour>
      <point x="228.0" y="526.0" type="line"/>
      <point x="785.6666666666666" y="1225.3333333333333" type="line"/>
      <point x="688.3333333333334" y="523.3333333333334" type="line"/>
    </contour>
  </outline>
</glyph>
<glyph name="five" format="2">
  <advance width="1098.5"/>
  <unicode hex="0035"/>
  <outline>
    <contour>
      <point x="456.99999999999994" y="-26.0" type="curve" smooth="yes"/>
      <point x="703.3333333333334" y="-26.0"/>
      <point x="933.3333333333333" y="174.66666666666666"/>
      <point x="968.0" y="421.6666666666667" type="curve" smooth="yes"/>
      <point x="1005.0" y="691.3333333333333"/>
      <point x="831.6666666666667" y="880.0"/>
      <point x="547.0" y="883.3333333333334" type="curve"/>
      <point x="375.66666666666663" y="883.3333333333334" type="line"/>
      <point x="509.3333333333333" y="1280.0" type="line"/>
      <point x="1060.6666666666667" y="1280.0" type="line"/>
      <point x="1077.3333333333335" y="1400.0" type="line"/>
      <point x="428.0" y="1400.0" type="line"/>
      <point x="210.0" y="763.3333333333334" type="line"/>
      <point x="550.6666666666666" y="763.3333333333334" type="line" smooth="yes"/>
      <point x="758.0" y="763.3333333333334"/>
      <point x="874.6666666666666" y="615.3333333333334"/>
      <point x="849.6666666666666" y="434.3333333333333" type="curve" smooth="yes"/>
      <point x="823.0" y="247.33333333333334"/>
      <point x="647.6666666666666" y="94.0"/>
      <point x="460.3333333333333" y="94.0" type="curve" smooth="yes"/>
      <point x="279.0" y="94.0"/>
      <point x="153.33333333333334" y="240.66666666666666"/>
      <point x="179.33333333333334" y="424.6666666666667" type="curve"/>
      <point x="60.0" y="431.3333333333333" type="line"/>
      <point x="25.333333333333332" y="182.66666666666669"/>
      <point x="200.00000000000003" y="-26.0"/>
    </contour>
  </outline>
</glyph>
<glyph name="six" format="2">
  <advance width="1072.5"/>
  <unicode hex="0036"/>
  <outline>
    <contour>
      <point x="462.3333333333333" y="-26.0" type="curve" smooth="yes"/>
      <point x="725.3333333333334" y="-26.0"/>
      <point x="968.6666666666666" y="187.33333333333334"/>
      <point x="1005.6666666666666" y="449.6666666666667" type="curve" smooth="yes"/>
      <point x="1054.3333333333333" y="794.0"/>
      <point x="730.3333333333333" y="1019.0"/>
      <point x="414.3333333333333" y="887.0" type="curve"/>
      <point x="787.0" y="1400.0" type="line"/>
      <point x="644.6666666666667" y="1400.0" type="line"/>
      <point x="149.33333333333334" y="711.6666666666667" type="line" smooth="yes"/>
      <point x="90.33333333333334" y="621.6666666666667"/>
      <point x="59.0" y="563.3333333333334"/>
      <point x="44.333333333333336" y="462.3333333333333" type="curve" smooth="yes"/>
      <point x="6.666666666666667" y="194.0"/>
      <point x="196.66666666666666" y="-26.0"/>
    </contour>
    <contour>
      <point x="466.3333333333333" y="94.0" type="curve" smooth="yes"/>
      <point x="277.6666666666667" y="94.0"/>
      <point x="134.66666666666666" y="248.0"/>
      <point x="163.0" y="450.3333333333333" type="curve" smooth="yes"/>
      <point x="190.66666666666666" y="644.6666666666666"/>
      <point x="373.0" y="816.6666666666666"/>
      <point x="583.6666666666666" y="816.6666666666666" type="curve" smooth="yes"/>
      <point x="779.6666666666667" y="816.6666666666666"/>
      <point x="915.3333333333333" y="659.3333333333334"/>
      <point x="887.3333333333333" y="463.66666666666663" type="curve" smooth="yes"/>
      <point x="860.3333333333333" y="270.66666666666663"/>
      <point x="680.3333333333333" y="94.0"/>
    </contour>
  </outline>
</glyph>
<glyph name="seven" format="2">
  <advance width="1063.5"/>
  <unicode hex="0037"/>
  <outline>
    <contour>
      <point x="74.99999999999999" y="0.0" type="line"/>
      <point x="214.66666666666666" y="0.0" type="line"/>
      <point x="1134.3333333333335" y="1280.0" type="line"/>
      <point x="1149.3333333333335" y="1400.0" type="line"/>
      <point x="166.0" y="1400.0" type="line"/>
      <point x="149.33333333333334" y="1280.0" type="line"/>
      <point x="992.3333333333334" y="1280.0" type="line"/>
    </contour>
  </outline>
</glyph>
<glyph name="eight" format="2">
  <advance width="1045.5"/>
  <unicode hex="0038"/>
  <outline>
    <contour>
      <point x="454.99999999999994" y="-26.0" type="curve" smooth="yes"/>
      <point x="696.6666666666667" y="-26.0"/>
      <point x="917.0" y="154.66666666666666"/>
      <point x="948.3333333333334" y="377.6666666666667" type="curve" smooth="yes"/>
      <point x="970.3333333333334" y="534.0"/>
      <point x="891.0" y="669.0"/>
      <point x="763.0" y="733.6666666666667" type="curve"/>
      <point x="891.0" y="795.6666666666666"/>
      <point x="987.6666666666667" y="912.0"/>
      <point x="1005.6666666666667" y="1043.6666666666667" type="curve" smooth="yes"/>
      <point x="1035.0000000000002" y="1253.3333333333333"/>
      <point x="872.6666666666666" y="1426.0"/>
      <point x="646.3333333333333" y="1426.0" type="curve" smooth="yes"/>
      <point x="425.3333333333333" y="1426.0"/>
      <point x="222.66666666666666" y="1260.6666666666665"/>
      <point x="193.99999999999997" y="1056.3333333333333" type="curve" smooth="yes"/>
      <point x="174.33333333333331" y="919.3333333333334"/>
      <point x="243.0" y="800.3333333333334"/>
      <point x="348.6666666666667" y="741.0" type="curve"/>
      <point x="199.33333333333334" y="673.6666666666667"/>
      <point x="85.66666666666667" y="541.3333333333334"/>
      <point x="64.66666666666667" y="390.3333333333333" type="curve" smooth="yes"/>
      <point x="32.333333333333336" y="161.33333333333334"/>
      <point x="207.33333333333334" y="-26.0"/>
    </contour>
    <contour>
      <point x="458.3333333333333" y="94.0" type="curve" smooth="yes"/>
      <point x="290.33333333333337" y="94.0"/>
      <point x="168.33333333333334" y="220.0"/>
      <point x="190.33333333333334" y="377.6666666666667" type="curve" smooth="yes"/>
      <point x="214.0" y="541.3333333333333"/>
      <point x="378.33333333333337" y="674.0"/>
      <point x="553.3333333333333" y="674.0" type="curve" smooth="yes"/>
      <point x="725.6666666666667" y="674.0"/>
      <point x="844.0" y="548.0"/>
      <point x="821.3333333333334" y="390.3333333333333" type="curve" smooth="yes"/>
      <point x="798.6666666666667" y="227.33333333333334"/>
      <point x="637.0" y="94.0"/>
    </contour>
    <contour>
      <point x="557.3333333333333" y="794.0" type="curve" smooth="yes"/>
      <point x="406.0" y="794.0"/>
      <point x="301.3333333333333" y="905.3333333333333"/>
      <point x="320.3333333333333" y="1043.6666666666667" type="curve" smooth="yes"/>
      <point x="341.0" y="1188.0"/>
      <point x="484.3333333333333" y="1306.0"/>
      <point x="642.3333333333333" y="1306.0" type="curve" smooth="yes"/>
      <point x="793.0" y="1306.0"/>
      <point x="898.3333333333334" y="1195.3333333333333"/>
      <point x="879.3333333333334" y="1056.3333333333333" type="curve" smooth="yes"/>
      <point x="858.6666666666667" y="912.0"/>
      <point x="715.3333333333334" y="794.0"/>
    </contour>
  </outline>
</glyph>
<glyph name="nine" format="2">
  <advance width="1045.0"/>
  <unicode hex="0039"/>
  <outline>
    <contour>
      <point x="292.3333333333333" y="0.0" type="line"/>
      <point x="432.6666666666667" y="0.0" type="line"/>
      <point x="948.0" y="717.0" type="line" smooth="yes"/>
      <point x="1004.6666666666666" y="804.3333333333333"/>
      <point x="1036.0000000000002" y="859.3333333333333"/>
      <point x="1049.3333333333335" y="955.6666666666666" type="curve" smooth="yes"/>
      <point x="1085.0000000000002" y="1213.3333333333333"/>
      <point x="902.0" y="1426.0"/>
      <point x="646.3333333333334" y="1426.0" type="curve" smooth="yes"/>
      <point x="394.0" y="1426.0"/>
      <point x="161.33333333333334" y="1220.0"/>
      <point x="125.66666666666667" y="968.3333333333334" type="curve" smooth="yes"/>
      <point x="80.0" y="639.3333333333334"/>
      <point x="388.3333333333333" y="423.0"/>
      <point x="691.3333333333334" y="547.6666666666666" type="curve"/>
    </contour>
    <contour>
      <point x="530.6666666666667" y="618.0" type="curve" smooth="yes"/>
      <point x="344.0" y="618.0"/>
      <point x="215.33333333333334" y="768.0"/>
      <point x="241.33333333333334" y="954.3333333333334" type="curve" smooth="yes"/>
      <point x="267.33333333333337" y="1140.0"/>
      <point x="438.66666666666663" y="1307.3333333333333"/>
      <point x="643.0" y="1307.3333333333333" type="curve" smooth="yes"/>
      <point x="823.3333333333334" y="1307.3333333333333"/>
      <point x="959.3333333333333" y="1161.3333333333333"/>
      <point x="932.3333333333333" y="967.6666666666667" type="curve" smooth="yes"/>
      <point x="906.3333333333333" y="782.6666666666667"/>
      <point x="732.0" y="618.0"/>
    </contour>
  </outline>
</glyph>
<glyph name="colon" format="2">
  <advance width="342.5"/>
  <unicode hex="003A"/>
  <outline>
    <contour>
      <point x="207.66666666666666" y="857.3333333333334" type="curve" smooth="yes"/>
      <point x="243.66666666666666" y="857.3333333333334"/>
      <point x="276.66666666666663" y="885.3333333333334"/>
      <point x="281.99999999999994" y="923.0" type="curve" smooth="yes"/>
      <point x="287.66666666666663" y="964.6666666666666"/>
      <point x="257.66666666666663" y="1000.0"/>
      <point x="214.33333333333331" y="1000.0" type="curve" smooth="yes"/>
      <point x="178.99999999999997" y="1000.0"/>
      <point x="146.66666666666666" y="971.3333333333334"/>
      <point x="141.66666666666666" y="936.3333333333334" type="curve" smooth="yes"/>
      <point x="135.66666666666666" y="892.6666666666667"/>
      <point x="164.99999999999997" y="857.3333333333334"/>
    </contour>
    <contour>
      <point x="82.99999999999999" y="-26.0" type="curve" smooth="yes"/>
      <point x="119.99999999999999" y="-26.0"/>
      <point x="153.0" y="2.0000000000000004"/>
      <point x="158.0" y="39.666666666666664" type="curve" smooth="yes"/>
      <point x="164.0" y="81.33333333333334"/>
      <point x="133.0" y="116.66666666666667"/>
      <point x="89.66666666666666" y="116.66666666666667" type="curve" smooth="yes"/>
      <point x="54.33333333333333" y="116.66666666666667"/>
      <point x="22.0" y="88.0"/>
      <point x="17.0" y="52.333333333333336" type="curve" smooth="yes"/>
      <point x="11.0" y="9.333333333333334"/>
      <point x="41.33333333333333" y="-26.0"/>
    </contour>
  </outline>
</glyph>
<glyph name="semicolon" format="2">
  <advance width="391.0"/>
  <unicode hex="003B"/>
  <outline>
    <contour>
      <point x="-6.0" y="-112.0" type="line"/>
      <point x="74.66666666666667" y="-112.0" type="line"/>
      <point x="224.66666666666666" y="226.0" type="line"/>
      <point x="103.0" y="226.0" type="line"/>
    </contour>
    <contour>
      <point x="257.66666666666663" y="857.3333333333334" type="curve" smooth="yes"/>
      <point x="292.33333333333337" y="857.3333333333334"/>
      <point x="325.3333333333333" y="885.3333333333334"/>
      <point x="330.3333333333333" y="921.6666666666666" type="curve" smooth="yes"/>
      <point x="336.3333333333333" y="964.6666666666666"/>
      <point x="306.33333333333337" y="1000.0"/>
      <point x="264.3333333333333" y="1000.0" type="curve" smooth="yes"/>
      <point x="227.0" y="1000.0"/>
      <point x="195.33333333333331" y="971.3333333333334"/>
      <point x="189.33333333333331" y="934.3333333333334" type="curve" smooth="yes"/>
      <point x="184.33333333333331" y="892.6666666666667"/>
      <point x="213.0" y="857.3333333333334"/>
    </contour>
  </outline>
</glyph>
<glyph name="less" format="2">
  <advance width="1160.0"/>
  <unicode hex="003C"/>
  <outline>
    <contour>
      <point x="1040.6666666666667" y="217.33333333333334" type="line"/>
      <point x="1057.3333333333333" y="341.3333333333333" type="line"/>
      <point x="188.0" y="600.0" type="line"/>
      <point x="1130.6666666666667" y="857.3333333333334" type="line"/>
      <point x="1148.3333333333333" y="983.3333333333334" type="line"/>
      <point x="107.33333333333333" y="697.3333333333334" type="line"/>
      <point x="80.33333333333333" y="501.3333333333333" type="line"/>
    </contour>
  </outline>
</glyph>
<glyph name="equal" format="2">
  <advance width="1160.0"/>
  <unicode hex="003D"/>
  <outline>
    <contour>
      <point x="57.666666666666664" y="340.6666666666667" type="line"/>
      <point x="1057.6666666666667" y="340.6666666666667" type="line"/>
      <point x="1074.3333333333333" y="460.6666666666667" type="line"/>
      <point x="74.33333333333333" y="460.6666666666667" type="line"/>
    </contour>
    <contour>
      <point x="113.66666666666667" y="739.3333333333334" type="line"/>
      <point x="1113.6666666666667" y="739.3333333333334" type="line"/>
      <point x="1130.3333333333333" y="859.3333333333334" type="line"/>
      <point x="130.33333333333334" y="859.3333333333334" type="line"/>
    </contour>
  </outline>
</glyph>
<glyph name="greater" format="2">
  <advance width="1160.0"/>
  <unicode hex="003E"/>
  <outline>
    <contour>
      <point x="41.333333333333336" y="220.0" type="line"/>
      <point x="1080.3333333333333" y="501.3333333333333" type="line"/>
      <point x="1107.3333333333333" y="697.3333333333334" type="line"/>
      <point x="147.66666666666666" y="980.0" type="line"/>
      <point x="130.0" y="854.0" type="line"/>
      <point x="1000.0" y="600.0" type="line"/>
      <point x="58.0" y="344.6666666666667" type="line"/>
    </contour>
  </outline>
</glyph>
<glyph name="question" format="2">
  <advance width="982.5"/>
  <unicode hex="003F"/>
  <outline>
    <contour>
      <point x="423.6666666666667" y="495.3333333333333" type="curve"/>
      <point x="543.0" y="488.0" type="line"/>
      <point x="554.6666666666666" y="572.3333333333333"/>
      <point x="612.6666666666666" y="648.0"/>
      <point x="694.3333333333333" y="685.3333333333334" type="curve" smooth="yes"/>
      <point x="825.6666666666666" y="754.3333333333334"/>
      <point x="916.6666666666666" y="885.3333333333333"/>
      <point x="937.0" y="1029.6666666666667" type="curve" smooth="yes"/>
      <point x="967.6666666666666" y="1248.6666666666667"/>
      <point x="814.3333333333334" y="1427.3333333333333"/>
      <point x="594.3333333333334" y="1427.3333333333333" type="curve" smooth="yes"/>
      <point x="383.00000000000006" y="1427.3333333333333"/>
      <point x="186.0" y="1255.3333333333333"/>
      <point x="156.0" y="1039.3333333333333" type="curve"/>
      <point x="275.0" y="1032.6666666666667" type="line"/>
      <point x="296.3333333333333" y="1183.3333333333333"/>
      <point x="438.0" y="1307.3333333333333"/>
      <point x="590.3333333333334" y="1307.3333333333333" type="curve" smooth="yes"/>
      <point x="737.3333333333334" y="1307.3333333333333"/>
      <point x="839.0" y="1190.6666666666665"/>
      <point x="818.6666666666666" y="1042.3333333333333" type="curve" smooth="yes"/>
      <point x="804.0" y="936.0"/>
      <point x="736.0" y="842.3333333333333"/>
      <point x="641.6666666666666" y="799.3333333333334" type="curve" smooth="yes"/>
      <point x="523.0000000000001" y="735.3333333333333"/>
      <point x="442.0" y="623.0"/>
    </contour>
    <contour>
      <point x="410.3333333333333" y="-26.0" type="curve" smooth="yes"/>
      <point x="447.3333333333333" y="-26.0"/>
      <point x="479.6666666666667" y="3.333333333333334"/>
      <point x="484.6666666666667" y="40.333333333333336" type="curve" smooth="yes"/>
      <point x="491.33333333333337" y="81.33333333333334"/>
      <point x="461.0" y="116.66666666666667"/>
      <point x="417.0" y="116.66666666666667" type="curve" smooth="yes"/>
      <point x="381.66666666666663" y="116.66666666666667"/>
      <point x="349.3333333333333" y="88.66666666666667"/>
      <point x="345.0" y="53.00000000000001" type="curve" smooth="yes"/>
      <point x="338.3333333333333" y="10.666666666666668"/>
      <point x="368.66666666666663" y="-26.0"/>
    </contour>
  </outline>
</glyph>
<glyph name="at" format="2">
  <advance width="1710.75"/>
  <unicode hex="0040"/>
  <outline>
    <contour>
      <point x="764.0" y="-173.33333333333334" type="curve"/>
      <point x="774.3333333333334" y="-53.33333333333333" type="line"/>
      <point x="412.3333333333333" y="-53.33333333333333"/>
      <point x="156.0" y="185.66666666666666"/>
      <point x="206.33333333333334" y="544.0" type="curve" smooth="yes"/>
      <point x="257.3333333333333" y="911.0"/>
      <point x="599.0" y="1206.0"/>
      <point x="961.6666666666666" y="1206.0" type="curve" smooth="yes"/>
      <point x="1319.0" y="1206.0"/>
      <point x="1569.3333333333333" y="916.3333333333334"/>
      <point x="1519.0" y="557.3333333333334" type="curve" smooth="yes"/>
      <point x="1496.3333333333333" y="401.66666666666663"/>
      <point x="1413.3333333333335" y="219.0"/>
      <point x="1285.0" y="219.0" type="curve" smooth="yes"/>
      <point x="1222.6666666666667" y="219.0"/>
      <point x="1167.0" y="266.6666666666667"/>
      <point x="1176.3333333333333" y="333.6666666666667" type="curve" smooth="yes"/>
      <point x="1258.0" y="915.3333333333334" type="line"/>
      <point x="1160.0" y="928.0" type="line"/>
      <point x="1140.3333333333333" y="800.6666666666667" type="line"/>
      <point x="1097.6666666666667" y="889.0"/>
      <point x="1003.3333333333334" y="948.0"/>
      <point x="880.3333333333333" y="948.0" type="curve" smooth="yes"/>
      <point x="664.3333333333333" y="948.0"/>
      <point x="464.6666666666667" y="773.3333333333334"/>
      <point x="434.6666666666667" y="557.3333333333334" type="curve" smooth="yes"/>
      <point x="402.6666666666667" y="334.3333333333333"/>
      <point x="559.0" y="153.0"/>
      <point x="782.0" y="153.0" type="curve" smooth="yes"/>
      <point x="901.3333333333334" y="153.0"/>
      <point x="1001.6666666666666" y="209.33333333333331"/>
      <point x="1070.3333333333333" y="302.6666666666667" type="curve"/>
      <point x="1059.3333333333335" y="189.66666666666669"/>
      <point x="1169.3333333333333" y="99.0"/>
      <point x="1286.3333333333333" y="99.0" type="curve" smooth="yes"/>
      <point x="1470.3333333333333" y="99.0"/>
      <point x="1607.6666666666667" y="336.33333333333337"/>
      <point x="1637.3333333333333" y="544.0" type="curve" smooth="yes"/>
      <point x="1697.0" y="972.6666666666666"/>
      <point x="1400.6666666666667" y="1326.0"/>
      <point x="965.6666666666666" y="1326.0" type="curve" smooth="yes"/>
      <point x="539.9999999999999" y="1326.0"/>
      <point x="147.66666666666666" y="982.0"/>
      <point x="88.0" y="557.3333333333334" type="curve" smooth="yes"/>
      <point x="28.0" y="127.0"/>
      <point x="336.33333333333337" y="-173.33333333333334"/>
    </contour>
    <contour>
      <point x="788.3333333333334" y="252.33333333333334" type="curve" smooth="yes"/>
      <point x="631.0" y="252.33333333333334"/>
      <point x="515.3333333333333" y="379.3333333333333"/>
      <point x="539.0" y="544.0" type="curve" smooth="yes"/>
      <point x="562.3333333333333" y="712.6666666666666"/>
      <point x="717.0" y="848.0"/>
      <point x="885.6666666666667" y="848.0" type="curve" smooth="yes"/>
      <point x="1059.3333333333333" y="848.0"/>
      <point x="1125.3333333333333" y="715.3333333333334"/>
      <point x="1105.0" y="570.6666666666667" type="curve" smooth="yes"/>
      <point x="1082.6666666666667" y="413.0"/>
      <point x="957.0" y="252.33333333333334"/>
    </contour>
  </outline>
</glyph>
<glyph name="A" format="2">
  <advance width="1332.5"/>
  <unicode hex="0041"/>
  <outline>
    <contour>
      <point x="715.3333333333334" y="1400.0" type="line"/>
      <point x="8.333333333333334" y="0.0" type="line"/>
      <point x="138.0" y="0.0" type="line"/>
      <point x="294.6666666666667" y="310.0" type="line"/>
      <point x="986.0" y="310.0" type="line"/>
      <point x="1055.3333333333333" y="0.0" type="line"/>
      <point x="1181.0" y="0.0" type="line"/>
      <point x="868.6666666666667" y="1400.0" type="line"/>
    </contour>
    <contour>
      <point x="355.33333333333337" y="430.0" type="line"/>
      <point x="774.0" y="1258.6666666666667" type="line"/>
      <point x="958.6666666666666" y="430.0" type="line"/>
    </contour>
  </outline>
</glyph>
<glyph name="B" format="2">
  <advance width="1104.0"/>
  <unicode hex="0042"/>
  <outline>
    <contour>
      <point x="50.0" y="0.0" type="line"/>
      <point x="581.0" y="0.0" type="line" smooth="yes"/>
      <point x="787.6666666666667" y="0.0"/>
      <point x="975.0" y="153.33333333333331"/>
      <point x="1008.6666666666666" y="390.3333333333333" type="curve" smooth="yes"/>
      <point x="1031.0" y="547.3333333333334"/>
      <point x="975.0" y="728.3333333333334"/>
      <point x="819.6666666666667" y="771.0" type="curve"/>
      <point x="908.6666666666666" y="793.3333333333334"/>
      <point x="1007.3333333333334" y="912.0"/>
      <point x="1025.3333333333335" y="1042.3333333333335" type="curve" smooth="yes"/>
      <point x="1057.3333333333335" y="1270.0"/>
      <point x="910.3333333333334" y="1398.6666666666667"/>
      <point x="709.0" y="1398.6666666666667" type="curve" smooth="yes"/>
      <point x="246.0" y="1398.6666666666667" type="line"/>
    </contour>
    <contour>
      <point x="184.66666666666666" y="108.66666666666667" type="line"/>
      <point x="270.0" y="711.3333333333334" type="line"/>
      <point x="673.0" y="711.3333333333334" type="line" smooth="yes"/>
      <point x="823.6666666666667" y="711.3333333333334"/>
      <point x="922.3333333333333" y="571.3333333333334"/>
      <point x="901.0" y="419.0" type="curve" smooth="yes"/>
      <point x="876.3333333333333" y="241.33333333333334"/>
      <point x="732.0" y="108.66666666666667"/>
      <point x="582.0" y="108.66666666666667" type="curve" smooth="yes"/>
    </contour>
    <contour>
      <point x="284.6666666666667" y="818.6666666666666" type="line"/>
      <point x="351.3333333333333" y="1289.3333333333333" type="line"/>
      <point x="690.3333333333333" y="1289.3333333333333" type="line" smooth="yes"/>
      <point x="829.0" y="1289.3333333333333"/>
      <point x="930.0" y="1215.3333333333333"/>
      <point x="907.0" y="1055.6666666666665" type="curve" smooth="yes"/>
      <point x="885.6666666666667" y="904.6666666666667"/>
      <point x="756.0" y="818.6666666666666"/>
      <point x="617.3333333333333" y="818.6666666666666" type="curve" smooth="yes"/>
    </contour>
  </outline>
</glyph>
<glyph name="C" format="2">
  <advance width="1398.0"/>
  <unicode hex="0043"/>
  <outline>
    <contour>
      <point x="680.3333333333334" y="-26.0" type="curve"/>
      <point x="903.3333333333334" y="-26.0"/>
      <point x="1115.6666666666667" y="84.33333333333334"/>
      <point x="1266.3333333333333" y="259.6666666666667" type="curve"/>
      <point x="1164.3333333333333" y="321.66666666666663" type="line"/>
      <point x="1046.0" y="187.0"/>
      <point x="869.0" y="94.0"/>
      <point x="684.3333333333334" y="94.0" type="curve"/>
      <point x="375.0" y="94.0"/>
      <point x="160.66666666666666" y="362.0"/>
      <point x="207.33333333333334" y="693.6666666666666" type="curve"/>
      <point x="253.33333333333334" y="1023.9999999999999"/>
      <point x="547.0000000000001" y="1306.0"/>
      <point x="868.3333333333334" y="1306.0" type="curve"/>
      <point x="1037.6666666666667" y="1306.0"/>
      <point x="1192.3333333333333" y="1220.3333333333333"/>
      <point x="1276.3333333333333" y="1081.6666666666665" type="curve"/>
      <point x="1386.3333333333333" y="1134.3333333333335" type="line"/>
      <point x="1283.6666666666667" y="1309.6666666666667"/>
      <point x="1100.6666666666667" y="1426.0"/>
      <point x="871.6666666666666" y="1426.0" type="curve"/>
      <point x="494.6666666666667" y="1426.0"/>
      <point x="145.0" y="1104.0"/>
      <point x="89.0" y="706.3333333333334" type="curve"/>
      <point x="32.0" y="302.0"/>
      <point x="297.3333333333333" y="-26.0"/>
    </contour>
  </outline>
</glyph>
<glyph name="D" format="2">
  <advance width="1342.5"/>
  <unicode hex="0044"/>
  <outline>
    <contour>
      <point x="50.0" y="0.0" type="line"/>
      <point x="515.0" y="0.0" type="line" smooth="yes"/>
      <point x="903.0" y="0.0"/>
      <point x="1256.0" y="310.6666666666667"/>
      <point x="1310.0" y="693.6666666666666" type="curve" smooth="yes"/>
      <point x="1364.0" y="1082.6666666666667"/>
      <point x="1093.0" y="1400.0"/>
      <point x="705.6666666666666" y="1400.0" type="curve" smooth="yes"/>
      <point x="246.0" y="1400.0" type="line"/>
    </contour>
    <contour>
      <point x="186.66666666666666" y="120.0" type="line"/>
      <point x="349.3333333333333" y="1280.0" type="line"/>
      <point x="696.0" y="1280.0" type="line" smooth="yes"/>
      <point x="1016.0" y="1280.0"/>
      <point x="1236.0" y="1023.9999999999999"/>
      <point x="1191.6666666666667" y="706.3333333333334" type="curve" smooth="yes"/>
      <point x="1146.3333333333335" y="382.66666666666663"/>
      <point x="846.6666666666667" y="120.0"/>
      <point x="525.3333333333333" y="120.0" type="curve" smooth="yes"/>
    </contour>
  </outline>
</glyph>
<glyph name="E" format="2">
  <advance width="1067.0"/>
  <unicode hex="0045"/>
  <outline>
    <contour>
      <point x="50.0" y="0.0" type="line"/>
      <point x="897.3333333333334" y="0.0" type="line"/>
      <point x="913.3333333333334" y="120.0" type="line"/>
      <point x="186.66666666666666" y="120.0" type="line"/>
      <point x="267.0" y="690.0" type="line"/>
      <point x="873.0" y="690.0" type="line"/>
      <point x="889.0" y="810.0" type="line"/>
      <point x="283.0" y="810.0" type="line"/>
      <point x="349.3333333333333" y="1280.0" type="line"/>
      <point x="1076.6666666666667" y="1280.0" type="line"/>
      <point x="1093.3333333333335" y="1400.0" type="line"/>
      <point x="246.0" y="1400.0" type="line"/>
    </contour>
  </outline>
</glyph>
<glyph name="F" format="2">
  <advance width="957.0"/>
  <unicode hex="0046"/>
  <outline>
    <contour>
      <point x="50.0" y="0.0" type="line"/>
      <point x="170.0" y="0.0" type="line"/>
      <point x="267.0" y="690.0" type="line"/>
      <point x="867.6666666666667" y="690.0" type="line"/>
      <point x="884.3333333333334" y="810.0" type="line"/>
      <point x="283.0" y="810.0" type="line"/>
      <point x="349.3333333333333" y="1280.0" type="line"/>
      <point x="1046.6666666666667" y="1280.0" type="line"/>
      <point x="1063.3333333333335" y="1400.0" type="line"/>
      <point x="246.0" y="1400.0" type="line"/>
    </contour>
  </outline>
</glyph>
<glyph name="G" format="2">
  <advance width="1496.25"/>
  <unicode hex="0047"/>
  <outline>
    <contour>
      <point x="682.3333333333334" y="-26.0" type="curve" smooth="yes"/>
      <point x="1048.0" y="-26.0"/>
      <point x="1392.0" y="281.33333333333337"/>
      <point x="1459.3333333333333" y="663.3333333333333" type="curve"/>
      <point x="919.3333333333334" y="666.6666666666666" type="line"/>
      <point x="904.0" y="556.6666666666666" type="line"/>
      <point x="1304.0" y="560.0" type="line"/>
      <point x="1211.6666666666665" y="299.3333333333333"/>
      <point x="956.3333333333333" y="94.0"/>
      <point x="686.3333333333333" y="94.0" type="curve" smooth="yes"/>
      <point x="375.0" y="94.0"/>
      <point x="161.0" y="363.3333333333333"/>
      <point x="207.33333333333334" y="692.3333333333334" type="curve" smooth="yes"/>
      <point x="254.0" y="1028.0"/>
      <point x="552.3333333333334" y="1306.0"/>
      <point x="870.3333333333334" y="1306.0" type="curve" smooth="yes"/>
      <point x="1033.0000000000002" y="1306.0"/>
      <point x="1186.0" y="1227.0"/>
      <point x="1276.3333333333333" y="1081.0" type="curve"/>
      <point x="1387.6666666666665" y="1135.0" type="line"/>
      <point x="1279.6666666666665" y="1316.3333333333335"/>
      <point x="1094.0000000000002" y="1425.3333333333333"/>
      <point x="874.3333333333334" y="1425.3333333333333" type="curve" smooth="yes"/>
      <point x="502.0" y="1425.3333333333333"/>
      <point x="146.33333333333334" y="1111.3333333333333"/>
      <point x="89.66666666666667" y="707.0" type="curve" smooth="yes"/>
      <point x="32.666666666666664" y="304.66666666666663"/>
      <point x="294.66666666666663" y="-26.0"/>
    </contour>
  </outline>
</glyph>
<glyph name="H" format="2">
  <advance width="1244.5"/>
  <unicode hex="0048"/>
  <outline>
    <contour>
      <point x="1130.6666666666665" y="1400.0" type="line"/>
      <point x="1047.6666666666665" y="810.0" type="line"/>
      <point x="283.0" y="810.0" type="line"/>
      <point x="366.0" y="1400.0" type="line"/>
      <point x="246.0" y="1400.0" type="line"/>
      <point x="50.0" y="0.0" type="line"/>
      <point x="170.0" y="0.0" type="line"/>
      <point x="267.0" y="690.0" type="line"/>
      <point x="1030.9999999999998" y="690.0" type="line"/>
      <point x="934.6666666666666" y="0.0" type="line"/>
      <point x="1054.6666666666667" y="0.0" type="line"/>
      <point x="1250.6666666666667" y="1400.0" type="line"/>
    </contour>
  </outline>
</glyph>
<glyph name="I" format="2">
  <advance width="420.0"/>
  <unicode hex="0049"/>
  <outline>
    <contour>
      <point x="80.0" y="0.0" type="line"/>
      <point x="200.0" y="0.0" type="line"/>
      <point x="396.0" y="1400.0" type="line"/>
      <point x="276.0" y="1400.0" type="line"/>
    </contour>
  </outline>
</glyph>
<glyph name="J" format="2">
  <advance width="787.0"/>
  <unicode hex="004A"/>
  <outline>
    <contour>
      <point x="216.33333333333331" y="-26.0" type="curve" smooth="yes"/>
      <point x="425.3333333333333" y="-26.0"/>
      <point x="619.0" y="157.33333333333331"/>
      <point x="648.0" y="367.3333333333333" type="curve" smooth="yes"/>
      <point x="793.3333333333334" y="1400.0" type="line"/>
      <point x="673.3333333333334" y="1400.0" type="line"/>
      <point x="529.6666666666667" y="374.66666666666663" type="line" smooth="yes"/>
      <point x="509.33333333333337" y="229.33333333333334"/>
      <point x="368.33333333333337" y="94.0"/>
      <point x="219.66666666666666" y="94.0" type="curve" smooth="yes"/>
      <point x="159.0" y="94.0"/>
      <point x="104.00000000000001" y="115.66666666666667"/>
      <point x="65.66666666666667" y="153.0" type="curve"/>
      <point x="-20.0" y="65.00000000000001" type="line"/>
      <point x="40.33333333333333" y="6.333333333333334"/>
      <point x="123.99999999999999" y="-26.0"/>
    </contour>
  </outline>
</glyph>
<glyph name="K" format="2">
  <advance width="1045.5"/>
  <unicode hex="004B"/>
  <outline>
    <contour>
      <point x="924.3333333333334" y="0.0" type="line"/>
      <point x="481.0" y="738.6666666666666" type="line"/>
      <point x="1131.0000000000002" y="1400.0" type="line"/>
      <point x="972.0" y="1400.0" type="line"/>
      <point x="263.6666666666667" y="676.6666666666666" type="line"/>
      <point x="366.0" y="1400.0" type="line"/>
      <point x="246.0" y="1400.0" type="line"/>
      <point x="50.0" y="0.0" type="line"/>
      <point x="170.0" y="0.0" type="line"/>
      <point x="240.33333333333334" y="489.3333333333333" type="line"/>
      <point x="391.33333333333337" y="644.0" type="line"/>
      <point x="771.3333333333333" y="0.0" type="line"/>
    </contour>
  </outline>
</glyph>
<glyph name="L" format="2">
  <advance width="995.0"/>
  <unicode hex="004C"/>
  <outline>
    <contour>
      <point x="50.0" y="0.0" type="line"/>
      <point x="825.3333333333334" y="0.0" type="line"/>
      <point x="841.3333333333334" y="120.0" type="line"/>
      <point x="186.66666666666666" y="120.0" type="line"/>
      <point x="366.0" y="1400.0" type="line"/>
      <point x="246.0" y="1400.0" type="line"/>
    </contour>
  </outline>
</glyph>
<glyph name="M" format="2">
  <advance width="1750.0"/>
  <unicode hex="004D"/>
  <outline>
    <contour>
      <point x="49.0" y="0.0" type="line"/>
      <point x="172.0" y="0.0" type="line"/>
      <point x="543.6666666666667" y="1110.0" type="line"/>
      <point x="782.6666666666667" y="103.33333333333333" type="line"/>
      <point x="857.3333333333334" y="103.33333333333333" type="line"/>
      <point x="1379.0" y="1110.0" type="line"/>
      <point x="1437.3333333333333" y="0.0" type="line"/>
      <point x="1559.0" y="0.0" type="line"/>
      <point x="1484.0" y="1400.0" type="line"/>
      <point x="1400.0" y="1400.0" type="line"/>
      <point x="850.6666666666667" y="344.6666666666667" type="line"/>
      <point x="599.3333333333334" y="1400.0" type="line"/>
      <point x="516.0000000000001" y="1400.0" type="line"/>
    </contour>
  </outline>
</glyph>
<glyph name="N" format="2">
  <advance width="1302.5"/>
  <unicode hex="004E"/>
  <outline>
    <contour>
      <point x="72.66666666666666" y="0.0" type="line"/>
      <point x="192.66666666666669" y="0.0" type="line"/>
      <point x="360.0" y="1183.3333333333333" type="line"/>
      <point x="961.9999999999999" y="0.0" type="line"/>
      <point x="1090.0" y="0.0" type="line"/>
      <point x="1286.0" y="1400.0" type="line"/>
      <point x="1166.0" y="1400.0" type="line"/>
      <point x="998.6666666666666" y="216.66666666666669" type="line"/>
      <point x="398.0" y="1400.0" type="line"/>
      <point x="268.66666666666663" y="1400.0" type="line"/>
    </contour>
  </outline>
</glyph>
<glyph name="O" format="2">
  <advance width="1540.0"/>
  <unicode hex="004F"/>
  <outline>
    <contour>
      <point x="702.3333333333334" y="-26.0" type="curve" smooth="yes"/>
      <point x="1079.3333333333333" y="-26.0"/>
      <point x="1432.0" y="296.6666666666667"/>
      <point x="1487.3333333333333" y="693.6666666666666" type="curve" smooth="yes"/>
      <point x="1544.0" y="1096.6666666666667"/>
      <point x="1276.6666666666667" y="1426.0"/>
      <point x="893.6666666666666" y="1426.0" type="curve" smooth="yes"/>
      <point x="516.6666666666666" y="1426.0"/>
      <point x="165.0" y="1103.3333333333333"/>
      <point x="109.0" y="706.3333333333334" type="curve" smooth="yes"/>
      <point x="52.0" y="303.3333333333333"/>
      <point x="319.3333333333333" y="-26.0"/>
    </contour>
    <contour>
      <point x="706.3333333333334" y="94.0" type="curve" smooth="yes"/>
      <point x="395.0" y="94.0"/>
      <point x="180.66666666666666" y="363.3333333333333"/>
      <point x="227.33333333333334" y="693.6666666666666" type="curve" smooth="yes"/>
      <point x="273.3333333333333" y="1025.3333333333335"/>
      <point x="569.0000000000001" y="1306.0"/>
      <point x="890.3333333333334" y="1306.0" type="curve" smooth="yes"/>
      <point x="1201.0" y="1306.0"/>
      <point x="1415.3333333333333" y="1035.3333333333333"/>
      <point x="1369.0" y="706.3333333333334" type="curve" smooth="yes"/>
      <point x="1322.6666666666667" y="375.3333333333333"/>
      <point x="1027.0" y="94.0"/>
    </contour>
  </outline>
</glyph>
<glyph name="P" format="2">
  <advance width="1035.0"/>
  <unicode hex="0050"/>
  <outline>
    <contour>
      <point x="50.0" y="0.0" type="line"/>
      <point x="170.0" y="0.0" type="line"/>
      <point x="252.0" y="586.0" type="line"/>
      <point x="574.0" y="586.0" type="line" smooth="yes"/>
      <point x="790.0" y="586.0"/>
      <point x="991.3333333333334" y="758.0"/>
      <point x="1023.3333333333334" y="986.3333333333334" type="curve" smooth="yes"/>
      <point x="1056.0000000000002" y="1218.6666666666667"/>
      <point x="903.6666666666666" y="1400.0"/>
      <point x="681.0" y="1400.0" type="curve" smooth="yes"/>
      <point x="246.0" y="1400.0" type="line"/>
    </contour>
    <contour>
      <point x="268.6666666666667" y="706.0" type="line"/>
      <point x="351.3333333333333" y="1291.3333333333333" type="line"/>
      <point x="664.0" y="1291.3333333333333" type="line" smooth="yes"/>
      <point x="820.6666666666666" y="1291.3333333333333"/>
      <point x="929.3333333333334" y="1169.3333333333333"/>
      <point x="906.3333333333334" y="1005.0" type="curve" smooth="yes"/>
      <point x="882.3333333333334" y="834.6666666666667"/>
      <point x="731.6666666666666" y="706.0"/>
      <point x="575.0" y="706.0" type="curve" smooth="yes"/>
    </contour>
  </outline>
</glyph>
<glyph name="Q" format="2">
  <advance width="1549.5"/>
  <unicode hex="0051"/>
  <outline>
    <contour>
      <point x="1311.3333333333333" y="-20.666666666666668" type="line"/>
      <point x="1405.3333333333335" y="64.0" type="line"/>
      <point x="1257.0" y="232.33333333333331" type="line"/>
      <point x="1378.6666666666665" y="358.33333333333337"/>
      <point x="1461.0" y="519.3333333333334"/>
      <point x="1486.0" y="695.6666666666666" type="curve" smooth="yes"/>
      <point x="1542.6666666666667" y="1098.6666666666667"/>
      <point x="1276.6666666666667" y="1428.0"/>
      <point x="894.3333333333334" y="1428.0" type="curve" smooth="yes"/>
      <point x="515.3333333333334" y="1428.0"/>
      <point x="165.66666666666666" y="1105.3333333333333"/>
      <point x="109.66666666666667" y="708.3333333333334" type="curve" smooth="yes"/>
      <point x="52.666666666666664" y="305.3333333333333"/>
      <point x="318.6666666666667" y="-24.0"/>
      <point x="703.0" y="-24.0" type="curve" smooth="yes"/>
      <point x="868.0" y="-24.0"/>
      <point x="1030.3333333333333" y="38.33333333333333"/>
      <point x="1165.3333333333335" y="146.33333333333331" type="curve"/>
    </contour>
    <contour>
      <point x="706.3333333333334" y="96.0" type="curve" smooth="yes"/>
      <point x="397.0" y="96.0"/>
      <point x="180.66666666666666" y="365.33333333333337"/>
      <point x="228.0" y="695.6666666666666" type="curve" smooth="yes"/>
      <point x="274.0" y="1025.3333333333333"/>
      <point x="569.0000000000001" y="1308.0"/>
      <point x="890.3333333333334" y="1308.0" type="curve" smooth="yes"/>
      <point x="1198.3333333333333" y="1308.0"/>
      <point x="1414.0" y="1038.6666666666665"/>
      <point x="1368.3333333333335" y="708.3333333333334" type="curve" smooth="yes"/>
      <point x="1347.6666666666667" y="567.3333333333334"/>
      <point x="1281.3333333333333" y="432.3333333333333"/>
      <point x="1180.6666666666665" y="326.3333333333333" type="curve"/>
      <point x="991.3333333333334" y="543.3333333333334" type="line"/>
      <point x="897.0" y="457.3333333333333" type="line"/>
      <point x="1087.0" y="236.33333333333334" type="line"/>
      <point x="978.0000000000001" y="148.33333333333334"/>
      <point x="839.0" y="96.0"/>
    </contour>
  </outline>
</glyph>
<glyph name="R" format="2">
  <advance width="1119.0"/>
  <unicode hex="0052"/>
  <outline>
    <contour>
      <point x="72.66666666666666" y="0.0" type="line"/>
      <point x="192.66666666666669" y="0.0" type="line"/>
      <point x="274.6666666666667" y="586.0" type="line"/>
      <point x="551.0" y="586.0" type="line"/>
      <point x="808.0" y="0.0" type="line"/>
      <point x="945.0" y="0.0" type="line"/>
      <point x="687.0" y="593.3333333333333" type="line"/>
      <point x="878.6666666666666" y="623.3333333333333"/>
      <point x="1041.6666666666665" y="781.3333333333333"/>
      <point x="1071.3333333333333" y="986.3333333333334" type="curve" smooth="yes"/>
      <point x="1103.3333333333333" y="1219.3333333333335"/>
      <point x="951.6666666666666" y="1400.0"/>
      <point x="729.0" y="1400.0" type="curve" smooth="yes"/>
      <point x="268.66666666666663" y="1400.0" type="line"/>
    </contour>
    <contour>
      <point x="291.33333333333337" y="706.0" type="line"/>
      <point x="374.0" y="1291.3333333333333" type="line"/>
      <point x="712.0" y="1291.3333333333333" type="line" smooth="yes"/>
      <point x="868.0" y="1291.3333333333333"/>
      <point x="976.6666666666666" y="1169.3333333333333"/>
      <point x="953.6666666666666" y="1005.0" type="curve" smooth="yes"/>
      <point x="929.6666666666666" y="834.6666666666667"/>
      <point x="779.0" y="706.0"/>
      <point x="623.0" y="706.0" type="curve" smooth="yes"/>
    </contour>
  </outline>
</glyph>
<glyph name="S" format="2">
  <advance width="1214.5"/>
  <unicode hex="0053"/>
  <outline>
    <contour>
      <point x="539.0" y="-26.0" type="curve" smooth="yes"/>
      <point x="802.6666666666667" y="-26.0"/>
      <point x="1054.0" y="124.0"/>
      <point x="1086.6666666666665" y="359.0" type="curve" smooth="yes"/>
      <point x="1120.0" y="596.0"/>
      <point x="898.6666666666666" y="713.3333333333334"/>
      <point x="636.3333333333333" y="758.3333333333334" type="curve" smooth="yes"/>
      <point x="429.0" y="798.6666666666667"/>
      <point x="275.33333333333337" y="836.0"/>
      <point x="301.33333333333337" y="1022.3333333333334" type="curve" smooth="yes"/>
      <point x="324.33333333333337" y="1187.3333333333335"/>
      <point x="522.0000000000001" y="1300.0"/>
      <point x="725.3333333333333" y="1299.3333333333333" type="curve" smooth="yes"/>
      <point x="891.3333333333334" y="1299.3333333333333"/>
      <point x="1056.6666666666667" y="1227.3333333333333"/>
      <point x="1085.3333333333333" y="1094.0" type="curve"/>
      <point x="1202.3333333333335" y="1127.3333333333333" type="line"/>
      <point x="1157.3333333333335" y="1313.3333333333333"/>
      <point x="947.0" y="1420.0"/>
      <point x="729.3333333333333" y="1420.0" type="curve" smooth="yes"/>
      <point x="468.33333333333337" y="1420.0"/>
      <point x="216.33333333333331" y="1270.0"/>
      <point x="182.99999999999997" y="1035.0" type="curve" smooth="yes"/>
      <point x="146.33333333333331" y="774.6666666666667"/>
      <point x="351.3333333333333" y="687.3333333333334"/>
      <point x="633.0" y="638.3333333333334" type="curve" smooth="yes"/>
      <point x="814.3333333333333" y="603.3333333333334"/>
      <point x="992.3333333333334" y="537.3333333333334"/>
      <point x="969.0" y="372.3333333333333" type="curve" smooth="yes"/>
      <point x="945.3333333333334" y="204.66666666666669"/>
      <point x="745.6666666666666" y="94.0"/>
      <point x="542.3333333333333" y="94.0" type="curve" smooth="yes"/>
      <point x="377.0" y="94.0"/>
      <point x="211.66666666666666" y="167.33333333333331"/>
      <point x="183.0" y="300.0" type="curve"/>
      <point x="68.0" y="264.66666666666663" type="line"/>
      <point x="105.66666666666667" y="85.33333333333333"/>
      <point x="313.3333333333333" y="-26.0"/>
    </contour>
  </outline>
</glyph>
<glyph name="T" format="2">
  <advance width="1258.5"/>
  <unicode hex="0054"/>
  <outline>
    <contour>
      <point x="1304.6666666666667" y="1400.0" type="line"/>
      <point x="206.0" y="1400.0" type="line"/>
      <point x="189.33333333333334" y="1280.0" type="line"/>
      <point x="678.0" y="1280.0" type="line"/>
      <point x="498.66666666666663" y="0.0" type="line"/>
      <point x="618.6666666666666" y="0.0" type="line"/>
      <point x="798.0" y="1280.0" type="line"/>
      <point x="1288.0" y="1280.0" type="line"/>
    </contour>
  </outline>
</glyph>
<glyph name="U" format="2">
  <advance width="1319.5"/>
  <unicode hex="0055"/>
  <outline>
    <contour>
      <point x="592.3333333333334" y="-26.0" type="curve" smooth="yes"/>
      <point x="925.3333333333334" y="-26.0"/>
      <point x="1163.3333333333333" y="242.66666666666666"/>
      <point x="1211.3333333333333" y="580.6666666666666" type="curve" smooth="yes"/>
      <point x="1325.3333333333333" y="1400.0" type="line"/>
      <point x="1205.3333333333333" y="1400.0" type="line"/>
      <point x="1092.0" y="587.3333333333334" type="line" smooth="yes"/>
      <point x="1054.0" y="322.66666666666663"/>
      <point x="873.6666666666666" y="94.0"/>
      <point x="596.3333333333334" y="94.0" type="curve" smooth="yes"/>
      <point x="329.0" y="94.0"/>
      <point x="213.66666666666666" y="313.33333333333337"/>
      <point x="252.0" y="580.6666666666666" type="curve" smooth="yes"/>
      <point x="366.0" y="1400.0" type="line"/>
      <point x="246.0" y="1400.0" type="line"/>
      <point x="132.0" y="587.3333333333334" type="line" smooth="yes"/>
      <point x="85.0" y="249.33333333333334"/>
      <point x="253.33333333333334" y="-26.0"/>
    </contour>
  </outline>
</glyph>
<glyph name="V" format="2">
  <advance width="1199.5"/>
  <unicode hex="0056"/>
  <outline>
    <contour>
      <point x="458.6666666666667" y="0.0" type="line"/>
      <point x="600.6666666666666" y="0.0" type="line"/>
      <point x="1307.0" y="1400.0" type="line"/>
      <point x="1177.3333333333333" y="1400.0" type="line"/>
      <point x="548.6666666666667" y="155.33333333333334" type="line"/>
      <point x="273.33333333333337" y="1400.0" type="line"/>
      <point x="147.66666666666666" y="1400.0" type="line"/>
    </contour>
  </outline>
</glyph>
<glyph name="W" format="2">
  <advance width="1774.0"/>
  <unicode hex="0057"/>
  <outline>
    <contour>
      <point x="388.6666666666667" y="0.0" type="line"/>
      <point x="531.3333333333334" y="0.0" type="line"/>
      <point x="975.3333333333334" y="1119.3333333333333" type="line"/>
      <point x="1104.0" y="0.0" type="line"/>
      <point x="1248.6666666666667" y="0.0" type="line"/>
      <point x="1801.0" y="1400.0" type="line"/>
      <point x="1676.0" y="1400.0" type="line"/>
      <point x="1202.3333333333333" y="202.66666666666669" type="line"/>
      <point x="1065.3333333333335" y="1400.0" type="line"/>
      <point x="960.0" y="1400.0" type="line"/>
      <point x="486.3333333333333" y="202.66666666666669" type="line"/>
      <point x="350.0" y="1400.0" type="line"/>
      <point x="227.0" y="1400.0" type="line"/>
    </contour>
  </outline>
</glyph>
<glyph name="X" format="2">
  <advance width="1294.0"/>
  <unicode hex="0058"/>
  <outline>
    <contour>
      <point x="-11.666666666666666" y="0.0" type="line"/>
      <point x="140.66666666666666" y="0.0" type="line"/>
      <point x="664.3333333333334" y="601.3333333333334" type="line"/>
      <point x="1015.9999999999999" y="0.0" type="line"/>
      <point x="1162.3333333333333" y="0.0" type="line"/>
      <point x="751.0" y="704.0" type="line"/>
      <point x="1357.6666666666667" y="1402.0" type="line"/>
      <point x="1207.3333333333333" y="1402.0" type="line"/>
      <point x="687.3333333333334" y="805.3333333333334" type="line"/>
      <point x="337.3333333333333" y="1402.0" type="line"/>
      <point x="191.66666666666666" y="1402.0" type="line"/>
      <point x="602.3333333333334" y="704.0" type="line"/>
    </contour>
  </outline>
</glyph>
<glyph name="Y" format="2">
  <advance width="1179.0"/>
  <unicode hex="0059"/>
  <outline>
    <contour>
      <point x="1103.3333333333333" y="1400.0" type="line"/>
      <point x="624.3333333333334" y="765.3333333333334" type="line"/>
      <point x="326.00000000000006" y="1400.0" type="line"/>
      <point x="187.66666666666666" y="1400.0" type="line"/>
      <point x="550.0" y="634.6666666666666" type="line"/>
      <point x="459.33333333333337" y="0.0" type="line"/>
      <point x="579.3333333333334" y="0.0" type="line"/>
      <point x="670.0" y="634.6666666666666" type="line"/>
      <point x="1247.0" y="1400.0" type="line"/>
    </contour>
  </outline>
</glyph>
<glyph name="Z" format="2">
  <advance width="1372.0"/>
  <unicode hex="005A"/>
  <outline>
    <contour>
      <point x="50.0" y="0.0" type="line"/>
      <point x="1182.0" y="0.0" type="line"/>
      <point x="1198.6666666666667" y="120.0" type="line"/>
      <point x="228.33333333333334" y="120.0" type="line"/>
      <point x="1363.0" y="1280.0" type="line"/>
      <point x="1378.0" y="1400.0" type="line"/>
      <point x="246.0" y="1400.0" type="line"/>
      <point x="229.33333333333334" y="1280.0" type="line"/>
      <point x="1200.3333333333333" y="1280.0" type="line"/>
      <point x="66.0" y="120.0" type="line"/>
    </contour>
  </outline>
</glyph>
<glyph name="bracketleft" format="2">
  <advance width="519.0"/>
  <unicode hex="005B"/>
  <outline>
    <contour>
      <point x="349.3333333333333" y="8.0" type="line"/>
      <point x="170.66666666666666" y="8.0" type="line"/>
      <point x="349.3333333333333" y="1280.0" type="line"/>
      <point x="528.6666666666666" y="1280.0" type="line"/>
      <point x="545.3333333333333" y="1400.0" type="line"/>
      <point x="246.0" y="1400.0" type="line"/>
      <point x="34.0" y="-112.0" type="line"/>
      <point x="333.3333333333333" y="-112.0" type="line"/>
    </contour>
  </outline>
</glyph>
<glyph name="backslash" format="2">
  <advance width="685.5"/>
  <unicode hex="005C"/>
  <outline>
    <contour>
      <point x="400.0" y="-112.0" type="line"/>
      <point x="519.3333333333334" y="-112.0" type="line"/>
      <point x="325.3333333333333" y="1400.0" type="line"/>
      <point x="207.66666666666666" y="1400.0" type="line"/>
    </contour>
  </outline>
</glyph>
<glyph name="bracketright" format="2">
  <advance width="519.5"/>
  <unicode hex="005D"/>
  <outline>
    <contour>
      <point x="14.0" y="-112.0" type="line"/>
      <point x="313.3333333333333" y="-112.0" type="line"/>
      <point x="525.3333333333333" y="1400.0" type="line"/>
      <point x="226.0" y="1400.0" type="line"/>
      <point x="209.33333333333334" y="1280.0" type="line"/>
      <point x="389.3333333333333" y="1280.0" type="line"/>
      <point x="209.99999999999997" y="8.0" type="line"/>
      <point x="30.666666666666668" y="8.0" type="line"/>
    </contour>
  </outline>
</glyph>
<glyph name="asciicircum" format="2">
  <advance width="752.0"/>
  <unicode hex="005E"/>
  <outline>
    <contour>
      <point x="149.33333333333334" y="1000.0" type="line"/>
      <point x="278.33333333333337" y="1000.0" type="line"/>
      <point x="513.3333333333334" y="1463.3333333333333" type="line"/>
      <point x="615.6666666666666" y="1000.0" type="line"/>
      <point x="741.3333333333334" y="1000.0" type="line"/>
      <point x="596.3333333333334" y="1650.0" type="line"/>
      <point x="476.3333333333333" y="1650.0" type="line"/>
    </contour>
  </outline>
</glyph>
<glyph name="underscore" format="2">
  <advance width="1240.0"/>
  <unicode hex="005F"/>
  <outline>
    <contour>
      <point x="50.666666666666664" y="8.0" type="line"/>
      <point x="34.0" y="-112.0" type="line"/>
      <point x="1034.0" y="-112.0" type="line"/>
      <point x="1050.6666666666667" y="8.0" type="line"/>
    </contour>
  </outline>
</glyph>
<glyph name="grave" format="2">
  <advance width="1000.0"/>
  <unicode hex="0060"/>
  <outline>
    <contour>
      <point x="451.6666666666667" y="1426.0" type="line"/>
      <point x="555.9999999999999" y="1138.0" type="line"/>
      <point x="609.0" y="1138.0" type="line"/>
      <point x="569.3333333333334" y="1426.0" type="line"/>
    </contour>
  </outline>
</glyph>
<glyph name="a" format="2">
  <advance width="1205.5"/>
  <unicode hex="0061"/>
  <outline>
    <contour>
      <point x="1035.3333333333335" y="1000.0" type="line"/>
      <point x="1006.3333333333334" y="800.0" type="line"/>
      <point x="955.6666666666666" y="934.6666666666666"/>
      <point x="839.6666666666666" y="1028.0"/>
      <point x="663.6666666666666" y="1028.0" type="curve"/>
      <point x="377.0" y="1028.0"/>
      <point x="111.0" y="795.3333333333334"/>
      <point x="70.66666666666667" y="506.3333333333333" type="curve"/>
      <point x="29.0" y="213.33333333333334"/>
      <point x="235.33333333333331" y="-26.0"/>
      <point x="528.3333333333334" y="-26.0" type="curve"/>
      <point x="698.0" y="-26.0"/>
      <point x="836.3333333333334" y="61.333333333333336"/>
      <point x="925.0" y="196.0" type="curve"/>
      <point x="895.3333333333334" y="0.0" type="line"/>
      <point x="1015.3333333333333" y="0.0" type="line"/>
      <point x="1155.3333333333333" y="1000.0" type="line"/>
    </contour>
    <contour>
      <point x="533.0" y="91.33333333333334" type="curve"/>
      <point x="318.3333333333333" y="91.33333333333334"/>
      <point x="159.66666666666669" y="267.3333333333333"/>
      <point x="191.33333333333334" y="493.6666666666667" type="curve"/>
      <point x="223.33333333333334" y="723.3333333333334"/>
      <point x="433.6666666666667" y="910.6666666666666"/>
      <point x="661.0" y="910.6666666666666" type="curve"/>
      <point x="879.0" y="910.6666666666666"/>
      <point x="989.0" y="733.3333333333334"/>
      <point x="956.6666666666666" y="506.3333333333333" type="curve"/>
      <point x="924.6666666666666" y="279.3333333333333"/>
      <point x="761.0" y="91.33333333333334"/>
    </contour>
  </outline>
</glyph>
<glyph name="b" format="2">
  <advance width="1195.5"/>
  <unicode hex="0062"/>
  <outline>
    <contour>
      <point x="676.3333333333334" y="1028.0" type="curve"/>
      <point x="508.3333333333333" y="1028.0"/>
      <point x="369.66666666666663" y="940.6666666666667"/>
      <point x="281.0" y="806.0" type="curve"/>
      <point x="381.0" y="1500.0" type="line"/>
      <point x="261.0" y="1500.0" type="line"/>
      <point x="50.0" y="0.0" type="line"/>
      <point x="170.0" y="0.0" type="line"/>
      <point x="200.0" y="202.0" type="line"/>
      <point x="251.33333333333331" y="67.33333333333334"/>
      <point x="366.66666666666663" y="-26.0"/>
      <point x="541.6666666666667" y="-26.0" type="curve"/>
      <point x="829.3333333333334" y="-26.0"/>
      <point x="1094.3333333333333" y="206.66666666666666"/>
      <point x="1135.3333333333333" y="494.33333333333337" type="curve"/>
      <point x="1176.3333333333333" y="788.6666666666666"/>
      <point x="971.0" y="1028.0"/>
    </contour>
    <contour>
      <point x="543.6666666666666" y="91.33333333333334" type="curve"/>
      <point x="326.3333333333333" y="91.33333333333334"/>
      <point x="217.0" y="269.33333333333337"/>
      <point x="249.33333333333334" y="494.33333333333337" type="curve"/>
      <point x="280.6666666666667" y="721.3333333333334"/>
      <point x="445.0" y="911.3333333333334"/>
      <point x="672.3333333333334" y="911.3333333333334" type="curve"/>
      <point x="887.0" y="911.3333333333334"/>
      <point x="1046.3333333333335" y="734.6666666666667"/>
      <point x="1014.0" y="507.0" type="curve"/>
      <point x="982.0" y="279.3333333333333"/>
      <point x="771.6666666666666" y="91.33333333333334"/>
    </contour>
  </outline>
</glyph>
<glyph name="c" format="2">
  <advance width="1018.5"/>
  <unicode hex="0063"/>
  <outline>
    <contour>
      <point x="812.6666666666666" y="243.0" type="line"/>
      <point x="734.0" y="157.0"/>
      <point x="617.0" y="94.0"/>
      <point x="496.3333333333333" y="94.0" type="curve"/>
      <point x="289.6666666666667" y="94.0"/>
      <point x="148.66666666666666" y="273.3333333333333"/>
      <point x="179.33333333333334" y="493.6666666666667" type="curve"/>
      <point x="210.33333333333334" y="717.3333333333333"/>
      <point x="405.66666666666663" y="908.0"/>
      <point x="624.3333333333334" y="908.0" type="curve"/>
      <point x="728.3333333333334" y="908.0"/>
      <point x="831.3333333333333" y="857.0"/>
      <point x="891.3333333333334" y="763.0" type="curve"/>
      <point x="1001.3333333333333" y="815.6666666666666" type="line"/>
      <point x="928.6666666666666" y="943.6666666666666"/>
      <point x="793.6666666666666" y="1028.0"/>
      <point x="627.6666666666666" y="1028.0" type="curve"/>
      <point x="355.0" y="1028.0"/>
      <point x="101.0" y="795.3333333333334"/>
      <point x="60.666666666666664" y="506.3333333333333" type="curve"/>
      <point x="19.0" y="213.33333333333334"/>
      <point x="213.33333333333334" y="-26.0"/>
      <point x="492.3333333333333" y="-26.0" type="curve"/>
      <point x="652.0" y="-26.0"/>
      <point x="807.3333333333334" y="53.666666666666664"/>
      <point x="915.3333333333333" y="181.0" type="curve"/>
    </contour>
  </outline>
</glyph>
<glyph name="d" format="2">
  <advance width="1213.0"/>
  <unicode hex="0064"/>
  <outline>
    <contour>
      <point x="1096.3333333333335" y="1500.0" type="line"/>
      <point x="996.3333333333334" y="800.0" type="line"/>
      <point x="945.6666666666666" y="934.6666666666667"/>
      <point x="829.6666666666666" y="1027.3333333333333"/>
      <point x="653.6666666666666" y="1027.3333333333333" type="curve"/>
      <point x="367.0" y="1027.3333333333333"/>
      <point x="101.0" y="795.3333333333334"/>
      <point x="60.666666666666664" y="506.3333333333333" type="curve"/>
      <point x="19.0" y="213.33333333333334"/>
      <point x="225.33333333333334" y="-26.0"/>
      <point x="518.3333333333334" y="-26.0" type="curve"/>
      <point x="688.0" y="-26.0"/>
      <point x="826.3333333333334" y="61.333333333333336"/>
      <point x="914.3333333333334" y="195.33333333333331" type="curve"/>
      <point x="885.3333333333334" y="0.0" type="line"/>
      <point x="1005.3333333333333" y="0.0" type="line"/>
      <point x="1216.3333333333333" y="1500.0" type="line"/>
    </contour>
    <contour>
      <point x="523.0" y="91.33333333333334" type="curve"/>
      <point x="308.3333333333333" y="91.33333333333334"/>
      <point x="149.0" y="267.33333333333337"/>
      <point x="181.33333333333334" y="493.6666666666667" type="curve"/>
      <point x="213.33333333333334" y="723.3333333333333"/>
      <point x="425.0" y="910.6666666666666"/>
      <point x="651.0" y="910.6666666666666" type="curve"/>
      <point x="869.0" y="910.6666666666666"/>
      <point x="979.0" y="733.3333333333334"/>
      <point x="946.6666666666666" y="506.3333333333333" type="curve"/>
      <point x="914.6666666666666" y="278.66666666666663"/>
      <point x="751.0" y="91.33333333333334"/>
    </contour>
  </outline>
</glyph>
<glyph name="e" format="2">
  <advance width="1118.5"/>
  <unicode hex="0065"/>
  <outline>
    <contour>
      <point x="492.3333333333333" y="-26.0" type="curve" smooth="yes"/>
      <point x="689.3333333333334" y="-26.0"/>
      <point x="876.6666666666666" y="94.66666666666667"/>
      <point x="981.6666666666666" y="272.6666666666667" type="curve"/>
      <point x="862.0" y="306.3333333333333" type="line"/>
      <point x="773.6666666666667" y="175.0"/>
      <point x="641.6666666666666" y="94.0"/>
      <point x="496.3333333333333" y="94.0" type="curve" smooth="yes"/>
      <point x="304.3333333333333" y="94.66666666666667"/>
      <point x="171.33333333333334" y="244.0"/>
      <point x="177.66666666666666" y="449.33333333333337" type="curve"/>
      <point x="1050.0" y="449.33333333333337" type="line"/>
      <point x="1106.0" y="779.3333333333333"/>
      <point x="925.6666666666666" y="1028.0"/>
      <point x="627.6666666666666" y="1028.0" type="curve" smooth="yes"/>
      <point x="355.0" y="1028.0"/>
      <point x="101.0" y="795.3333333333334"/>
      <point x="60.666666666666664" y="507.0" type="curve" smooth="yes"/>
      <point x="19.0" y="213.33333333333334"/>
      <point x="213.33333333333334" y="-26.0"/>
    </contour>
    <contour>
      <point x="191.33333333333334" y="549.3333333333333" type="line"/>
      <point x="238.66666666666669" y="752.0"/>
      <point x="422.3333333333333" y="918.0"/>
      <point x="625.0" y="918.0" type="curve" smooth="yes"/>
      <point x="820.3333333333333" y="918.0"/>
      <point x="958.3333333333334" y="753.3333333333334"/>
      <point x="944.3333333333334" y="556.0" type="curve"/>
    </contour>
  </outline>
</glyph>
<glyph name="f" format="2">
  <advance width="655.5"/>
  <unicode hex="0066"/>
  <outline>
    <contour>
      <point x="420.3333333333333" y="1268.6666666666667" type="line"/>
      <point x="431.3333333333333" y="1342.0"/>
      <point x="502.0" y="1404.0"/>
      <point x="578.0" y="1404.0" type="curve"/>
      <point x="612.6666666666666" y="1404.0"/>
      <point x="645.0" y="1390.0"/>
      <point x="665.6666666666667" y="1362.6666666666667" type="curve"/>
      <point x="761.0" y="1443.3333333333333" type="line"/>
      <point x="718.3333333333334" y="1495.3333333333335"/>
      <point x="656.0" y="1524.0"/>
      <point x="586.0" y="1524.0" type="curve"/>
      <point x="447.3333333333333" y="1524.0"/>
      <point x="320.0" y="1412.6666666666667"/>
      <point x="301.0" y="1272.6666666666667" type="curve"/>
      <point x="263.0" y="1000.0" type="line"/>
      <point x="121.0" y="1000.0" type="line"/>
      <point x="103.33333333333333" y="880.0" type="line"/>
      <point x="245.33333333333334" y="880.0" type="line"/>
      <point x="122.0" y="0.0" type="line"/>
      <point x="242.0" y="0.0" type="line"/>
      <point x="365.3333333333333" y="880.0" type="line"/>
      <point x="671.3333333333334" y="880.0" type="line"/>
      <point x="689.0" y="1000.0" type="line"/>
      <point x="383.0" y="1000.0" type="line"/>
    </contour>
  </outline>
</glyph>
<glyph name="g" format="2">
  <advance width="1165.5"/>
  <unicode hex="0067"/>
  <outline>
    <contour>
      <point x="995.3333333333334" y="1000.0" type="line"/>
      <point x="966.3333333333334" y="802.6666666666667" type="line"/>
      <point x="914.3333333333334" y="935.3333333333334"/>
      <point x="801.0" y="1027.3333333333333"/>
      <point x="634.3333333333333" y="1027.3333333333333" type="curve" smooth="yes"/>
      <point x="358.3333333333333" y="1027.3333333333333"/>
      <point x="101.0" y="795.3333333333334"/>
      <point x="60.666666666666664" y="506.3333333333333" type="curve" smooth="yes"/>
      <point x="19.0" y="213.33333333333334"/>
      <point x="216.66666666666666" y="-26.0"/>
      <point x="498.99999999999994" y="-26.0" type="curve" smooth="yes"/>
      <point x="659.3333333333334" y="-26.0"/>
      <point x="795.0" y="60.66666666666667"/>
      <point x="884.3333333333334" y="193.33333333333334" type="curve"/>
      <point x="850.3333333333334" y="-36.666666666666664" type="line" smooth="yes"/>
      <point x="824.3333333333334" y="-219.33333333333331"/>
      <point x="614.6666666666667" y="-379.3333333333333"/>
      <point x="422.3333333333333" y="-379.3333333333333" type="curve" smooth="yes"/>
      <point x="268.66666666666663" y="-379.3333333333333"/>
      <point x="124.00000000000001" y="-257.3333333333333"/>
      <point x="110.00000000000001" y="-100.0" type="curve"/>
      <point x="-5.000000000000004" y="-143.33333333333334" type="line"/>
      <point x="25.333333333333343" y="-336.6666666666667"/>
      <point x="206.33333333333331" y="-500.0"/>
      <point x="418.99999999999994" y="-500.0" type="curve" smooth="yes"/>
      <point x="668.3333333333334" y="-500.0"/>
      <point x="933.9999999999999" y="-293.3333333333333"/>
      <point x="968.6666666666666" y="-43.333333333333336" type="curve" smooth="yes"/>
      <point x="1115.3333333333333" y="1000.0" type="line"/>
    </contour>
    <contour>
      <point x="503.00000000000006" y="91.33333333333334" type="curve" smooth="yes"/>
      <point x="296.3333333333333" y="91.33333333333334"/>
      <point x="149.0" y="268.6666666666667"/>
      <point x="181.33333333333334" y="493.6666666666667" type="curve" smooth="yes"/>
      <point x="213.33333333333334" y="723.3333333333333"/>
      <point x="413.0" y="910.6666666666666"/>
      <point x="631.6666666666667" y="910.6666666666666" type="curve" smooth="yes"/>
      <point x="842.3333333333334" y="910.6666666666666"/>
      <point x="951.3333333333334" y="727.3333333333334"/>
      <point x="919.3333333333334" y="506.3333333333333" type="curve" smooth="yes"/>
      <point x="888.3333333333334" y="284.66666666666663"/>
      <point x="723.6666666666666" y="91.33333333333334"/>
    </contour>
  </outline>
</glyph>
<glyph name="h" format="2">
  <advance width="1073.0"/>
  <unicode hex="0068"/>
  <outline>
    <contour>
      <point x="998.3333333333334" y="538.0" type="line"/>
      <point x="1031.0000000000002" y="799.3333333333333"/>
      <point x="885.0" y="1027.3333333333333"/>
      <point x="629.0" y="1027.3333333333333" type="curve"/>
      <point x="497.0" y="1027.3333333333333"/>
      <point x="375.3333333333333" y="964.3333333333334"/>
      <point x="285.6666666666667" y="834.3333333333334" type="curve"/>
      <point x="381.0" y="1500.0" type="line"/>
      <point x="261.0" y="1500.0" type="line"/>
      <point x="50.0" y="0.0" type="line"/>
      <point x="170.66666666666666" y="0.0" type="line"/>
      <point x="245.66666666666666" y="534.0" type="line"/>
      <point x="274.3333333333333" y="739.3333333333334"/>
      <point x="434.3333333333333" y="910.6666666666666"/>
      <point x="617.6666666666667" y="910.6666666666666" type="curve"/>
      <point x="790.3333333333334" y="910.6666666666666"/>
      <point x="908.0" y="746.6666666666667"/>
      <point x="878.3333333333334" y="541.3333333333334" type="curve"/>
      <point x="803.3333333333334" y="0.0" type="line"/>
      <point x="923.3333333333334" y="0.0" type="line"/>
    </contour>
  </outline>
</glyph>
<glyph name="i" format="2">
  <advance width="383.0"/>
  <unicode hex="0069"/>
  <outline>
    <contour>
      <point x="195.33333333333331" y="1000.0" type="line"/>
      <point x="55.33333333333333" y="0.0" type="line"/>
      <point x="175.33333333333334" y="0.0" type="line"/>
      <point x="315.33333333333337" y="1000.0" type="line"/>
    </contour>
    <contour>
      <point x="291.99999999999994" y="1175.3333333333333" type="curve"/>
      <point x="328.00000000000006" y="1175.3333333333333"/>
      <point x="362.0" y="1206.0"/>
      <point x="366.0" y="1239.0" type="curve"/>
      <point x="372.6666666666667" y="1280.6666666666667"/>
      <point x="341.00000000000006" y="1317.3333333333333"/>
      <point x="299.3333333333333" y="1317.3333333333333" type="curve"/>
      <point x="263.0" y="1317.3333333333333"/>
      <point x="230.66666666666666" y="1287.3333333333333"/>
      <point x="225.66666666666666" y="1252.3333333333333" type="curve"/>
      <point x="220.0" y="1213.3333333333333"/>
      <point x="250.0" y="1175.3333333333333"/>
    </contour>
  </outline>
</glyph>
<glyph name="j" format="2">
  <advance width="474.5"/>
  <unicode hex="006A"/>
  <outline>
    <contour>
      <point x="-221.0" y="-500.0" type="curve"/>
      <point x="6.99999999999999" y="-500.0"/>
      <point x="195.00000000000003" y="-333.3333333333333"/>
      <point x="225.66666666666669" y="-121.33333333333333" type="curve"/>
      <point x="382.6666666666667" y="1000.0" type="line"/>
      <point x="262.66666666666663" y="1000.0" type="line"/>
      <point x="106.33333333333333" y="-114.66666666666667" type="line"/>
      <point x="85.33333333333333" y="-263.33333333333337"/>
      <point x="-52.00000000000001" y="-380.0"/>
      <point x="-203.33333333333334" y="-380.0" type="curve"/>
      <point x="-200.0" y="-380.0"/>
      <point x="-224.0" y="-500.0"/>
    </contour>
    <contour>
      <point x="353.99999999999994" y="1175.3333333333333" type="curve"/>
      <point x="389.3333333333333" y="1175.3333333333333"/>
      <point x="423.6666666666667" y="1203.3333333333333"/>
      <point x="428.0" y="1239.0" type="curve"/>
      <point x="434.6666666666667" y="1281.3333333333335"/>
      <point x="402.3333333333333" y="1317.3333333333333"/>
      <point x="361.3333333333333" y="1317.3333333333333" type="curve"/>
      <point x="325.00000000000006" y="1317.3333333333333"/>
      <point x="292.6666666666667" y="1288.0"/>
      <point x="287.6666666666667" y="1252.3333333333333" type="curve"/>
      <point x="281.6666666666667" y="1210.6666666666665"/>
      <point x="312.00000000000006" y="1175.3333333333333"/>
    </contour>
  </outline>
</glyph>
<glyph name="k" format="2">
  <advance width="987.5"/>
  <unicode hex="006B"/>
  <outline>
    <contour>
      <point x="830.3333333333334" y="0.0" type="line"/>
      <point x="569.3333333333334" y="598.6666666666666" type="line"/>
      <point x="965.0" y="1000.0" type="line"/>
      <point x="806.0" y="1000.0" type="line"/>
      <point x="252.33333333333334" y="434.6666666666667" type="line"/>
      <point x="403.6666666666667" y="1500.0" type="line"/>
      <point x="283.66666666666663" y="1500.0" type="line"/>
      <point x="72.66666666666666" y="0.0" type="line"/>
      <point x="192.66666666666669" y="0.0" type="line"/>
      <point x="228.33333333333334" y="247.33333333333334" type="line"/>
      <point x="477.0" y="500.0" type="line"/>
      <point x="694.6666666666666" y="0.0" type="line"/>
    </contour>
  </outline>
</glyph>
<glyph name="l" format="2">
  <advance width="405.0"/>
  <unicode hex="006C"/>
  <outline>
    <contour>
      <point x="72.66666666666666" y="1.3333333333333333" type="line"/>
      <point x="192.66666666666669" y="1.3333333333333333" type="line"/>
      <point x="403.6666666666667" y="1500.0" type="line"/>
      <point x="283.66666666666663" y="1500.0" type="line"/>
    </contour>
  </outline>
</glyph>
<glyph name="m" format="2">
  <advance width="1705.5"/>
  <unicode hex="006D"/>
  <outline>
    <contour>
      <point x="25.33333333333333" y="0.0" type="line"/>
      <point x="145.33333333333334" y="0.0" type="line"/>
      <point x="218.66666666666669" y="527.3333333333333" type="line" smooth="yes"/>
      <point x="246.0" y="723.3333333333333"/>
      <point x="389.6666666666667" y="902.0"/>
      <point x="559.6666666666667" y="902.0" type="curve" smooth="yes"/>
      <point x="735.6666666666666" y="902.0"/>
      <point x="827.3333333333333" y="745.3333333333334"/>
      <point x="799.6666666666666" y="549.3333333333334" type="curve" smooth="yes"/>
      <point x="722.6666666666666" y="0.0" type="line"/>
      <point x="842.6666666666666" y="0.0" type="line"/>
      <point x="919.0" y="542.0" type="line" smooth="yes"/>
      <point x="946.3333333333333" y="738.0"/>
      <point x="1089.0" y="902.0"/>
      <point x="1272.3333333333333" y="902.0" type="curve" smooth="yes"/>
      <point x="1448.3333333333335" y="902.0"/>
      <point x="1525.3333333333335" y="745.3333333333334"/>
      <point x="1497.0" y="549.3333333333334" type="curve" smooth="yes"/>
      <point x="1420.6666666666667" y="0.0" type="line"/>
      <point x="1540.6666666666667" y="0.0" type="line"/>
      <point x="1616.3333333333335" y="542.0" type="line" smooth="yes"/>
      <point x="1653.0" y="799.3333333333333"/>
      <point x="1530.3333333333333" y="1022.0"/>
      <point x="1275.6666666666665" y="1022.0" type="curve" smooth="yes"/>
      <point x="1111.0" y="1022.0"/>
      <point x="980.3333333333334" y="932.6666666666666"/>
      <point x="887.6666666666666" y="777.3333333333334" type="curve"/>
      <point x="842.6666666666666" y="924.0"/>
      <point x="739.0" y="1022.0"/>
      <point x="563.0000000000001" y="1022.0" type="curve" smooth="yes"/>
      <point x="431.66666666666663" y="1022.0"/>
      <point x="346.0" y="950.3333333333333"/>
      <point x="259.33333333333337" y="833.6666666666666" type="curve"/>
      <point x="285.33333333333337" y="1000.0" type="line"/>
      <point x="165.33333333333331" y="1000.0" type="line"/>
    </contour>
  </outline>
</glyph>
<glyph name="n" format="2">
  <advance width="1082.5"/>
  <unicode hex="006E"/>
  <outline>
    <contour>
      <point x="987.6666666666666" y="538.6666666666666" type="line"/>
      <point x="1021.0" y="799.3333333333334"/>
      <point x="875.0" y="1028.0"/>
      <point x="619.0" y="1028.0" type="curve"/>
      <point x="485.0" y="1028.0"/>
      <point x="359.3333333333333" y="953.6666666666667"/>
      <point x="264.3333333333333" y="826.3333333333334" type="curve"/>
      <point x="290.0" y="1000.0" type="line"/>
      <point x="170.0" y="1000.0" type="line"/>
      <point x="30.0" y="0.0" type="line"/>
      <point x="150.0" y="0.0" type="line"/>
      <point x="225.0" y="534.6666666666666" type="line"/>
      <point x="253.66666666666666" y="739.3333333333334"/>
      <point x="419.0" y="911.3333333333334"/>
      <point x="602.3333333333334" y="911.3333333333334" type="curve"/>
      <point x="780.3333333333334" y="911.3333333333334"/>
      <point x="897.3333333333333" y="746.6666666666667"/>
      <point x="868.3333333333333" y="541.3333333333334" type="curve"/>
      <point x="792.6666666666666" y="0.0" type="line"/>
      <point x="912.6666666666666" y="0.0" type="line"/>
    </contour>
  </outline>
</glyph>
<glyph name="o" format="2">
  <advance width="1120.0"/>
  <unicode hex="006F"/>
  <outline>
    <contour>
      <point x="492.3333333333333" y="-26.0" type="curve" smooth="yes"/>
      <point x="765.3333333333334" y="-26.0"/>
      <point x="1019.0" y="206.66666666666666"/>
      <point x="1059.3333333333333" y="493.6666666666667" type="curve" smooth="yes"/>
      <point x="1101.0" y="788.6666666666666"/>
      <point x="907.0" y="1028.0"/>
      <point x="627.6666666666666" y="1028.0" type="curve" smooth="yes"/>
      <point x="355.0" y="1028.0"/>
      <point x="101.0" y="795.3333333333334"/>
      <point x="60.666666666666664" y="506.3333333333333" type="curve" smooth="yes"/>
      <point x="19.0" y="213.33333333333334"/>
      <point x="213.33333333333334" y="-26.0"/>
    </contour>
    <contour>
      <point x="496.3333333333333" y="94.0" type="curve" smooth="yes"/>
      <point x="293.0" y="94.0"/>
      <point x="147.66666666666666" y="269.3333333333333"/>
      <point x="179.33333333333334" y="493.6666666666667" type="curve" smooth="yes"/>
      <point x="210.33333333333334" y="716.0"/>
      <point x="405.0" y="908.0"/>
      <point x="624.3333333333334" y="908.0" type="curve" smooth="yes"/>
      <point x="833.0" y="908.0"/>
      <point x="972.0" y="724.0"/>
      <point x="940.6666666666666" y="506.3333333333333" type="curve" smooth="yes"/>
      <point x="909.6666666666666" y="285.3333333333333"/>
      <point x="714.3333333333333" y="94.0"/>
    </contour>
  </outline>
</glyph>
<glyph name="p" format="2">
  <advance width="1215.0"/>
  <unicode hex="0070"/>
  <outline>
    <contour>
      <point x="99.0" y="-500.0" type="line"/>
      <point x="199.66666666666666" y="200.0" type="line"/>
      <point x="250.33333333333331" y="65.33333333333333"/>
      <point x="365.0" y="-28.0"/>
      <point x="541.6666666666667" y="-28.0" type="curve"/>
      <point x="828.3333333333334" y="-28.0"/>
      <point x="1093.6666666666665" y="204.66666666666666"/>
      <point x="1134.6666666666665" y="493.6666666666667" type="curve"/>
      <point x="1175.6666666666665" y="786.6666666666666"/>
      <point x="970.0" y="1026.0"/>
      <point x="676.3333333333334" y="1026.0" type="curve"/>
      <point x="507.33333333333337" y="1026.0"/>
      <point x="369.0" y="938.6666666666667"/>
      <point x="281.0" y="804.0" type="curve"/>
      <point x="310.0" y="1000.0" type="line"/>
      <point x="190.0" y="1000.0" type="line"/>
      <point x="-21.0" y="-500.0" type="line"/>
    </contour>
    <contour>
      <point x="672.3333333333334" y="909.3333333333334" type="curve"/>
      <point x="893.0" y="909.3333333333334"/>
      <point x="1045.3333333333335" y="728.0"/>
      <point x="1014.0" y="506.3333333333333" type="curve"/>
      <point x="981.6666666666667" y="272.66666666666663"/>
      <point x="765.6666666666666" y="89.33333333333334"/>
      <point x="543.6666666666666" y="89.33333333333334" type="curve"/>
      <point x="323.0" y="89.33333333333334"/>
      <point x="217.33333333333334" y="271.3333333333333"/>
      <point x="249.33333333333334" y="493.6666666666667" type="curve"/>
      <point x="280.6666666666667" y="724.0"/>
      <point x="447.66666666666663" y="909.3333333333334"/>
    </contour>
  </outline>
</glyph>
<glyph name="q" format="2">
  <advance width="1215.0"/>
  <unicode hex="0071"/>
  <outline>
    <contour>
      <point x="538.3333333333334" y="-28.0" type="curve"/>
      <point x="707.0" y="-28.0"/>
      <point x="845.6666666666667" y="59.33333333333333"/>
      <point x="934.3333333333334" y="194.0" type="curve"/>
      <point x="834.3333333333334" y="-500.0" type="line"/>
      <point x="954.3333333333333" y="-500.0" type="line"/>
      <point x="1165.3333333333333" y="1000.0" type="line"/>
      <point x="1045.3333333333335" y="1000.0" type="line"/>
      <point x="1014.6666666666667" y="798.0" type="line"/>
      <point x="964.0" y="932.6666666666667"/>
      <point x="849.3333333333333" y="1026.0"/>
      <point x="673.6666666666666" y="1026.0" type="curve"/>
      <point x="386.6666666666667" y="1026.0"/>
      <point x="121.0" y="793.3333333333334"/>
      <point x="80.66666666666667" y="506.3333333333333" type="curve"/>
      <point x="39.0" y="211.33333333333334"/>
      <point x="245.0" y="-28.0"/>
    </contour>
    <contour>
      <point x="671.0" y="909.3333333333334" type="curve"/>
      <point x="889.0" y="909.3333333333334"/>
      <point x="998.3333333333334" y="731.3333333333334"/>
      <point x="966.0" y="506.3333333333333" type="curve"/>
      <point x="934.0" y="278.66666666666663"/>
      <point x="771.0" y="89.33333333333334"/>
      <point x="543.0" y="89.33333333333334" type="curve"/>
      <point x="327.6666666666667" y="89.33333333333334"/>
      <point x="169.0" y="265.3333333333333"/>
      <point x="201.33333333333334" y="493.6666666666667" type="curve"/>
      <point x="233.33333333333334" y="721.3333333333333"/>
      <point x="443.0" y="909.3333333333334"/>
    </contour>
  </outline>
</glyph>
<glyph name="r" format="2">
  <advance width="719.5"/>
  <unicode hex="0072"/>
  <outline>
    <contour>
      <point x="727.0" y="887.6666666666667" type="curve"/>
      <point x="758.0" y="1009.6666666666667" type="line"/>
      <point x="724.6666666666666" y="1021.6666666666667"/>
      <point x="685.6666666666666" y="1027.3333333333333"/>
      <point x="640.3333333333334" y="1027.3333333333333" type="curve" smooth="yes"/>
      <point x="506.3333333333333" y="1027.3333333333333"/>
      <point x="379.3333333333333" y="953.0"/>
      <point x="284.3333333333333" y="826.3333333333334" type="curve"/>
      <point x="310.0" y="999.3333333333334" type="line"/>
      <point x="190.0" y="999.3333333333334" type="line"/>
      <point x="50.0" y="0.0" type="line"/>
      <point x="170.66666666666666" y="0.0" type="line"/>
      <point x="245.66666666666666" y="534.0" type="line" smooth="yes"/>
      <point x="274.3333333333333" y="739.3333333333334"/>
      <point x="439.0" y="910.6666666666666"/>
      <point x="623.6666666666667" y="910.6666666666666" type="curve" smooth="yes"/>
      <point x="661.0" y="910.6666666666666"/>
      <point x="697.0" y="903.6666666666667"/>
    </contour>
  </outline>
</glyph>
<glyph name="s" format="2">
  <advance width="877.5"/>
  <unicode hex="0073"/>
  <outline>
    <contour>
      <point x="375.3333333333333" y="-19.333333333333332" type="curve" smooth="yes"/>
      <point x="564.3333333333333" y="-24.0"/>
      <point x="756.6666666666666" y="88.0"/>
      <point x="781.3333333333333" y="262.3333333333333" type="curve" smooth="yes"/>
      <point x="806.3333333333334" y="433.33333333333337"/>
      <point x="645.0" y="501.66666666666663"/>
      <point x="466.0" y="559.6666666666666" type="curve" smooth="yes"/>
      <point x="322.6666666666667" y="609.0"/>
      <point x="219.33333333333334" y="622.6666666666666"/>
      <point x="236.0" y="737.6666666666666" type="curve" smooth="yes"/>
      <point x="252.33333333333334" y="856.6666666666666"/>
      <point x="384.66666666666663" y="927.3333333333334"/>
      <point x="523.9999999999999" y="926.0" type="curve" smooth="yes"/>
      <point x="628.0" y="924.0"/>
      <point x="736.3333333333334" y="872.0"/>
      <point x="761.3333333333334" y="784.6666666666667" type="curve"/>
      <point x="864.3333333333334" y="836.0" type="line"/>
      <point x="822.3333333333334" y="952.6666666666666"/>
      <point x="686.3333333333333" y="1034.0"/>
      <point x="519.3333333333333" y="1034.0" type="curve" smooth="yes"/>
      <point x="332.33333333333337" y="1034.0"/>
      <point x="146.66666666666666" y="924.6666666666667"/>
      <point x="121.33333333333333" y="748.3333333333334" type="curve" smooth="yes"/>
      <point x="97.66666666666666" y="575.3333333333334"/>
      <point x="234.33333333333334" y="513.6666666666666"/>
      <point x="446.0" y="453.0" type="curve" smooth="yes"/>
      <point x="560.6666666666667" y="416.3333333333333"/>
      <point x="684.3333333333333" y="387.3333333333333"/>
      <point x="668.6666666666666" y="274.3333333333333" type="curve" smooth="yes"/>
      <point x="653.3333333333333" y="161.33333333333334"/>
      <point x="519.3333333333333" y="88.66666666666667"/>
      <point x="386.0" y="88.66666666666667" type="curve" smooth="yes"/>
      <point x="275.33333333333337" y="88.66666666666667"/>
      <point x="148.33333333333331" y="151.33333333333331"/>
      <point x="126.66666666666667" y="238.0" type="curve"/>
      <point x="18.666666666666668" y="199.33333333333334" type="line"/>
      <point x="48.99999999999999" y="76.66666666666666"/>
      <point x="206.33333333333331" y="-16.0"/>
    </contour>
  </outline>
</glyph>
<glyph name="t" format="2">
  <advance width="685.0"/>
  <unicode hex="0074"/>
  <outline>
    <contour>
      <point x="681.0" y="880.0" type="line"/>
      <point x="697.0" y="1000.0" type="line"/>
      <point x="449.0" y="1000.0" type="line"/>
      <point x="499.0" y="1366.6666666666667" type="line"/>
      <point x="379.0" y="1366.6666666666667" type="line"/>
      <point x="329.0" y="1000.0" type="line"/>
      <point x="142.33333333333331" y="1000.0" type="line"/>
      <point x="125.66666666666666" y="880.0" type="line"/>
      <point x="313.0" y="880.0" type="line"/>
      <point x="187.33333333333331" y="0.0" type="line"/>
      <point x="307.3333333333333" y="0.0" type="line"/>
      <point x="433.0" y="880.0" type="line"/>
    </contour>
  </outline>
</glyph>
<glyph name="u" format="2">
  <advance width="1122.5"/>
  <unicode hex="0075"/>
  <outline>
    <contour>
      <point x="115.0" y="463.3333333333333" type="line"/>
      <point x="82.0" y="202.0"/>
      <point x="228.66666666666666" y="-26.666666666666668"/>
      <point x="483.6666666666667" y="-26.666666666666668" type="curve"/>
      <point x="618.6666666666667" y="-26.666666666666668"/>
      <point x="744.3333333333334" y="48.33333333333333"/>
      <point x="838.3333333333333" y="175.0" type="curve"/>
      <point x="812.0" y="0.0" type="line"/>
      <point x="932.6666666666666" y="0.0" type="line"/>
      <point x="1072.6666666666665" y="1000.0" type="line"/>
      <point x="952.6666666666666" y="1000.0" type="line"/>
      <point x="877.6666666666666" y="467.3333333333333" type="line"/>
      <point x="849.0" y="262.0"/>
      <point x="683.0" y="91.33333333333334"/>
      <point x="500.3333333333333" y="91.33333333333334" type="curve"/>
      <point x="322.3333333333333" y="91.33333333333334"/>
      <point x="205.66666666666666" y="255.33333333333334"/>
      <point x="234.33333333333334" y="460.6666666666667" type="curve"/>
      <point x="310.0" y="1000.0" type="line"/>
      <point x="190.0" y="1000.0" type="line"/>
    </contour>
  </outline>
</glyph>
<glyph name="v" format="2">
  <advance width="1002.0"/>
  <unicode hex="0076"/>
  <outline>
    <contour>
      <point x="507.3333333333333" y="0.0" type="line"/>
      <point x="1013.6666666666666" y="1003.3333333333334" type="line"/>
      <point x="883.3333333333334" y="1003.3333333333334" type="line"/>
      <point x="448.3333333333333" y="141.33333333333334" type="line"/>
      <point x="257.3333333333333" y="1003.3333333333334" type="line"/>
      <point x="131.66666666666666" y="1003.3333333333334" type="line"/>
      <point x="356.0" y="0.0" type="line"/>
    </contour>
  </outline>
</glyph>
<glyph name="w" format="2">
  <advance width="1610.0"/>
  <unicode hex="0077"/>
  <outline>
    <contour>
      <point x="450.6666666666667" y="0.0" type="line"/>
      <point x="854.3333333333334" y="845.3333333333334" type="line"/>
      <point x="1019.3333333333334" y="0.0" type="line"/>
      <point x="1145.3333333333335" y="0.0" type="line"/>
      <point x="1621.6666666666667" y="1001.3333333333334" type="line"/>
      <point x="1501.3333333333333" y="1001.3333333333334" type="line"/>
      <point x="1101.6666666666667" y="163.33333333333334" type="line"/>
      <point x="939.3333333333334" y="1001.3333333333334" type="line"/>
      <point x="809.3333333333334" y="1001.3333333333334" type="line"/>
      <point x="410.3333333333333" y="163.33333333333334" type="line"/>
      <point x="246.66666666666669" y="1001.3333333333334" type="line"/>
      <point x="131.66666666666666" y="1001.3333333333334" type="line"/>
      <point x="326.0" y="0.0" type="line"/>
    </contour>
  </outline>
</glyph>
<glyph name="x" format="2">
  <advance width="1040.0"/>
  <unicode hex="0078"/>
  <outline>
    <contour>
      <point x="8.333333333333334" y="0.0" type="line"/>
      <point x="158.66666666666666" y="0.0" type="line"/>
      <point x="509.66666666666663" y="401.3333333333333" type="line"/>
      <point x="742.6666666666666" y="0.0" type="line"/>
      <point x="888.3333333333334" y="0.0" type="line"/>
      <point x="594.0" y="502.0" type="line"/>
      <point x="1030.3333333333335" y="1003.3333333333334" type="line"/>
      <point x="880.0" y="1003.3333333333334" type="line"/>
      <point x="532.6666666666666" y="605.3333333333334" type="line"/>
      <point x="298.00000000000006" y="1003.3333333333334" type="line"/>
      <point x="152.33333333333331" y="1003.3333333333334" type="line"/>
      <point x="446.0" y="502.0" type="line"/>
    </contour>
  </outline>
</glyph>
<glyph name="y" format="2">
  <advance width="1011.0"/>
  <unicode hex="0079"/>
  <outline>
    <contour>
      <point x="874.0" y="1000.0" type="line"/>
      <point x="450.33333333333337" y="165.33333333333334" type="line"/>
      <point x="281.33333333333337" y="1000.0" type="line"/>
      <point x="151.66666666666666" y="1000.0" type="line"/>
      <point x="368.6666666666667" y="1.3333333333333333" type="line"/>
      <point x="115.66666666666664" y="-500.0" type="line"/>
      <point x="245.33333333333334" y="-500.0" type="line"/>
      <point x="1002.3333333333334" y="1000.0" type="line"/>
    </contour>
  </outline>
</glyph>
<glyph name="z" format="2">
  <advance width="1064.0"/>
  <unicode hex="007A"/>
  <outline>
    <contour>
      <point x="1013.3333333333334" y="880.0" type="line"/>
      <point x="1029.3333333333335" y="1000.0" type="line"/>
      <point x="175.33333333333331" y="1000.0" type="line"/>
      <point x="158.66666666666666" y="880.0" type="line"/>
      <point x="842.3333333333333" y="880.0" type="line"/>
      <point x="50.666666666666664" y="120.0" type="line"/>
      <point x="35.33333333333333" y="0.0" type="line"/>
      <point x="889.3333333333334" y="0.0" type="line"/>
      <point x="905.3333333333334" y="120.0" type="line"/>
      <point x="221.66666666666666" y="120.0" type="line"/>
    </contour>
  </outline>
</glyph>
<glyph name="braceleft" format="2">
  <advance width="800.0"/>
  <unicode hex="007B"/>
  <outline>
    <contour>
      <point x="549.0" y="-113.33333333333333" type="curve" smooth="yes"/>
      <point x="614.0" y="-113.33333333333333" type="line"/>
      <point x="630.6666666666666" y="6.666666666666668" type="line"/>
      <point x="559.3333333333333" y="6.666666666666668" type="line" smooth="yes"/>
      <point x="432.66666666666663" y="6.666666666666668"/>
      <point x="347.33333333333337" y="106.00000000000001"/>
      <point x="365.0" y="233.33333333333331" type="curve" smooth="yes"/>
      <point x="399.6666666666667" y="483.33333333333337" type="line" smooth="yes"/>
      <point x="407.33333333333337" y="563.3333333333334"/>
      <point x="373.6666666666667" y="573.6666666666666"/>
      <point x="296.66666666666663" y="636.6666666666666" type="curve" smooth="yes"/>
      <point x="391.0" y="703.0"/>
      <point x="429.33333333333337" y="716.6666666666666"/>
      <point x="444.0" y="796.6666666666666" type="curve" smooth="yes"/>
      <point x="479.0" y="1046.6666666666667" type="line" smooth="yes"/>
      <point x="497.33333333333337" y="1173.3333333333333"/>
      <point x="619.9999999999999" y="1280.0"/>
      <point x="746.0" y="1280.0" type="curve" smooth="yes"/>
      <point x="809.3333333333334" y="1280.0" type="line"/>
      <point x="826.0" y="1400.0" type="line"/>
      <point x="755.6666666666666" y="1400.0" type="line" smooth="yes"/>
      <point x="561.6666666666667" y="1400.0"/>
      <point x="387.6666666666667" y="1245.3333333333333"/>
      <point x="360.6666666666667" y="1053.3333333333333" type="curve" smooth="yes"/>
      <point x="325.6666666666667" y="807.3333333333334" type="line" smooth="yes"/>
      <point x="309.0" y="719.3333333333334"/>
      <point x="153.0" y="734.0"/>
      <point x="140.66666666666666" y="649.0" type="curve" smooth="yes"/>
      <point x="128.66666666666666" y="562.0"/>
      <point x="289.3333333333333" y="576.6666666666667"/>
      <point x="280.6666666666667" y="485.3333333333333" type="curve" smooth="yes"/>
      <point x="245.66666666666669" y="240.0" type="line" smooth="yes"/>
      <point x="218.66666666666669" y="47.333333333333336"/>
      <point x="355.0" y="-113.33333333333333"/>
    </contour>
  </outline>
</glyph>
<glyph name="bar" format="2">
  <advance width="400.0"/>
  <unicode hex="007C"/>
  <outline>
    <contour>
      <point x="266.0" y="1400.0" type="line"/>
      <point x="27.0" y="-302.0" type="line"/>
      <point x="147.0" y="-302.0" type="line"/>
      <point x="386.0" y="1400.0" type="line"/>
    </contour>
  </outline>
</glyph>
<glyph name="braceright" format="2">
  <advance width="800.0"/>
  <unicode hex="007D"/>
  <outline>
    <contour>
      <point x="14.0" y="-113.33333333333333" type="line"/>
      <point x="84.33333333333334" y="-113.33333333333333" type="line" smooth="yes"/>
      <point x="278.3333333333333" y="-113.33333333333333"/>
      <point x="453.33333333333337" y="40.666666666666664"/>
      <point x="480.33333333333337" y="233.33333333333331" type="curve" smooth="yes"/>
      <point x="514.3333333333334" y="478.6666666666667" type="line" smooth="yes"/>
      <point x="531.6666666666666" y="569.3333333333334"/>
      <point x="688.0" y="555.3333333333333"/>
      <point x="699.0" y="636.3333333333333" type="curve" smooth="yes"/>
      <point x="712.3333333333334" y="727.3333333333333"/>
      <point x="551.3333333333334" y="712.0"/>
      <point x="559.3333333333334" y="800.6666666666666" type="curve" smooth="yes"/>
      <point x="594.3333333333334" y="1046.6666666666667" type="line" smooth="yes"/>
      <point x="621.3333333333334" y="1238.6666666666667"/>
      <point x="485.0" y="1400.0"/>
      <point x="291.00000000000006" y="1400.0" type="curve" smooth="yes"/>
      <point x="226.0" y="1400.0" type="line"/>
      <point x="209.33333333333334" y="1280.0" type="line"/>
      <point x="280.6666666666667" y="1280.0" type="line" smooth="yes"/>
      <point x="406.0" y="1280.0"/>
      <point x="493.3333333333333" y="1180.6666666666665"/>
      <point x="475.3333333333333" y="1053.3333333333333" type="curve" smooth="yes"/>
      <point x="440.3333333333333" y="803.3333333333334" type="line"/>
      <point x="433.0" y="723.3333333333334"/>
      <point x="469.66666666666663" y="708.3333333333334"/>
      <point x="544.0" y="648.0" type="curve" smooth="yes"/>
      <point x="446.3333333333333" y="579.0"/>
      <point x="411.3333333333333" y="570.6666666666667"/>
      <point x="396.0" y="490.0" type="curve"/>
      <point x="361.0" y="240.0" type="line" smooth="yes"/>
      <point x="343.0" y="113.33333333333334"/>
      <point x="221.33333333333334" y="6.666666666666668"/>
      <point x="94.66666666666667" y="6.666666666666668" type="curve" smooth="yes"/>
      <point x="30.666666666666668" y="6.666666666666668" type="line"/>
    </contour>
  </outline>
</glyph>
<glyph name="asciitilde" format="2">
  <advance width="1208.0"/>
  <unicode hex="007E"/>
  <outline>
    <contour>
      <point x="880.6666666666667" y="428.3333333333333" type="curve" smooth="yes"/>
      <point x="1035.0" y="428.3333333333333"/>
      <point x="1170.0" y="569.6666666666666"/>
      <point x="1151.6666666666667" y="729.0" type="curve"/>
      <point x="1035.3333333333333" y="725.0" type="line"/>
      <point x="1044.3333333333333" y="633.0"/>
      <point x="962.0" y="543.0"/>
      <point x="863.3333333333334" y="543.0" type="curve" smooth="yes"/>
      <point x="718.0" y="543.0"/>
      <point x="528.3333333333334" y="771.6666666666666"/>
      <point x="365.33333333333337" y="771.6666666666666" type="curve" smooth="yes"/>
      <point x="205.0" y="771.6666666666666"/>
      <point x="66.66666666666666" y="619.0"/>
      <point x="83.0" y="468.3333333333333" type="curve"/>
      <point x="200.0" y="469.6666666666667" type="line"/>
      <point x="191.66666666666666" y="564.3333333333333"/>
      <point x="272.0" y="657.0"/>
      <point x="369.3333333333333" y="655.0" type="curve" smooth="yes"/>
      <point x="499.3333333333333" y="657.0"/>
      <point x="710.3333333333334" y="428.3333333333333"/>
    </contour>
  </outline>
</glyph>
<glyph name="exclamdown" format="2">
  <advance width="312.0"/>
  <unicode hex="00A1"/>
  <outline>
    <contour>
      <point x="217.66666666666666" y="1026.0" type="curve"/>
      <point x="181.99999999999997" y="1026.0"/>
      <point x="149.66666666666666" y="998.0"/>
      <point x="144.66666666666666" y="960.3333333333334" type="curve"/>
      <point x="138.66666666666666" y="918.6666666666667"/>
      <point x="168.99999999999997" y="883.3333333333334"/>
      <point x="211.0" y="883.3333333333334" type="curve"/>
      <point x="247.66666666666666" y="883.3333333333334"/>
      <point x="280.0" y="911.3333333333334"/>
      <point x="285.0" y="947.0" type="curve"/>
      <point x="291.0" y="991.3333333333333"/>
      <point x="261.3333333333333" y="1026.0"/>
    </contour>
    <contour>
      <point x="215.0" y="580.0" type="line"/>
      <point x="107.66666666666667" y="580.0" type="line"/>
      <point x="-29.33333333333333" y="-400.0" type="line"/>
      <point x="78.0" y="-400.0" type="line"/>
    </contour>
  </outline>
</glyph>
<glyph name="cent" format="2">
  <advance width="1092.0"/>
  <unicode hex="00A2"/>
  <outline>
    <contour>
      <point x="461.33333333333337" y="0.0" type="line"/>
      <point x="556.6666666666666" y="0.0" type="line"/>
      <point x="588.0" y="201.33333333333334" type="line"/>
      <point x="752.3333333333334" y="214.66666666666669"/>
      <point x="905.0" y="304.3333333333333"/>
      <point x="1004.6666666666666" y="437.6666666666667" type="curve"/>
      <point x="906.3333333333334" y="502.3333333333333" type="line"/>
      <point x="823.0" y="392.3333333333333"/>
      <point x="682.0" y="318.0"/>
      <point x="550.3333333333334" y="318.0" type="curve" smooth="yes"/>
      <point x="346.6666666666667" y="318.0"/>
      <point x="197.66666666666666" y="483.33333333333337"/>
      <point x="227.33333333333334" y="695.6666666666666" type="curve" smooth="yes"/>
      <point x="257.3333333333333" y="909.3333333333333"/>
      <point x="458.0" y="1084.0"/>
      <point x="671.3333333333334" y="1084.0" type="curve" smooth="yes"/>
      <point x="796.6666666666667" y="1084.0"/>
      <point x="914.0" y="1014.3333333333334"/>
      <point x="967.3333333333334" y="904.3333333333334" type="curve"/>
      <point x="1075.3333333333333" y="959.6666666666666" type="line"/>
      <point x="1012.3333333333334" y="1092.3333333333333"/>
      <point x="882.0" y="1186.6666666666665"/>
      <point x="721.6666666666666" y="1199.3333333333333" type="curve"/>
      <point x="753.6666666666666" y="1400.0" type="line"/>
      <point x="657.3333333333334" y="1400.0" type="line"/>
      <point x="627.0" y="1200.6666666666667" type="line"/>
      <point x="369.3333333333333" y="1175.3333333333333"/>
      <point x="145.33333333333334" y="965.3333333333334"/>
      <point x="109.66666666666667" y="708.3333333333334" type="curve" smooth="yes"/>
      <point x="72.33333333333333" y="445.3333333333333"/>
      <point x="243.33333333333334" y="228.0"/>
      <point x="493.33333333333337" y="202.66666666666666" type="curve"/>
    </contour>
  </outline>
</glyph>
<glyph name="sterling" format="2">
  <advance width="1154.0"/>
  <unicode hex="00A3"/>
  <outline>
    <contour>
      <point x="34.0" y="0.0" type="line"/>
      <point x="997.3333333333333" y="0.0" type="line"/>
      <point x="1013.9999999999999" y="120.0" type="line"/>
      <point x="330.6666666666667" y="117.0" type="line"/>
      <point x="401.0" y="147.0"/>
      <point x="481.3333333333333" y="227.33333333333331"/>
      <point x="493.0" y="312.3333333333333" type="curve" smooth="yes"/>
      <point x="543.0" y="660.3333333333334"/>
      <point x="211.66666666666666" y="584.3333333333334"/>
      <point x="259.0" y="923.6666666666666" type="curve" smooth="yes"/>
      <point x="288.6666666666667" y="1133.3333333333335"/>
      <point x="485.66666666666663" y="1306.0"/>
      <point x="696.3333333333334" y="1306.0" type="curve" smooth="yes"/>
      <point x="901.0" y="1306.0"/>
      <point x="1044.3333333333333" y="1140.0"/>
      <point x="1014.6666666666666" y="933.3333333333334" type="curve"/>
      <point x="1134.0" y="926.6666666666666" type="line"/>
      <point x="1172.3333333333333" y="1200.0"/>
      <point x="977.3333333333334" y="1426.0"/>
      <point x="699.6666666666666" y="1426.0" type="curve" smooth="yes"/>
      <point x="429.3333333333333" y="1426.0"/>
      <point x="179.33333333333334" y="1206.6666666666665"/>
      <point x="141.33333333333334" y="936.3333333333334" type="curve" smooth="yes"/>
      <point x="93.66666666666667" y="597.0"/>
      <point x="400.3333333333333" y="620.0"/>
      <point x="377.33333333333337" y="349.0" type="curve" smooth="yes"/>
      <point x="373.3333333333333" y="211.33333333333334"/>
      <point x="204.66666666666666" y="120.0"/>
      <point x="47.333333333333336" y="120.0" type="curve"/>
    </contour>
    <contour>
      <point x="97.0" y="450.0" type="line"/>
      <point x="843.6666666666667" y="450.0" type="line"/>
      <point x="857.3333333333334" y="545.3333333333334" type="line"/>
      <point x="110.66666666666667" y="545.3333333333334" type="line"/>
    </contour>
  </outline>
</glyph>
<glyph name="currency" format="2">
  <advance width="975.0"/>
  <unicode hex="00A4"/>
  <outline>
    <contour>
      <point x="120.00000000000001" y="292.0" type="line"/>
      <point x="262.0" y="417.6666666666667" type="line"/>
      <point x="376.3333333333333" y="315.0"/>
      <point x="552.6666666666666" y="310.3333333333333"/>
      <point x="696.6666666666666" y="412.3333333333333" type="curve"/>
      <point x="802.0" y="292.0" type="line"/>
      <point x="875.3333333333334" y="358.6666666666667" type="line"/>
      <point x="772.6666666666666" y="478.33333333333337" type="line"/>
      <point x="890.3333333333334" y="605.6666666666666"/>
      <point x="912.3333333333334" y="787.6666666666666"/>
      <point x="829.0" y="915.0" type="curve"/>
      <point x="971.3333333333334" y="1042.0" type="line"/>
      <point x="912.3333333333333" y="1108.0" type="line"/>
      <point x="768.3333333333334" y="982.3333333333334" type="line"/>
      <point x="659.0" y="1079.0"/>
      <point x="475.6666666666667" y="1081.0"/>
      <point x="338.3333333333333" y="984.3333333333334" type="curve"/>
      <point x="230.33333333333334" y="1108.0" type="line"/>
      <point x="156.0" y="1042.0" type="line"/>
      <point x="263.33333333333337" y="917.6666666666667" type="line"/>
      <point x="145.0" y="791.0"/>
      <point x="124.0" y="613.0"/>
      <point x="203.0" y="485.66666666666663" type="curve"/>
      <point x="60.0" y="358.6666666666667" type="line"/>
    </contour>
    <contour>
      <point x="472.66666666666663" y="433.3333333333333" type="curve" smooth="yes"/>
      <point x="336.0" y="432.6666666666667"/>
      <point x="232.0" y="545.3333333333333"/>
      <point x="252.33333333333334" y="691.6666666666666" type="curve" smooth="yes"/>
      <point x="273.00000000000006" y="839.3333333333333"/>
      <point x="409.0" y="962.0"/>
      <point x="560.3333333333333" y="961.3333333333334" type="curve" smooth="yes"/>
      <point x="703.0" y="960.6666666666666"/>
      <point x="802.3333333333334" y="850.0"/>
      <point x="782.0" y="705.0" type="curve" smooth="yes"/>
      <point x="761.0" y="554.6666666666667"/>
      <point x="621.3333333333334" y="434.0"/>
    </contour>
  </outline>
</glyph>
<glyph name="yen" format="2">
  <advance width="1209.0"/>
  <unicode hex="00A5"/>
  <outline>
    <contour>
      <point x="474.66666666666663" y="0.0" type="line"/>
      <point x="594.6666666666666" y="0.0" type="line"/>
      <point x="622.6666666666666" y="201.0" type="line"/>
      <point x="926.6666666666666" y="201.0" type="line"/>
      <point x="940.0" y="296.3333333333333" type="line"/>
      <point x="636.0" y="296.3333333333333" type="line"/>
      <point x="660.3333333333333" y="467.0" type="line"/>
      <point x="964.3333333333333" y="467.0" type="line"/>
      <point x="977.0" y="562.3333333333334" type="line"/>
      <point x="673.0" y="562.3333333333334" type="line"/>
      <point x="684.6666666666666" y="634.6666666666666" type="line"/>
      <point x="1261.6666666666667" y="1400.0" type="line"/>
      <point x="1118.0000000000002" y="1400.0" type="line"/>
      <point x="639.0" y="765.3333333333334" type="line"/>
      <point x="341.3333333333333" y="1400.0" type="line"/>
      <point x="202.99999999999997" y="1400.0" type="line"/>
      <point x="564.6666666666666" y="634.6666666666666" type="line"/>
      <point x="553.0" y="562.3333333333334" type="line"/>
      <point x="249.0" y="562.3333333333334" type="line"/>
      <point x="236.33333333333331" y="467.0" type="line"/>
      <point x="540.3333333333333" y="467.0" type="line"/>
      <point x="516.0" y="296.3333333333333" type="line"/>
      <point x="212.0" y="296.3333333333333" type="line"/>
      <point x="198.66666666666666" y="201.0" type="line"/>
      <point x="502.66666666666663" y="201.0" type="line"/>
    </contour>
  </outline>
</glyph>
<glyph name="brokenbar" format="2">
  <advance width="360.0"/>
  <unicode hex="00A6"/>
  <outline>
    <contour>
      <point x="113.0" y="448.0" type="line"/>
      <point x="7.0" y="-302.0" type="line"/>
      <point x="127.0" y="-302.0" type="line"/>
      <point x="233.0" y="448.0" type="line"/>
    </contour>
    <contour>
      <point x="246.0" y="1400.0" type="line"/>
      <point x="141.0" y="650.0" type="line"/>
      <point x="261.0" y="650.0" type="line"/>
      <point x="366.0" y="1400.0" type="line"/>
    </contour>
  </outline>
</glyph>
<glyph name="section" format="2">
  <advance width="1071.0"/>
  <unicode hex="00A7"/>
  <outline>
    <contour>
      <point x="423.6666666666667" y="-407.3333333333333" type="curve" smooth="yes"/>
      <point x="611.3333333333334" y="-407.3333333333333"/>
      <point x="797.0" y="-297.3333333333333"/>
      <point x="821.6666666666667" y="-121.66666666666666" type="curve" smooth="yes"/>
      <point x="840.0" y="10.0"/>
      <point x="772.0" y="88.66666666666667"/>
      <point x="618.3333333333334" y="118.33333333333333" type="curve"/>
      <point x="790.0" y="170.0"/>
      <point x="926.6666666666667" y="323.33333333333337"/>
      <point x="949.6666666666667" y="492.33333333333337" type="curve" smooth="yes"/>
      <point x="985.0" y="744.0"/>
      <point x="839.3333333333334" y="880.0"/>
      <point x="592.3333333333334" y="934.3333333333334" type="curve" smooth="yes"/>
      <point x="443.0" y="970.0"/>
      <point x="346.3333333333333" y="996.0"/>
      <point x="362.66666666666663" y="1110.3333333333333" type="curve" smooth="yes"/>
      <point x="379.0" y="1229.3333333333333"/>
      <point x="512.3333333333334" y="1300.0"/>
      <point x="651.6666666666666" y="1299.3333333333335" type="curve" smooth="yes"/>
      <point x="755.0" y="1297.3333333333333"/>
      <point x="864.0" y="1244.6666666666665"/>
      <point x="889.0" y="1158.0" type="curve"/>
      <point x="991.3333333333333" y="1208.6666666666667" type="line"/>
      <point x="949.0" y="1326.0"/>
      <point x="813.3333333333334" y="1407.3333333333333"/>
      <point x="647.0" y="1407.3333333333333" type="curve" smooth="yes"/>
      <point x="459.3333333333333" y="1407.3333333333333"/>
      <point x="274.3333333333333" y="1297.3333333333333"/>
      <point x="249.0" y="1121.6666666666665" type="curve" smooth="yes"/>
      <point x="230.66666666666666" y="988.6666666666667"/>
      <point x="298.00000000000006" y="910.0"/>
      <point x="452.3333333333333" y="881.0" type="curve"/>
      <point x="277.66666666666663" y="827.3333333333334"/>
      <point x="144.66666666666666" y="674.0"/>
      <point x="120.66666666666667" y="505.0" type="curve" smooth="yes"/>
      <point x="86.33333333333333" y="264.66666666666663"/>
      <point x="236.00000000000003" y="114.0"/>
      <point x="477.6666666666667" y="66.33333333333333" type="curve" smooth="yes"/>
      <point x="625.3333333333334" y="32.666666666666664"/>
      <point x="724.3333333333334" y="4.666666666666667"/>
      <point x="708.6666666666666" y="-110.33333333333333" type="curve" smooth="yes"/>
      <point x="691.6666666666666" y="-229.33333333333334"/>
      <point x="559.0" y="-300.0"/>
      <point x="418.99999999999994" y="-299.33333333333337" type="curve" smooth="yes"/>
      <point x="315.66666666666663" y="-297.3333333333333"/>
      <point x="207.33333333333334" y="-244.66666666666669"/>
      <point x="182.33333333333334" y="-158.0" type="curve"/>
      <point x="79.33333333333333" y="-208.66666666666666" type="line"/>
      <point x="122.33333333333333" y="-326.0"/>
      <point x="257.3333333333333" y="-407.3333333333333"/>
    </contour>
    <contour>
      <point x="488.6666666666667" y="192.66666666666666" type="curve" smooth="yes"/>
      <point x="332.66666666666663" y="192.66666666666666"/>
      <point x="205.33333333333331" y="322.0"/>
      <point x="229.0" y="492.33333333333337" type="curve" smooth="yes"/>
      <point x="253.66666666666666" y="666.6666666666666"/>
      <point x="413.3333333333333" y="807.3333333333334"/>
      <point x="580.0" y="807.3333333333334" type="curve" smooth="yes"/>
      <point x="735.3333333333333" y="807.3333333333334"/>
      <point x="867.3333333333333" y="693.3333333333334"/>
      <point x="840.3333333333333" y="500.3333333333333" type="curve" smooth="yes"/>
      <point x="817.0" y="335.3333333333333"/>
      <point x="658.0" y="192.66666666666666"/>
    </contour>
  </outline>
</glyph>
<glyph name="copyright" format="2">
  <advance width="1783.5"/>
  <unicode hex="00A9"/>
  <outline>
    <contour>
      <point x="800.6666666666667" y="-197.33333333333334" type="curve" smooth="yes"/>
      <point x="1245.3333333333333" y="-197.33333333333334"/>
      <point x="1655.6666666666665" y="162.66666666666666"/>
      <point x="1718.6666666666665" y="608.3333333333333" type="curve" smooth="yes"/>
      <point x="1782.3333333333333" y="1060.0"/>
      <point x="1466.6666666666667" y="1426.0"/>
      <point x="1015.0" y="1426.0" type="curve" smooth="yes"/>
      <point x="569.3333333333333" y="1426.0"/>
      <point x="159.66666666666666" y="1066.6666666666665"/>
      <point x="97.0" y="621.0" type="curve" smooth="yes"/>
      <point x="34.0" y="169.33333333333334"/>
      <point x="348.66666666666663" y="-197.33333333333334"/>
    </contour>
    <contour>
      <point x="803.6666666666667" y="-77.33333333333333" type="curve" smooth="yes"/>
      <point x="432.3333333333333" y="-77.33333333333333"/>
      <point x="161.0" y="221.33333333333334"/>
      <point x="215.33333333333334" y="608.3333333333333" type="curve" smooth="yes"/>
      <point x="269.3333333333333" y="989.3333333333333"/>
      <point x="624.3333333333334" y="1303.3333333333333"/>
      <point x="1011.6666666666667" y="1306.0" type="curve" smooth="yes"/>
      <point x="1386.6666666666665" y="1309.3333333333333"/>
      <point x="1654.3333333333333" y="1001.3333333333334"/>
      <point x="1601.0" y="621.0" type="curve" smooth="yes"/>
      <point x="1547.0" y="243.33333333333334"/>
      <point x="1195.0" y="-77.33333333333333"/>
    </contour>
    <component base="c" xOffset="356.6666666666667" yOffset="114.66666666666667"/>
  </outline>
</glyph>
<glyph name="logicalnot" format="2">
  <advance width="963.0"/>
  <unicode hex="00AC"/>
  <outline>
    <contour>
      <point x="737.6666666666667" y="320.3333333333333" type="line"/>
      <point x="857.6666666666667" y="320.3333333333333" type="line"/>
      <point x="936.3333333333334" y="880.3333333333334" type="line"/>
      <point x="133.0" y="880.3333333333334" type="line"/>
      <point x="117.0" y="760.3333333333334" type="line"/>
      <point x="799.6666666666667" y="760.3333333333334" type="line"/>
    </contour>
  </outline>
</glyph>
<glyph name="registered" format="2">
  <advance width="970.5"/>
  <unicode hex="00AE"/>
  <outline>
    <contour>
      <point x="488.3333333333333" y="475.3333333333333" type="curve" smooth="yes"/>
      <point x="720.0" y="476.6666666666667"/>
      <point x="934.3333333333333" y="665.3333333333334"/>
      <point x="966.0" y="894.3333333333333" type="curve" smooth="yes"/>
      <point x="998.3333333333333" y="1122.6666666666667"/>
      <point x="838.3333333333334" y="1325.3333333333333"/>
      <point x="594.3333333333333" y="1325.3333333333333" type="curve" smooth="yes"/>
      <point x="361.6666666666667" y="1325.3333333333333"/>
      <point x="149.33333333333334" y="1135.3333333333333"/>
      <point x="117.66666666666667" y="907.0" type="curve" smooth="yes"/>
      <point x="84.33333333333333" y="673.3333333333334"/>
      <point x="248.0" y="476.6666666666667"/>
    </contour>
    <contour>
      <point x="489.0" y="572.6666666666666" type="curve" smooth="yes"/>
      <point x="311.3333333333333" y="572.6666666666666"/>
      <point x="188.33333333333334" y="716.6666666666666"/>
      <point x="213.33333333333334" y="894.3333333333333" type="curve" smooth="yes"/>
      <point x="238.33333333333334" y="1077.3333333333335"/>
      <point x="410.66666666666663" y="1228.0"/>
      <point x="593.9999999999999" y="1228.0" type="curve" smooth="yes"/>
      <point x="771.3333333333334" y="1228.0"/>
      <point x="895.3333333333334" y="1084.0"/>
      <point x="870.3333333333334" y="907.0" type="curve" smooth="yes"/>
      <point x="844.3333333333334" y="723.3333333333334"/>
      <point x="672.0" y="572.6666666666666"/>
    </contour>
    <contour>
      <point x="395.3333333333333" y="710.0" type="line"/>
      <point x="468.0" y="710.0" type="line"/>
      <point x="491.0" y="870.6666666666666" type="line"/>
      <point x="520.3333333333333" y="870.6666666666666" type="line"/>
      <point x="591.6666666666666" y="710.0" type="line"/>
      <point x="672.3333333333333" y="710.0" type="line"/>
      <point x="601.3333333333334" y="876.0" type="line"/>
      <point x="650.6666666666667" y="889.3333333333333"/>
      <point x="685.3333333333334" y="931.3333333333334"/>
      <point x="692.6666666666667" y="980.3333333333334" type="curve" smooth="yes"/>
      <point x="702.0" y="1049.3333333333333"/>
      <point x="657.3333333333334" y="1105.3333333333333"/>
      <point x="594.6666666666667" y="1105.3333333333333" type="curve" smooth="yes"/>
      <point x="451.0" y="1105.3333333333333" type="line"/>
    </contour>
    <contour>
      <point x="500.33333333333337" y="943.3333333333334" type="line"/>
      <point x="513.0000000000001" y="1032.6666666666667" type="line"/>
      <point x="591.6666666666667" y="1032.6666666666667" type="line" smooth="yes"/>
      <point x="613.0" y="1032.6666666666667"/>
      <point x="624.6666666666666" y="1016.0"/>
      <point x="621.3333333333333" y="993.6666666666667" type="curve" smooth="yes"/>
      <point x="618.3333333333333" y="966.6666666666667"/>
      <point x="594.0" y="943.3333333333334"/>
      <point x="572.0" y="943.3333333333334" type="curve" smooth="yes"/>
    </contour>
  </outline>
</glyph>
<glyph name="macron" format="2">
  <advance width="1200.0"/>
  <unicode hex="00AF"/>
  <outline>
    <contour>
      <point x="382.0" y="1352.0" type="line"/>
      <point x="365.0" y="1232.0" type="line"/>
      <point x="1041.0" y="1232.0" type="line"/>
      <point x="1058.0" y="1352.0" type="line"/>
    </contour>
  </outline>
</glyph>
<glyph name="degree" format="2">
  <advance width="664.5"/>
  <unicode hex="00B0"/>
  <outline>
    <contour>
      <point x="385.33333333333337" y="828.0" type="curve" smooth="yes"/>
      <point x="519.3333333333334" y="828.0"/>
      <point x="645.3333333333333" y="935.3333333333333"/>
      <point x="665.0" y="1073.6666666666667" type="curve" smooth="yes"/>
      <point x="684.6666666666666" y="1213.3333333333335"/>
      <point x="587.6666666666666" y="1332.0"/>
      <point x="442.33333333333337" y="1332.0" type="curve" smooth="yes"/>
      <point x="306.3333333333333" y="1332.0"/>
      <point x="181.66666666666666" y="1221.3333333333333"/>
      <point x="162.66666666666666" y="1086.3333333333333" type="curve" smooth="yes"/>
      <point x="143.0" y="947.3333333333334"/>
      <point x="240.66666666666669" y="828.0"/>
    </contour>
    <contour>
      <point x="389.33333333333337" y="948.0" type="curve" smooth="yes"/>
      <point x="318.33333333333337" y="948.0"/>
      <point x="271.0" y="1002.6666666666666"/>
      <point x="280.3333333333333" y="1073.6666666666667" type="curve" smooth="yes"/>
      <point x="292.0" y="1150.6666666666667"/>
      <point x="362.0" y="1212.0"/>
      <point x="439.0" y="1212.0" type="curve" smooth="yes"/>
      <point x="509.3333333333333" y="1212.0"/>
      <point x="556.6666666666667" y="1157.3333333333333"/>
      <point x="547.3333333333334" y="1086.3333333333333" type="curve" smooth="yes"/>
      <point x="535.6666666666667" y="1009.3333333333334"/>
      <point x="465.6666666666667" y="948.0"/>
    </contour>
  </outline>
</glyph>
<glyph name="plusminus" format="2">
  <advance width="1160.0"/>
  <unicode hex="00B1"/>
  <outline>
    <contour>
      <point x="495.3333333333333" y="325.3333333333333" type="line"/>
      <point x="615.3333333333334" y="325.3333333333333" type="line"/>
      <point x="677.3333333333334" y="765.3333333333334" type="line"/>
      <point x="1117.3333333333333" y="765.3333333333334" type="line"/>
      <point x="1134.0" y="885.3333333333334" type="line"/>
      <point x="694.0" y="885.3333333333334" type="line"/>
      <point x="755.3333333333334" y="1325.3333333333333" type="line"/>
      <point x="635.3333333333334" y="1325.3333333333333" type="line"/>
      <point x="574.0" y="885.3333333333334" type="line"/>
      <point x="134.0" y="885.3333333333334" type="line"/>
      <point x="117.33333333333333" y="765.3333333333334" type="line"/>
      <point x="557.3333333333334" y="765.3333333333334" type="line"/>
    </contour>
    <contour>
      <point x="10.0" y="1.3333333333333333" type="line"/>
      <point x="1010.0" y="1.3333333333333333" type="line"/>
      <point x="1026.6666666666667" y="121.33333333333334" type="line"/>
      <point x="26.666666666666668" y="121.33333333333334" type="line"/>
    </contour>
  </outline>
</glyph>
<glyph name="twosuperior" format="2">
  <advance width="684.25"/>
  <unicode hex="00B2"/>
  <outline>
    <contour>
      <point x="141.0" y="818.0" type="line"/>
      <point x="582.3333333333334" y="818.0" type="line"/>
      <point x="595.6666666666667" y="914.0" type="line"/>
      <point x="324.6666666666667" y="911.6666666666666" type="line"/>
      <point x="450.3333333333333" y="993.6666666666666"/>
      <point x="630.0" y="1137.3333333333333"/>
      <point x="645.6666666666666" y="1250.3333333333335" type="curve"/>
      <point x="663.3333333333334" y="1375.3333333333333"/>
      <point x="573.9999999999999" y="1468.0"/>
      <point x="449.0" y="1468.0" type="curve"/>
      <point x="328.00000000000006" y="1468.0"/>
      <point x="220.0" y="1382.6666666666665"/>
      <point x="203.33333333333334" y="1260.0" type="curve"/>
      <point x="297.6666666666667" y="1253.3333333333335" type="line"/>
      <point x="307.3333333333333" y="1323.0"/>
      <point x="375.6666666666667" y="1375.3333333333333"/>
      <point x="449.0" y="1375.3333333333333" type="curve"/>
      <point x="515.0" y="1375.3333333333333"/>
      <point x="561.0" y="1330.3333333333333"/>
      <point x="550.6666666666666" y="1263.0" type="curve"/>
      <point x="515.0" y="1139.6666666666665"/>
      <point x="263.0" y="980.6666666666667"/>
      <point x="151.33333333333334" y="912.3333333333334" type="curve"/>
    </contour>
  </outline>
</glyph>
<glyph name="threesuperior" format="2">
  <advance width="552.0"/>
  <unicode hex="00B3"/>
  <outline>
    <contour>
      <point x="325.3333333333333" y="798.0" type="curve" smooth="yes"/>
      <point x="433.66666666666663" y="798.0"/>
      <point x="532.0" y="874.3333333333334"/>
      <point x="548.0" y="985.6666666666666" type="curve" smooth="yes"/>
      <point x="559.0" y="1061.6666666666667"/>
      <point x="535.6666666666666" y="1105.6666666666667"/>
      <point x="489.3333333333333" y="1146.3333333333333" type="curve"/>
      <point x="530.3333333333334" y="1171.6666666666667"/>
      <point x="564.0000000000001" y="1228.3333333333335"/>
      <point x="571.3333333333334" y="1282.6666666666667" type="curve" smooth="yes"/>
      <point x="587.0000000000001" y="1390.0"/>
      <point x="509.0" y="1466.6666666666667"/>
      <point x="400.6666666666667" y="1466.6666666666667" type="curve" smooth="yes"/>
      <point x="300.6666666666667" y="1466.6666666666667"/>
      <point x="209.33333333333331" y="1397.3333333333333"/>
      <point x="195.33333333333331" y="1292.3333333333333" type="curve"/>
      <point x="289.6666666666667" y="1285.6666666666667" type="line"/>
      <point x="297.33333333333337" y="1336.3333333333335"/>
      <point x="347.6666666666667" y="1373.3333333333333"/>
      <point x="401.6666666666667" y="1373.3333333333333" type="curve" smooth="yes"/>
      <point x="448.33333333333337" y="1373.3333333333333"/>
      <point x="483.6666666666667" y="1343.0"/>
      <point x="477.0" y="1295.3333333333333" type="curve" smooth="yes"/>
      <point x="468.33333333333337" y="1231.0"/>
      <point x="415.0" y="1188.3333333333333"/>
      <point x="328.00000000000006" y="1188.3333333333333" type="curve"/>
      <point x="323.00000000000006" y="1108.3333333333333" type="line"/>
      <point x="419.3333333333333" y="1108.3333333333333"/>
      <point x="463.3333333333333" y="1064.3333333333333"/>
      <point x="454.3333333333333" y="998.3333333333334" type="curve" smooth="yes"/>
      <point x="445.0" y="935.3333333333334"/>
      <point x="388.3333333333333" y="891.3333333333334"/>
      <point x="325.3333333333333" y="891.3333333333334" type="curve" smooth="yes"/>
      <point x="266.3333333333333" y="891.3333333333334"/>
      <point x="228.0" y="928.0"/>
      <point x="236.66666666666666" y="988.6666666666666" type="curve"/>
      <point x="142.33333333333334" y="995.3333333333334" type="line"/>
      <point x="125.66666666666667" y="881.6666666666667"/>
      <point x="209.66666666666669" y="798.0"/>
    </contour>
  </outline>
</glyph>
<glyph name="paragraph" format="2">
  <advance width="818.0"/>
  <unicode hex="00B6"/>
  <outline>
    <contour>
      <point x="307.0" y="-302.0" type="line"/>
      <point x="427.0" y="-302.0" type="line"/>
      <point x="666.0" y="1400.0" type="line"/>
      <point x="543.0" y="1400.0" type="line" smooth="yes"/>
      <point x="355.0" y="1400.0"/>
      <point x="185.0" y="1250.0"/>
      <point x="159.66666666666666" y="1065.0" type="curve" smooth="yes"/>
      <point x="132.0" y="873.3333333333334"/>
      <point x="266.0" y="718.0"/>
      <point x="454.0" y="718.0" type="curve"/>
    </contour>
    <contour>
      <point x="505.0" y="-302.0" type="line"/>
      <point x="625.0" y="-302.0" type="line"/>
      <point x="864.0" y="1400.0" type="line"/>
      <point x="744.0" y="1400.0" type="line"/>
    </contour>
  </outline>
</glyph>
<glyph name="periodcentered" format="2">
  <advance width="302.5"/>
  <unicode hex="00B7"/>
  <outline>
    <contour>
      <point x="161.0" y="529.0" type="curve" smooth="yes"/>
      <point x="197.66666666666666" y="529.0"/>
      <point x="230.0" y="557.0"/>
      <point x="236.0" y="594.0" type="curve" smooth="yes"/>
      <point x="241.0" y="635.6666666666666"/>
      <point x="211.66666666666666" y="671.0"/>
      <point x="167.66666666666666" y="671.0" type="curve" smooth="yes"/>
      <point x="132.33333333333331" y="671.0"/>
      <point x="100.0" y="643.0"/>
      <point x="95.0" y="607.3333333333334" type="curve" smooth="yes"/>
      <point x="89.0" y="563.6666666666667"/>
      <point x="118.33333333333333" y="529.0"/>
    </contour>
  </outline>
</glyph>
<glyph name="onesuperior" format="2">
  <advance width="417.25"/>
  <unicode hex="00B9"/>
  <outline>
    <contour>
      <point x="222.0" y="818.0" type="line"/>
      <point x="318.0" y="818.0" type="line"/>
      <point x="406.0" y="1449.0" type="line"/>
      <point x="242.33333333333331" y="1449.0" type="line"/>
      <point x="215.66666666666666" y="1353.0" type="line"/>
      <point x="297.3333333333333" y="1353.0" type="line"/>
    </contour>
  </outline>
</glyph>
<glyph name="questiondown" format="2">
  <advance width="954.0"/>
  <unicode hex="00BF"/>
  <outline>
    <contour>
      <point x="348.3333333333333" y="-427.3333333333333" type="curve" smooth="yes"/>
      <point x="561.0" y="-427.3333333333333"/>
      <point x="758.0" y="-255.33333333333334"/>
      <point x="788.0" y="-39.333333333333336" type="curve"/>
      <point x="669.0" y="-32.666666666666664" type="line"/>
      <point x="647.6666666666666" y="-182.0"/>
      <point x="504.6666666666667" y="-307.3333333333333"/>
      <point x="352.3333333333333" y="-307.3333333333333" type="curve" smooth="yes"/>
      <point x="205.33333333333334" y="-307.3333333333333"/>
      <point x="103.0" y="-189.33333333333334"/>
      <point x="124.0" y="-42.333333333333336" type="curve" smooth="yes"/>
      <point x="138.66666666666666" y="63.99999999999999"/>
      <point x="206.66666666666666" y="157.66666666666669"/>
      <point x="301.0" y="202.66666666666666" type="curve" smooth="yes"/>
      <point x="420.6666666666667" y="267.0"/>
      <point x="501.0" y="380.33333333333337"/>
      <point x="519.0" y="506.6666666666667" type="curve"/>
      <point x="399.6666666666667" y="513.3333333333334" type="line"/>
      <point x="388.0" y="428.66666666666663"/>
      <point x="329.0" y="352.0"/>
      <point x="248.33333333333334" y="314.66666666666663" type="curve" smooth="yes"/>
      <point x="118.0" y="247.0"/>
      <point x="26.0" y="115.33333333333334"/>
      <point x="5.666666666666667" y="-29.666666666666668" type="curve" smooth="yes"/>
      <point x="-25.0" y="-248.66666666666666"/>
      <point x="128.33333333333334" y="-427.3333333333333"/>
    </contour>
    <contour>
      <point x="525.6666666666667" y="883.3333333333334" type="curve" smooth="yes"/>
      <point x="560.9999999999999" y="883.3333333333334"/>
      <point x="593.3333333333334" y="911.3333333333334"/>
      <point x="597.6666666666667" y="947.0" type="curve" smooth="yes"/>
      <point x="604.3333333333334" y="991.3333333333333"/>
      <point x="573.9999999999999" y="1026.0"/>
      <point x="532.3333333333334" y="1026.0" type="curve" smooth="yes"/>
      <point x="495.33333333333337" y="1026.0"/>
      <point x="463.0" y="998.0"/>
      <point x="458.0" y="960.3333333333334" type="curve" smooth="yes"/>
      <point x="451.3333333333333" y="918.6666666666667"/>
      <point x="481.6666666666667" y="883.3333333333334"/>
    </contour>
  </outline>
</glyph>
<glyph name="AE" format="2">
  <advance width="1607.3333333333333"/>
  <unicode hex="00C6"/>
  <outline>
    <contour>
      <point x="8.333333333333334" y="0.0" type="line"/>
      <point x="138.0" y="0.0" type="line"/>
      <point x="294.6666666666667" y="310.0" type="line"/>
      <point x="774.6666666666667" y="310.0" type="line"/>
      <point x="731.3333333333334" y="0.0" type="line"/>
      <point x="1438.0" y="0.0" type="line"/>
      <point x="1454.6666666666667" y="120.0" type="line"/>
      <point x="867.3333333333334" y="120.0" type="line"/>
      <point x="940.6666666666667" y="640.0" type="line"/>
      <point x="1432.0" y="640.0" type="line"/>
      <point x="1448.0" y="760.0" type="line"/>
      <point x="957.3333333333334" y="760.0" type="line"/>
      <point x="1030.6666666666667" y="1280.0" type="line"/>
      <point x="1617.3333333333333" y="1280.0" type="line"/>
      <point x="1634.0" y="1400.0" type="line"/>
      <point x="715.3333333333334" y="1400.0" type="line"/>
    </contour>
    <contour>
      <point x="355.33333333333337" y="430.0" type="line"/>
      <point x="786.3333333333334" y="1280.0" type="line"/>
      <point x="910.6666666666667" y="1280.0" type="line"/>
      <point x="791.3333333333334" y="430.0" type="line"/>
    </contour>
  </outline>
</glyph>
<glyph name="Eth" format="2">
  <advance width="1455.3333333333333"/>
  <unicode hex="00D0"/>
  <outline>
    <contour>
      <point x="162.0" y="0.0" type="line"/>
      <point x="627.6666666666666" y="0.0" type="line" smooth="yes"/>
      <point x="1013.6666666666667" y="0.0"/>
      <point x="1368.6666666666667" y="310.6666666666667"/>
      <point x="1422.6666666666667" y="693.6666666666666" type="curve" smooth="yes"/>
      <point x="1476.6666666666667" y="1082.6666666666667"/>
      <point x="1204.3333333333335" y="1400.0"/>
      <point x="818.3333333333333" y="1400.0" type="curve" smooth="yes"/>
      <point x="358.00000000000006" y="1400.0" type="line"/>
      <point x="275.00000000000006" y="810.0" type="line"/>
      <point x="143.66666666666666" y="810.0" type="line"/>
      <point x="127.66666666666667" y="690.0" type="line"/>
      <point x="258.33333333333337" y="690.0" type="line"/>
    </contour>
    <contour>
      <point x="298.0" y="120.0" type="line"/>
      <point x="378.3333333333333" y="690.0" type="line"/>
      <point x="736.3333333333334" y="690.0" type="line"/>
      <point x="753.0" y="810.0" type="line"/>
      <point x="395.0" y="810.0" type="line"/>
      <point x="461.3333333333333" y="1280.0" type="line"/>
      <point x="808.6666666666666" y="1280.0" type="line" smooth="yes"/>
      <point x="1121.3333333333335" y="1280.0"/>
      <point x="1349.6666666666667" y="1028.6666666666665"/>
      <point x="1304.3333333333335" y="706.3333333333334" type="curve" smooth="yes"/>
      <point x="1260.0" y="389.3333333333333"/>
      <point x="963.3333333333334" y="120.0"/>
      <point x="638.0" y="120.0" type="curve" smooth="yes"/>
    </contour>
  </outline>
</glyph>
<glyph name="multiply" format="2">
  <advance width="952.0"/>
  <unicode hex="00D7"/>
  <outline>
    <contour>
      <point x="125.66666666666666" y="204.66666666666666" type="line"/>
      <point x="479.0" y="515.3333333333334" type="line"/>
      <point x="747.0" y="204.66666666666666" type="line"/>
      <point x="842.3333333333334" y="289.3333333333333" type="line"/>
      <point x="573.3333333333334" y="600.0" type="line"/>
      <point x="930.3333333333334" y="911.3333333333334" type="line"/>
      <point x="853.0" y="995.3333333333334" type="line"/>
      <point x="499.0" y="684.6666666666666" type="line"/>
      <point x="231.66666666666666" y="995.3333333333334" type="line"/>
      <point x="138.33333333333334" y="911.3333333333334" type="line"/>
      <point x="404.6666666666667" y="600.0" type="line"/>
      <point x="50.333333333333336" y="289.3333333333333" type="line"/>
    </contour>
  </outline>
</glyph>
<glyph name="Oslash" format="2">
  <advance width="1540.0"/>
  <unicode hex="00D8"/>
  <outline>
    <contour>
      <point x="313.3333333333333" y="-77.33333333333333" type="line"/>
      <point x="407.0" y="53.0" type="line"/>
      <point x="491.3333333333333" y="4.333333333333333"/>
      <point x="590.0" y="-26.0"/>
      <point x="702.3333333333334" y="-26.0" type="curve" smooth="yes"/>
      <point x="1079.3333333333333" y="-26.0"/>
      <point x="1432.0" y="296.6666666666667"/>
      <point x="1487.3333333333333" y="693.6666666666666" type="curve" smooth="yes"/>
      <point x="1521.0" y="937.3333333333333"/>
      <point x="1437.0" y="1151.0"/>
      <point x="1284.3333333333333" y="1282.3333333333335" type="curve"/>
      <point x="1383.0" y="1417.3333333333333" type="line"/>
      <point x="1285.3333333333333" y="1477.3333333333333" type="line"/>
      <point x="1191.0" y="1347.6666666666665" type="line"/>
      <point x="1107.3333333333333" y="1397.0"/>
      <point x="1008.0" y="1426.0"/>
      <point x="893.6666666666666" y="1426.0" type="curve" smooth="yes"/>
      <point x="516.6666666666666" y="1426.0"/>
      <point x="165.0" y="1103.3333333333333"/>
      <point x="109.0" y="706.3333333333334" type="curve" smooth="yes"/>
      <point x="75.0" y="464.66666666666663"/>
      <point x="161.0" y="250.33333333333334"/>
      <point x="313.6666666666667" y="118.33333333333333" type="curve"/>
      <point x="215.0" y="-17.333333333333332" type="line"/>
    </contour>
    <contour>
      <point x="385.0" y="223.0" type="line"/>
      <point x="263.3333333333333" y="330.3333333333333"/>
      <point x="200.66666666666666" y="502.6666666666667"/>
      <point x="227.33333333333334" y="693.6666666666666" type="curve" smooth="yes"/>
      <point x="273.3333333333333" y="1025.3333333333335"/>
      <point x="569.0000000000001" y="1306.0"/>
      <point x="890.3333333333334" y="1306.0" type="curve" smooth="yes"/>
      <point x="975.0" y="1306.0"/>
      <point x="1055.6666666666665" y="1284.3333333333333"/>
      <point x="1123.3333333333335" y="1244.3333333333333" type="curve"/>
    </contour>
    <contour>
      <point x="706.3333333333334" y="94.0" type="curve" smooth="yes"/>
      <point x="623.0" y="94.0"/>
      <point x="542.3333333333334" y="115.66666666666667"/>
      <point x="474.66666666666663" y="156.33333333333334" type="curve"/>
      <point x="1214.0" y="1178.3333333333333" type="line"/>
      <point x="1333.3333333333333" y="1069.6666666666665"/>
      <point x="1395.3333333333333" y="897.3333333333334"/>
      <point x="1369.0" y="706.3333333333334" type="curve" smooth="yes"/>
      <point x="1322.6666666666667" y="375.3333333333333"/>
      <point x="1027.0" y="94.0"/>
    </contour>
  </outline>
</glyph>
<glyph name="Thorn" format="2">
  <advance width="1035.0"/>
  <unicode hex="00DE"/>
  <outline>
    <contour>
      <point x="50.0" y="0.0" type="line"/>
      <point x="170.0" y="0.0" type="line"/>
      <point x="211.33333333333334" y="293.3333333333333" type="line"/>
      <point x="532.6666666666666" y="293.3333333333333" type="line" smooth="yes"/>
      <point x="748.6666666666666" y="293.3333333333333"/>
      <point x="950.6666666666667" y="465.33333333333337"/>
      <point x="982.6666666666667" y="693.6666666666666" type="curve" smooth="yes"/>
      <point x="1015.3333333333334" y="925.3333333333334"/>
      <point x="863.0" y="1107.3333333333333"/>
      <point x="640.3333333333334" y="1107.3333333333333" type="curve" smooth="yes"/>
      <point x="325.3333333333333" y="1107.3333333333333" type="line"/>
      <point x="366.0" y="1400.0" type="line"/>
      <point x="246.0" y="1400.0" type="line"/>
    </contour>
    <contour>
      <point x="227.33333333333334" y="413.3333333333333" type="line"/>
      <point x="310.0" y="998.0" type="line"/>
      <point x="623.3333333333334" y="998.0" type="line" smooth="yes"/>
      <point x="780.0" y="998.0"/>
      <point x="888.0" y="876.6666666666667"/>
      <point x="865.0" y="712.3333333333334" type="curve" smooth="yes"/>
      <point x="841.0" y="541.3333333333334"/>
      <point x="691.0" y="413.3333333333333"/>
      <point x="534.3333333333334" y="413.3333333333333" type="curve" smooth="yes"/>
    </contour>
  </outline>
</glyph>
<glyph name="germandbls" format="2">
  <advance width="1054.0"/>
  <unicode hex="00DF"/>
  <outline>
    <contour>
      <point x="50.0" y="0.0" type="line"/>
      <point x="170.0" y="0.0" type="line"/>
      <point x="307.0" y="979.3333333333334" type="line" smooth="yes"/>
      <point x="331.3333333333333" y="1149.3333333333335"/>
      <point x="491.0" y="1289.3333333333333"/>
      <point x="664.3333333333333" y="1289.3333333333333" type="curve" smooth="yes"/>
      <point x="799.0" y="1289.3333333333333"/>
      <point x="893.6666666666667" y="1172.6666666666665"/>
      <point x="873.0" y="1027.6666666666667" type="curve" smooth="yes"/>
      <point x="852.3333333333334" y="876.6666666666667"/>
      <point x="718.0" y="756.0"/>
      <point x="579.3333333333333" y="752.6666666666666" type="curve" smooth="yes"/>
      <point x="554.3333333333334" y="751.3333333333334" type="line"/>
      <point x="540.3333333333334" y="646.0" type="line"/>
      <point x="634.0" y="645.3333333333334" type="line" smooth="yes"/>
      <point x="784.0" y="643.3333333333334"/>
      <point x="886.0" y="528.6666666666667"/>
      <point x="866.3333333333333" y="384.3333333333333" type="curve" smooth="yes"/>
      <point x="845.3333333333333" y="233.33333333333334"/>
      <point x="702.0" y="108.66666666666667"/>
      <point x="552.0" y="108.66666666666667" type="curve" smooth="yes"/>
      <point x="465.6666666666667" y="108.66666666666667" type="line"/>
      <point x="474.66666666666663" y="0.0" type="line"/>
      <point x="551.0" y="0.0" type="line" smooth="yes"/>
      <point x="757.6666666666667" y="0.0"/>
      <point x="946.0" y="160.66666666666666"/>
      <point x="975.3333333333334" y="365.6666666666667" type="curve" smooth="yes"/>
      <point x="997.0" y="522.6666666666666"/>
      <point x="929.6666666666666" y="675.3333333333334"/>
      <point x="781.0" y="713.0" type="curve"/>
      <point x="898.3333333333334" y="771.6666666666667"/>
      <point x="974.3333333333334" y="892.0"/>
      <point x="991.3333333333334" y="1014.3333333333334" type="curve" smooth="yes"/>
      <point x="1021.6666666666667" y="1227.3333333333333"/>
      <point x="880.3333333333334" y="1398.6666666666667"/>
      <point x="675.0" y="1398.6666666666667" type="curve" smooth="yes"/>
      <point x="437.0" y="1398.6666666666667"/>
      <point x="219.0" y="1206.0"/>
      <point x="186.0" y="966.6666666666667" type="curve" smooth="yes"/>
    </contour>
  </outline>
</glyph>
<glyph name="ae" format="2">
  <advance width="1884.75"/>
  <unicode hex="00E6"/>
  <outline>
    <contour>
      <point x="403.0" y="-6.666666666666667" type="curve" smooth="yes"/>
      <point x="518.3333333333333" y="-6.666666666666667" type="line" smooth="yes"/>
      <point x="677.6666666666666" y="-6.666666666666667"/>
      <point x="815.6666666666667" y="92.0"/>
      <point x="877.6666666666666" y="238.66666666666666" type="curve"/>
      <point x="941.0" y="95.0"/>
      <point x="1080.3333333333335" y="-6.666666666666667"/>
      <point x="1261.0" y="-6.666666666666667" type="curve" smooth="yes"/>
      <point x="1457.0" y="-6.666666666666667"/>
      <point x="1645.3333333333333" y="114.0"/>
      <point x="1750.3333333333333" y="292.0" type="curve"/>
      <point x="1629.0" y="326.3333333333333" type="line"/>
      <point x="1542.3333333333333" y="195.0"/>
      <point x="1409.3333333333333" y="113.33333333333334"/>
      <point x="1264.3333333333333" y="113.33333333333334" type="curve" smooth="yes"/>
      <point x="1071.3333333333333" y="114.0"/>
      <point x="939.3333333333334" y="263.3333333333333"/>
      <point x="946.3333333333334" y="469.33333333333337" type="curve"/>
      <point x="1817.6666666666665" y="469.33333333333337" type="line"/>
      <point x="1874.6666666666667" y="799.3333333333334"/>
      <point x="1693.3333333333333" y="1047.3333333333333"/>
      <point x="1396.3333333333333" y="1047.3333333333333" type="curve" smooth="yes"/>
      <point x="1213.3333333333333" y="1047.3333333333333"/>
      <point x="1038.3333333333333" y="940.0"/>
      <point x="934.6666666666667" y="776.6666666666666" type="curve"/>
      <point x="914.0" y="930.0"/>
      <point x="835.3333333333334" y="1047.3333333333333"/>
      <point x="606.3333333333334" y="1047.3333333333333" type="curve" smooth="yes"/>
      <point x="461.3333333333333" y="1047.3333333333333"/>
      <point x="300.00000000000006" y="1014.3333333333334"/>
      <point x="201.33333333333334" y="878.3333333333334" type="curve"/>
      <point x="299.00000000000006" y="812.3333333333334" type="line"/>
      <point x="363.3333333333333" y="899.6666666666666"/>
      <point x="483.0" y="934.6666666666666"/>
      <point x="603.6666666666667" y="934.6666666666666" type="curve" smooth="yes"/>
      <point x="849.6666666666667" y="934.6666666666666"/>
      <point x="848.6666666666667" y="777.3333333333334"/>
      <point x="836.0" y="576.0" type="curve"/>
      <point x="416.0" y="572.6666666666666" type="line" smooth="yes"/>
      <point x="240.66666666666666" y="572.6666666666666"/>
      <point x="82.0" y="516.0"/>
      <point x="49.00000000000001" y="331.0" type="curve" smooth="yes"/>
      <point x="19.66666666666666" y="102.0"/>
      <point x="196.99999999999997" y="-6.666666666666667"/>
    </contour>
    <contour>
      <point x="461.0" y="83.33333333333333" type="curve" smooth="yes"/>
      <point x="281.3333333333333" y="83.33333333333333"/>
      <point x="141.66666666666669" y="134.0"/>
      <point x="163.33333333333334" y="309.6666666666667" type="curve" smooth="yes"/>
      <point x="186.0" y="438.0"/>
      <point x="297.6666666666667" y="472.6666666666667"/>
      <point x="451.6666666666667" y="472.6666666666667" type="curve" smooth="yes"/>
      <point x="819.6666666666666" y="472.6666666666667" type="line"/>
      <point x="806.6666666666666" y="377.3333333333333" type="line" smooth="yes"/>
      <point x="797.3333333333334" y="312.66666666666663"/>
      <point x="746.6666666666667" y="83.33333333333333"/>
    </contour>
    <contour>
      <point x="959.3333333333333" y="569.3333333333333" type="line"/>
      <point x="1006.6666666666667" y="772.0"/>
      <point x="1190.3333333333333" y="937.3333333333334"/>
      <point x="1393.6666666666665" y="937.3333333333334" type="curve" smooth="yes"/>
      <point x="1589.0" y="937.3333333333334"/>
      <point x="1726.3333333333333" y="773.3333333333334"/>
      <point x="1712.0" y="576.0" type="curve"/>
    </contour>
  </outline>
</glyph>
<glyph name="igrave" format="2">
  <advance width="371.66666666666663"/>
  <unicode hex="00EC"/>
  <outline>
    <contour>
      <point x="201.0" y="1000.0" type="line"/>
      <point x="60.99999999999999" y="0.0" type="line"/>
      <point x="181.00000000000003" y="0.0" type="line"/>
      <point x="321.0" y="1000.0" type="line"/>
    </contour>
    <component base="grave" xOffset="-301.6666666666667"/>
  </outline>
</glyph>
<glyph name="icircumflex" format="2">
  <advance width="348.0"/>
  <unicode hex="00EE"/>
  <outline>
    <contour>
      <point x="184.33333333333334" y="1000.0" type="line"/>
      <point x="44.333333333333336" y="0.0" type="line"/>
      <point x="164.33333333333331" y="0.0" type="line"/>
      <point x="304.3333333333333" y="1000.0" type="line"/>
    </contour>
    <component base="circumflexcomb" xOffset="-378.3333333333333"/>
  </outline>
</glyph>
<glyph name="eth" format="2">
  <advance width="1124.5"/>
  <unicode hex="00F0"/>
  <outline>
    <contour>
      <point x="511.66666666666663" y="1057.3333333333333" type="line"/>
      <point x="1007.6666666666666" y="1487.3333333333333" type="line"/>
      <point x="947.6666666666666" y="1554.6666666666667" type="line"/>
      <point x="450.0" y="1125.3333333333333" type="line"/>
    </contour>
    <component base="partialdiff"/>
  </outline>
</glyph>
<glyph name="divide" format="2">
  <advance width="1160.0"/>
  <unicode hex="00F7"/>
  <outline>
    <contour>
      <point x="86.0" y="540.0" type="line"/>
      <point x="1086.0" y="540.0" type="line"/>
      <point x="1102.0" y="660.0" type="line"/>
      <point x="102.0" y="660.0" type="line"/>
    </contour>
    <contour>
      <point x="652.3333333333334" y="1060.6666666666667" type="curve"/>
      <point x="598.3333333333334" y="1060.6666666666667"/>
      <point x="555.0000000000001" y="1015.3333333333334"/>
      <point x="548.3333333333334" y="968.3333333333334" type="curve"/>
      <point x="540.3333333333334" y="911.3333333333334"/>
      <point x="577.0" y="864.0"/>
      <point x="637.6666666666666" y="864.0" type="curve"/>
      <point x="686.3333333333334" y="864.0"/>
      <point x="733.0" y="904.6666666666666"/>
      <point x="739.3333333333334" y="955.0" type="curve"/>
      <point x="747.3333333333334" y="1008.6666666666666"/>
      <point x="707.6666666666666" y="1060.6666666666667"/>
    </contour>
    <contour>
      <point x="550.3333333333334" y="334.6666666666667" type="curve"/>
      <point x="496.00000000000006" y="334.6666666666667"/>
      <point x="453.0" y="291.3333333333333"/>
      <point x="446.33333333333337" y="242.33333333333334" type="curve"/>
      <point x="438.33333333333337" y="185.33333333333334"/>
      <point x="475.6666666666667" y="139.33333333333334"/>
      <point x="536.3333333333334" y="139.33333333333334" type="curve"/>
      <point x="584.3333333333334" y="139.33333333333334"/>
      <point x="634.0" y="178.66666666666666"/>
      <point x="640.6666666666667" y="229.0" type="curve"/>
      <point x="648.6666666666667" y="284.0"/>
      <point x="605.3333333333334" y="334.6666666666667"/>
    </contour>
  </outline>
</glyph>
<glyph name="oslash" format="2">
  <advance width="1120.0"/>
  <unicode hex="00F8"/>
  <outline>
    <contour>
      <point x="226.33333333333331" y="-51.333333333333336" type="line"/>
      <point x="284.33333333333337" y="28.333333333333332" type="line"/>
      <point x="343.0" y="-4.333333333333333"/>
      <point x="413.3333333333333" y="-26.0"/>
      <point x="492.3333333333333" y="-26.0" type="curve" smooth="yes"/>
      <point x="765.3333333333334" y="-26.0"/>
      <point x="1019.0" y="206.66666666666666"/>
      <point x="1059.3333333333333" y="493.6666666666667" type="curve" smooth="yes"/>
      <point x="1083.6666666666667" y="669.3333333333334"/>
      <point x="1025.3333333333335" y="822.3333333333333"/>
      <point x="919.3333333333334" y="918.3333333333333" type="curve"/>
      <point x="982.3333333333334" y="1002.6666666666666" type="line"/>
      <point x="895.6666666666666" y="1055.3333333333333" type="line"/>
      <point x="836.0" y="975.6666666666667" type="line"/>
      <point x="779.3333333333333" y="1008.3333333333334"/>
      <point x="709.0" y="1028.0"/>
      <point x="627.6666666666666" y="1028.0" type="curve" smooth="yes"/>
      <point x="355.0" y="1028.0"/>
      <point x="101.0" y="795.3333333333334"/>
      <point x="60.666666666666664" y="506.3333333333333" type="curve" smooth="yes"/>
      <point x="36.333333333333336" y="334.0"/>
      <point x="95.99999999999999" y="181.0"/>
      <point x="203.00000000000003" y="85.0" type="curve"/>
      <point x="140.0" y="1.333333333333334" type="line"/>
    </contour>
    <contour>
      <point x="271.0" y="183.66666666666669" type="line"/>
      <point x="195.0" y="254.99999999999997"/>
      <point x="155.33333333333334" y="365.3333333333333"/>
      <point x="172.66666666666666" y="489.0" type="curve" smooth="yes"/>
      <point x="214.0" y="789.3333333333333"/>
      <point x="538.3333333333334" y="1001.0"/>
      <point x="773.3333333333334" y="879.0" type="curve"/>
    </contour>
    <contour>
      <point x="347.66666666666663" y="124.33333333333334" type="curve"/>
      <point x="851.3333333333334" y="819.6666666666667" type="line"/>
      <point x="926.3333333333334" y="747.0"/>
      <point x="964.6666666666666" y="634.6666666666667"/>
      <point x="947.3333333333334" y="511.00000000000006" type="curve" smooth="yes"/>
      <point x="906.3333333333334" y="217.33333333333334"/>
      <point x="592.3333333333334" y="-1.0"/>
    </contour>
  </outline>
</glyph>
<glyph name="thorn" format="2">
  <advance width="1215.0"/>
  <unicode hex="00FE"/>
  <outline>
    <contour>
      <point x="-21.0" y="-500.0" type="line"/>
      <point x="99.0" y="-500.0" type="line"/>
      <point x="199.66666666666666" y="200.0" type="line"/>
      <point x="250.33333333333331" y="65.33333333333333"/>
      <point x="365.0" y="-28.0"/>
      <point x="541.6666666666667" y="-28.0" type="curve" smooth="yes"/>
      <point x="828.3333333333334" y="-28.0"/>
      <point x="1093.6666666666665" y="204.66666666666666"/>
      <point x="1134.6666666666665" y="493.6666666666667" type="curve" smooth="yes"/>
      <point x="1175.6666666666665" y="786.6666666666666"/>
      <point x="970.0" y="1026.0"/>
      <point x="676.3333333333334" y="1026.0" type="curve" smooth="yes"/>
      <point x="507.33333333333337" y="1026.0"/>
      <point x="369.0" y="938.6666666666667"/>
      <point x="281.0" y="804.0" type="curve"/>
      <point x="366.0" y="1400.0" type="line"/>
      <point x="246.0" y="1400.0" type="line"/>
    </contour>
    <contour>
      <point x="543.6666666666666" y="89.33333333333334" type="curve" smooth="yes"/>
      <point x="323.0" y="89.33333333333334"/>
      <point x="217.33333333333334" y="271.3333333333333"/>
      <point x="249.33333333333334" y="493.6666666666667" type="curve" smooth="yes"/>
      <point x="280.6666666666667" y="724.0"/>
      <point x="447.66666666666663" y="909.3333333333334"/>
      <point x="672.3333333333334" y="909.3333333333334" type="curve" smooth="yes"/>
      <point x="893.0" y="909.3333333333334"/>
      <point x="1045.3333333333335" y="728.0"/>
      <point x="1014.0" y="506.3333333333333" type="curve" smooth="yes"/>
      <point x="981.6666666666667" y="272.66666666666663"/>
      <point x="765.6666666666666" y="89.33333333333334"/>
    </contour>
  </outline>
</glyph>
<glyph name="idotless" format="2">
  <advance width="360.6666666666667"/>
  <unicode hex="0131"/>
  <outline>
    <contour>
      <point x="190.0" y="1000.0" type="line"/>
      <point x="50.0" y="0.0" type="line"/>
      <point x="170.0" y="0.0" type="line"/>
      <point x="310.0" y="1000.0" type="line"/>
    </contour>
  </outline>
</glyph>
<glyph name="OE" format="2">
  <advance width="2178.5"/>
  <unicode hex="0152"/>
  <outline>
    <contour>
      <point x="702.3333333333334" y="-26.0" type="curve" smooth="yes"/>
      <point x="946.0" y="-26.0"/>
      <point x="1180.6666666666667" y="116.66666666666666"/>
      <point x="1319.0" y="326.0" type="curve"/>
      <point x="1270.6666666666665" y="0.0" type="line"/>
      <point x="2008.6666666666665" y="0.0" type="line"/>
      <point x="2025.3333333333333" y="120.0" type="line"/>
      <point x="1407.3333333333333" y="120.0" type="line"/>
      <point x="1480.6666666666665" y="640.0" type="line"/>
      <point x="2002.0" y="640.0" type="line"/>
      <point x="2018.6666666666667" y="760.0" type="line"/>
      <point x="1497.3333333333333" y="760.0" type="line"/>
      <point x="1570.6666666666665" y="1280.0" type="line"/>
      <point x="2188.0" y="1280.0" type="line"/>
      <point x="2204.6666666666665" y="1400.0" type="line"/>
      <point x="1467.3333333333333" y="1400.0" type="line"/>
      <point x="1419.0" y="1068.0" type="line"/>
      <point x="1339.3333333333333" y="1278.0"/>
      <point x="1143.3333333333333" y="1426.0"/>
      <point x="893.6666666666666" y="1426.0" type="curve" smooth="yes"/>
      <point x="516.6666666666666" y="1426.0"/>
      <point x="165.0" y="1103.3333333333333"/>
      <point x="109.0" y="706.3333333333334" type="curve" smooth="yes"/>
      <point x="52.0" y="303.3333333333333"/>
      <point x="319.3333333333333" y="-26.0"/>
    </contour>
    <contour>
      <point x="706.3333333333334" y="94.0" type="curve" smooth="yes"/>
      <point x="395.0" y="94.0"/>
      <point x="180.66666666666666" y="363.3333333333333"/>
      <point x="227.33333333333334" y="693.6666666666666" type="curve" smooth="yes"/>
      <point x="273.3333333333333" y="1025.3333333333335"/>
      <point x="569.0000000000001" y="1306.0"/>
      <point x="890.3333333333334" y="1306.0" type="curve" smooth="yes"/>
      <point x="1201.0" y="1306.0"/>
      <point x="1415.3333333333333" y="1035.3333333333333"/>
      <point x="1369.0" y="706.3333333333334" type="curve" smooth="yes"/>
      <point x="1322.6666666666667" y="375.3333333333333"/>
      <point x="1027.0" y="94.0"/>
    </contour>
  </outline>
</glyph>
<glyph name="oe" format="2">
  <advance width="1998.5"/>
  <unicode hex="0153"/>
  <outline>
    <contour>
      <point x="492.3333333333333" y="-26.0" type="curve" smooth="yes"/>
      <point x="685.3333333333334" y="-26.0"/>
      <point x="870.3333333333334" y="93.33333333333334"/>
      <point x="972.0" y="271.3333333333333" type="curve"/>
      <point x="1020.3333333333333" y="99.33333333333334"/>
      <point x="1173.3333333333333" y="-26.0"/>
      <point x="1372.3333333333333" y="-26.0" type="curve" smooth="yes"/>
      <point x="1569.3333333333333" y="-26.0"/>
      <point x="1756.6666666666667" y="94.66666666666667"/>
      <point x="1861.6666666666667" y="272.6666666666667" type="curve"/>
      <point x="1741.3333333333335" y="307.0" type="line"/>
      <point x="1653.6666666666665" y="175.66666666666669"/>
      <point x="1521.6666666666667" y="94.0"/>
      <point x="1376.3333333333333" y="94.0" type="curve" smooth="yes"/>
      <point x="1183.6666666666667" y="94.66666666666667"/>
      <point x="1051.3333333333333" y="244.0"/>
      <point x="1057.6666666666667" y="449.3333333333333" type="curve"/>
      <point x="1930.0" y="449.3333333333333" type="line"/>
      <point x="1986.0" y="780.0"/>
      <point x="1805.0" y="1028.0"/>
      <point x="1507.6666666666667" y="1028.0" type="curve" smooth="yes"/>
      <point x="1315.0" y="1028.0"/>
      <point x="1130.6666666666665" y="908.6666666666667"/>
      <point x="1028.0" y="729.3333333333334" type="curve"/>
      <point x="979.6666666666667" y="902.6666666666667"/>
      <point x="827.0" y="1028.0"/>
      <point x="627.6666666666666" y="1028.0" type="curve" smooth="yes"/>
      <point x="355.0" y="1028.0"/>
      <point x="101.0" y="795.3333333333334"/>
      <point x="60.666666666666664" y="506.3333333333333" type="curve" smooth="yes"/>
      <point x="19.0" y="213.33333333333334"/>
      <point x="213.33333333333334" y="-26.0"/>
    </contour>
    <contour>
      <point x="496.3333333333333" y="94.0" type="curve" smooth="yes"/>
      <point x="293.0" y="94.0"/>
      <point x="147.66666666666666" y="269.3333333333333"/>
      <point x="179.33333333333334" y="493.6666666666667" type="curve" smooth="yes"/>
      <point x="210.33333333333334" y="716.0"/>
      <point x="405.0" y="908.0"/>
      <point x="624.3333333333334" y="908.0" type="curve" smooth="yes"/>
      <point x="833.0" y="908.0"/>
      <point x="972.0" y="724.0"/>
      <point x="940.6666666666666" y="506.3333333333333" type="curve" smooth="yes"/>
      <point x="909.6666666666666" y="285.3333333333333"/>
      <point x="714.3333333333333" y="94.0"/>
    </contour>
    <contour>
      <point x="1070.6666666666665" y="549.3333333333334" type="line"/>
      <point x="1118.0" y="752.6666666666666"/>
      <point x="1301.6666666666667" y="918.0"/>
      <point x="1505.0" y="918.0" type="curve" smooth="yes"/>
      <point x="1700.3333333333335" y="918.0"/>
      <point x="1838.3333333333333" y="753.3333333333334"/>
      <point x="1824.3333333333333" y="556.6666666666667" type="curve"/>
    </contour>
  </outline>
</glyph>
<glyph name="caron" format="2">
  <advance width="547.0"/>
  <unicode hex="02C7"/>
  <outline>
    <contour>
      <point x="316.00000000000006" y="1166.0" type="line"/>
      <point x="421.3333333333333" y="1166.0" type="line"/>
      <point x="554.3333333333333" y="1400.0" type="line"/>
      <point x="467.3333333333333" y="1400.0" type="line"/>
      <point x="376.0" y="1238.6666666666667" type="line"/>
      <point x="331.33333333333337" y="1400.0" type="line"/>
      <point x="247.66666666666666" y="1400.0" type="line"/>
    </contour>
  </outline>
</glyph>
<glyph name="breve" format="2">
  <advance width="1144.0"/>
  <unicode hex="02D8"/>
  <outline>
    <contour>
      <point x="667.3333333333334" y="1128.0" type="curve" smooth="yes"/>
      <point x="842.0" y="1128.0"/>
      <point x="1012.0" y="1269.3333333333333"/>
      <point x="1039.0" y="1456.6666666666667" type="curve"/>
      <point x="949.0" y="1463.3333333333333" type="line"/>
      <point x="930.6666666666666" y="1329.3333333333333"/>
      <point x="801.6666666666666" y="1218.0"/>
      <point x="666.3333333333334" y="1218.0" type="curve" smooth="yes"/>
      <point x="542.3333333333334" y="1218.0"/>
      <point x="444.6666666666667" y="1317.3333333333333"/>
      <point x="465.0" y="1456.6666666666667" type="curve"/>
      <point x="375.0" y="1463.3333333333333" type="line"/>
      <point x="350.0" y="1281.3333333333333"/>
      <point x="482.0" y="1128.0"/>
    </contour>
  </outline>
</glyph>
<glyph name="ogonek" format="2">
  <advance width="1098.0"/>
  <unicode hex="02DB"/>
  <outline>
    <contour>
      <point x="496.66666666666663" y="-375.3333333333333" type="curve" smooth="yes"/>
      <point x="546.6666666666666" y="-375.3333333333333" type="line"/>
      <point x="561.0" y="-276.0" type="line"/>
      <point x="503.00000000000006" y="-276.0" type="line" smooth="yes"/>
      <point x="366.33333333333337" y="-276.0"/>
      <point x="268.0" y="-162.66666666666669"/>
      <point x="287.3333333333333" y="-26.0" type="curve" smooth="yes"/>
      <point x="299.3333333333333" y="62.0" type="line"/>
      <point x="200.0" y="62.0" type="line"/>
      <point x="189.0" y="-18.000000000000004" type="line" smooth="yes"/>
      <point x="161.33333333333334" y="-213.33333333333334"/>
      <point x="300.6666666666667" y="-375.3333333333333"/>
    </contour>
  </outline>
</glyph>
<glyph name="acutecomb" format="2">
  <unicode hex="0301"/>
  <outline>
    <contour>
      <point x="569.0" y="1138.0" type="line"/>
      <point x="626.0" y="1138.0" type="line"/>
      <point x="811.6666666666666" y="1426.0" type="line"/>
      <point x="689.3333333333334" y="1426.0" type="line"/>
    </contour>
  </outline>
</glyph>
<glyph name="circumflexcomb" format="2">
  <unicode hex="0302"/>
  <outline>
    <contour>
      <point x="627.3333333333333" y="1400.0" type="line"/>
      <point x="492.3333333333333" y="1166.0" type="line"/>
      <point x="579.9999999999999" y="1166.0" type="line"/>
      <point x="672.6666666666666" y="1327.3333333333333" type="line"/>
      <point x="716.0" y="1166.0" type="line"/>
      <point x="799.6666666666667" y="1166.0" type="line"/>
      <point x="732.6666666666667" y="1400.0" type="line"/>
    </contour>
  </outline>
</glyph>
<glyph name="tildecomb" format="2">
  <unicode hex="0303"/>
  <outline>
    <contour>
      <point x="886.6666666666667" y="1284.0" type="curve" smooth="yes"/>
      <point x="995.3333333333334" y="1284.0"/>
      <point x="1079.0000000000002" y="1387.3333333333335"/>
      <point x="1058.6666666666667" y="1498.6666666666667" type="curve"/>
      <point x="972.0" y="1478.0" type="line"/>
      <point x="980.0" y="1444.6666666666665"/>
      <point x="947.0" y="1375.3333333333333"/>
      <point x="898.3333333333334" y="1375.3333333333333" type="curve" smooth="yes"/>
      <point x="830.3333333333333" y="1375.3333333333333"/>
      <point x="698.0" y="1520.0"/>
      <point x="593.9999999999999" y="1520.0" type="curve" smooth="yes"/>
      <point x="484.6666666666667" y="1520.0"/>
      <point x="403.3333333333333" y="1414.6666666666665"/>
      <point x="425.0" y="1308.6666666666665" type="curve"/>
      <point x="510.3333333333333" y="1325.3333333333335" type="line"/>
      <point x="504.3333333333333" y="1377.3333333333335"/>
      <point x="542.3333333333334" y="1420.6666666666667"/>
      <point x="582.0000000000001" y="1424.6666666666667" type="curve" smooth="yes"/>
      <point x="655.0" y="1438.0"/>
      <point x="784.0" y="1284.0"/>
    </contour>
  </outline>
</glyph>
<glyph name="dotaccentcomb" format="2">
  <unicode hex="0307"/>
  <outline>
    <contour>
      <point x="578.0000000000001" y="1203.3333333333333" type="curve" smooth="yes"/>
      <point x="613.3333333333333" y="1203.3333333333333"/>
      <point x="645.6666666666667" y="1229.3333333333333"/>
      <point x="650.6666666666667" y="1267.6666666666667" type="curve" smooth="yes"/>
      <point x="656.6666666666667" y="1311.3333333333335"/>
      <point x="626.3333333333333" y="1344.6666666666667"/>
      <point x="584.6666666666667" y="1344.6666666666667" type="curve" smooth="yes"/>
      <point x="546.3333333333333" y="1344.6666666666667"/>
      <point x="515.0" y="1318.0"/>
      <point x="509.6666666666667" y="1280.3333333333333" type="curve" smooth="yes"/>
      <point x="503.0" y="1236.6666666666665"/>
      <point x="533.3333333333333" y="1203.3333333333333"/>
    </contour>
  </outline>
</glyph>
<glyph name="dieresiscomb" format="2">
  <unicode hex="0308"/>
  <outline>
    <contour>
      <point x="579.3333333333334" y="1203.3333333333333" type="curve" smooth="yes"/>
      <point x="615.3333333333334" y="1203.3333333333333"/>
      <point x="649.0" y="1229.3333333333333"/>
      <point x="653.3333333333334" y="1267.6666666666667" type="curve" smooth="yes"/>
      <point x="660.0" y="1309.3333333333333"/>
      <point x="628.6666666666667" y="1346.0"/>
      <point x="586.0" y="1346.0" type="curve" smooth="yes"/>
      <point x="548.6666666666666" y="1346.0"/>
      <point x="514.6666666666666" y="1316.6666666666665"/>
      <point x="509.6666666666667" y="1280.3333333333333" type="curve" smooth="yes"/>
      <point x="503.0" y="1236.6666666666665"/>
      <point x="535.3333333333333" y="1203.3333333333333"/>
    </contour>
    <contour>
      <point x="878.6666666666667" y="1203.3333333333333" type="curve" smooth="yes"/>
      <point x="914.0" y="1203.3333333333333"/>
      <point x="947.6666666666667" y="1229.3333333333333"/>
      <point x="952.6666666666667" y="1267.6666666666667" type="curve" smooth="yes"/>
      <point x="958.6666666666667" y="1309.3333333333333"/>
      <point x="928.0" y="1346.0"/>
      <point x="885.3333333333334" y="1346.0" type="curve" smooth="yes"/>
      <point x="848.0" y="1346.0"/>
      <point x="813.3333333333334" y="1316.6666666666665"/>
      <point x="808.3333333333334" y="1280.3333333333333" type="curve" smooth="yes"/>
      <point x="802.3333333333334" y="1236.6666666666665"/>
      <point x="834.0" y="1203.3333333333333"/>
    </contour>
  </outline>
</glyph>
<glyph name="ringcomb" format="2">
  <unicode hex="030A"/>
  <outline>
    <contour>
      <point x="648.6666666666667" y="1127.3333333333333" type="curve" smooth="yes"/>
      <point x="729.3333333333334" y="1127.3333333333333"/>
      <point x="804.3333333333334" y="1192.6666666666667"/>
      <point x="815.6666666666667" y="1276.3333333333335" type="curve" smooth="yes"/>
      <point x="828.0" y="1361.3333333333333"/>
      <point x="766.6666666666666" y="1435.3333333333333"/>
      <point x="678.0" y="1435.3333333333333" type="curve" smooth="yes"/>
      <point x="597.3333333333333" y="1435.3333333333333"/>
      <point x="522.3333333333334" y="1368.6666666666665"/>
      <point x="510.6666666666667" y="1289.0" type="curve" smooth="yes"/>
      <point x="498.3333333333333" y="1201.3333333333333"/>
      <point x="560.6666666666666" y="1127.3333333333333"/>
    </contour>
    <contour>
      <point x="644.0" y="1190.6666666666667" type="curve" smooth="yes"/>
      <point x="596.9999999999999" y="1190.6666666666667"/>
      <point x="565.3333333333333" y="1227.3333333333335"/>
      <point x="572.3333333333333" y="1276.3333333333335" type="curve" smooth="yes"/>
      <point x="579.3333333333333" y="1327.3333333333335"/>
      <point x="629.3333333333333" y="1370.6666666666667"/>
      <point x="682.6666666666667" y="1370.6666666666667" type="curve" smooth="yes"/>
      <point x="729.3333333333334" y="1370.6666666666667"/>
      <point x="761.0" y="1334.0"/>
      <point x="754.0" y="1289.0" type="curve" smooth="yes"/>
      <point x="747.0" y="1234.0"/>
      <point x="697.0" y="1190.6666666666667"/>
    </contour>
  </outline>
</glyph>
<glyph name="cedillacomb" format="2">
  <unicode hex="0327"/>
  <outline>
    <contour>
      <point x="287.0" y="-306.0" type="line"/>
      <point x="343.3333333333333" y="-306.0" type="line" smooth="yes"/>
      <point x="539.3333333333334" y="-306.0"/>
      <point x="716.6666666666666" y="-151.33333333333334"/>
      <point x="744.3333333333334" y="44.666666666666664" type="curve" smooth="yes"/>
      <point x="751.6666666666666" y="101.33333333333334" type="line"/>
      <point x="652.3333333333333" y="101.33333333333334" type="line"/>
      <point x="645.0" y="50.66666666666667" type="line" smooth="yes"/>
      <point x="625.6666666666666" y="-86.0"/>
      <point x="488.33333333333337" y="-206.66666666666666"/>
      <point x="351.6666666666667" y="-206.66666666666666" type="curve" smooth="yes"/>
      <point x="300.3333333333333" y="-206.66666666666666" type="line"/>
    </contour>
  </outline>
</glyph>
<glyph name="mu" format="2">
  <advance width="1042.5"/>
  <unicode hex="03BC"/>
  <outline>
    <contour>
      <point x="-51.0" y="-432.0" type="line"/>
      <point x="69.0" y="-432.0" type="line"/>
      <point x="154.66666666666666" y="157.66666666666666" type="line"/>
      <point x="206.33333333333334" y="49.666666666666664"/>
      <point x="307.3333333333333" y="-26.666666666666668"/>
      <point x="443.66666666666663" y="-26.666666666666668" type="curve" smooth="yes"/>
      <point x="578.6666666666667" y="-26.666666666666668"/>
      <point x="704.3333333333334" y="48.33333333333333"/>
      <point x="798.3333333333333" y="175.0" type="curve"/>
      <point x="772.0" y="0.0" type="line"/>
      <point x="892.6666666666666" y="0.0" type="line"/>
      <point x="1032.6666666666665" y="1000.0" type="line"/>
      <point x="912.6666666666666" y="1000.0" type="line"/>
      <point x="837.6666666666666" y="467.3333333333333" type="line" smooth="yes"/>
      <point x="809.0" y="262.0"/>
      <point x="643.0" y="91.33333333333334"/>
      <point x="460.3333333333333" y="91.33333333333334" type="curve" smooth="yes"/>
      <point x="282.3333333333333" y="91.33333333333334"/>
      <point x="165.66666666666666" y="255.33333333333334"/>
      <point x="194.33333333333334" y="460.6666666666667" type="curve" smooth="yes"/>
      <point x="270.0" y="1000.0" type="line"/>
      <point x="150.0" y="1000.0" type="line"/>
    </contour>
  </outline>
</glyph>
<glyph name="Germandbls" format="2">
  <advance width="1114.0"/>
  <unicode hex="1E9E"/>
  <outline>
    <contour>
      <point x="50.0" y="0.0" type="line"/>
      <point x="170.0" y="0.0" type="line"/>
      <point x="307.0" y="979.3333333333334" type="line" smooth="yes"/>
      <point x="331.3333333333333" y="1149.3333333333335"/>
      <point x="490.3333333333333" y="1289.3333333333333"/>
      <point x="657.6666666666666" y="1289.3333333333333" type="curve" smooth="yes"/>
      <point x="788.3333333333334" y="1289.3333333333333"/>
      <point x="898.0" y="1252.0"/>
      <point x="884.0" y="1139.0" type="curve" smooth="yes"/>
      <point x="871.0" y="1037.3333333333333"/>
      <point x="570.0" y="783.3333333333334"/>
      <point x="564.6666666666666" y="700.0" type="curve" smooth="yes"/>
      <point x="559.6666666666667" y="645.3333333333334" type="line"/>
      <point x="632.6666666666667" y="645.3333333333334" type="line" smooth="yes"/>
      <point x="783.3333333333334" y="645.3333333333334"/>
      <point x="952.0" y="568.6666666666667"/>
      <point x="926.3333333333333" y="385.66666666666663" type="curve" smooth="yes"/>
      <point x="899.3333333333333" y="193.33333333333334"/>
      <point x="702.0" y="108.66666666666667"/>
      <point x="552.0" y="108.66666666666667" type="curve" smooth="yes"/>
      <point x="465.6666666666667" y="108.66666666666667" type="line"/>
      <point x="480.00000000000006" y="0.0" type="line"/>
      <point x="551.0" y="0.0" type="line" smooth="yes"/>
      <point x="757.6666666666667" y="0.0"/>
      <point x="1001.6666666666666" y="125.33333333333334"/>
      <point x="1036.0" y="370.3333333333333" type="curve" smooth="yes"/>
      <point x="1066.0" y="584.0"/>
      <point x="885.3333333333334" y="748.0"/>
      <point x="689.3333333333334" y="721.6666666666667" type="curve"/>
      <point x="911.3333333333334" y="968.3333333333333"/>
      <point x="998.0" y="1042.0"/>
      <point x="1009.0" y="1124.3333333333333" type="curve" smooth="yes"/>
      <point x="1033.6666666666667" y="1298.6666666666667"/>
      <point x="875.0" y="1398.6666666666667"/>
      <point x="677.0" y="1398.6666666666667" type="curve" smooth="yes"/>
      <point x="439.0" y="1398.6666666666667"/>
      <point x="219.0" y="1206.0"/>
      <point x="185.0" y="965.3333333333334" type="curve" smooth="yes"/>
    </contour>
  </outline>
</glyph>
<glyph name="endash" format="2">
  <advance width="1240.0"/>
  <unicode hex="2013"/>
  <outline>
    <contour>
      <point x="142.0" y="660.0" type="line"/>
      <point x="126.0" y="540.0" type="line"/>
      <point x="1126.0" y="540.0" type="line"/>
      <point x="1142.0" y="660.0" type="line"/>
    </contour>
  </outline>
</glyph>
<glyph name="emdash" format="2">
  <advance width="2040.0"/>
  <unicode hex="2014"/>
  <outline>
    <contour>
      <point x="142.0" y="660.0" type="line"/>
      <point x="126.0" y="540.0" type="line"/>
      <point x="1926.0" y="540.0" type="line"/>
      <point x="1942.0" y="660.0" type="line"/>
    </contour>
  </outline>
</glyph>
<glyph name="quoteleft" format="2">
  <advance width="282.0"/>
  <unicode hex="2018"/>
  <unicode hex="02BB"/>
  <outline>
    <contour>
      <point x="112.33333333333333" y="878.0" type="line"/>
      <point x="233.0" y="878.0" type="line"/>
      <point x="369.0" y="1400.0" type="line"/>
      <point x="287.3333333333333" y="1400.0" type="line"/>
    </contour>
  </outline>
</glyph>
<glyph name="quoteright" format="2">
  <advance width="282.0"/>
  <unicode hex="2019"/>
  <unicode hex="2032"/>
  <outline>
    <contour>
      <point x="93.0" y="878.0" type="line"/>
      <point x="173.66666666666666" y="878.0" type="line"/>
      <point x="349.6666666666667" y="1400.0" type="line"/>
      <point x="228.0" y="1400.0" type="line"/>
    </contour>
  </outline>
</glyph>
<glyph name="dagger" format="2">
  <advance width="776.0"/>
  <unicode hex="2020"/>
  <outline>
    <contour>
      <point x="165.33333333333334" y="1105.3333333333333" type="line"/>
      <point x="413.3333333333333" y="1105.3333333333333" type="line"/>
      <point x="340.6666666666667" y="590.0" type="line"/>
      <point x="460.6666666666667" y="590.0" type="line"/>
      <point x="533.3333333333334" y="1105.3333333333333" type="line"/>
      <point x="781.3333333333334" y="1105.3333333333333" type="line"/>
      <point x="797.3333333333334" y="1225.3333333333333" type="line"/>
      <point x="549.3333333333334" y="1225.3333333333333" type="line"/>
      <point x="589.0" y="1500.0" type="line"/>
      <point x="469.0" y="1500.0" type="line"/>
      <point x="429.3333333333333" y="1225.3333333333333" type="line"/>
      <point x="181.33333333333334" y="1225.3333333333333" type="line"/>
    </contour>
  </outline>
</glyph>
<glyph name="daggerdbl" format="2">
  <advance width="776.0"/>
  <unicode hex="2021"/>
  <outline>
    <contour>
      <point x="121.0" y="792.0" type="line"/>
      <point x="369.0" y="792.0" type="line"/>
      <point x="336.0" y="560.0" type="line"/>
      <point x="456.0" y="560.0" type="line"/>
      <point x="489.0" y="792.0" type="line"/>
      <point x="737.0" y="792.0" type="line"/>
      <point x="753.0" y="910.0" type="line"/>
      <point x="505.0" y="910.0" type="line"/>
      <point x="536.6666666666666" y="1130.0" type="line"/>
      <point x="784.6666666666666" y="1130.0" type="line"/>
      <point x="801.3333333333334" y="1250.0" type="line"/>
      <point x="553.3333333333334" y="1250.0" type="line"/>
      <point x="589.0" y="1500.0" type="line"/>
      <point x="469.0" y="1500.0" type="line"/>
      <point x="433.3333333333333" y="1250.0" type="line"/>
      <point x="185.33333333333334" y="1250.0" type="line"/>
      <point x="168.66666666666666" y="1130.0" type="line"/>
      <point x="416.6666666666667" y="1130.0" type="line"/>
      <point x="385.0" y="910.0" type="line"/>
      <point x="137.0" y="910.0" type="line"/>
    </contour>
  </outline>
</glyph>
<glyph name="bullet" format="2">
  <advance width="350.0"/>
  <unicode hex="2022"/>
  <outline>
    <contour>
      <point x="181.0" y="505.3333333333333" type="curve" smooth="yes"/>
      <point x="231.66666666666666" y="505.3333333333333"/>
      <point x="276.3333333333333" y="543.3333333333333"/>
      <point x="283.3333333333333" y="595.0" type="curve" smooth="yes"/>
      <point x="291.0" y="649.3333333333334"/>
      <point x="252.33333333333334" y="695.3333333333334"/>
      <point x="194.33333333333334" y="695.3333333333334" type="curve" smooth="yes"/>
      <point x="145.66666666666666" y="695.3333333333334"/>
      <point x="102.33333333333333" y="656.6666666666667"/>
      <point x="95.0" y="608.3333333333334" type="curve" smooth="yes"/>
      <point x="87.33333333333333" y="550.0"/>
      <point x="125.0" y="505.3333333333333"/>
    </contour>
  </outline>
</glyph>
